<?xml version="1.0" encoding="UTF-8" ?>
<!DOCTYPE svg PUBLIC "-//W3C//DTD SVG 1.1//EN" "http://www.w3.org/Graphics/SVG/1.1/DTD/svg11.dtd">
<svg width="482pt" height="512pt" viewBox="0 0 482 512" version="1.1" xmlns="http://www.w3.org/2000/svg">
<g id="#b52e31ff">
<path fill="#b52e31" opacity="1.00" d=" M 236.57 0.99 C 317.80 28.67 399.10 56.22 480.26 84.11 C 467.41 188.68 454.31 293.26 440.84 397.75 C 372.99 435.39 305.11 473.02 237.12 510.42 C 236.88 444.96 237.10 379.51 237.01 314.05 C 260.29 314.07 283.58 313.93 306.86 314.12 C 317.98 338.89 328.42 363.98 339.38 388.83 C 356.90 389.65 374.48 389.58 392.03 389.97 C 340.58 280.17 289.00 170.44 237.34 60.74 C 236.33 41.05 237.78 21.29 236.61 1.61 L 236.57 0.99 Z" />
<path fill="#b52e31" opacity="1.00" d=" M 237.14 166.25 C 238.05 166.86 238.72 167.68 239.14 168.69 C 255.24 202.54 271.55 236.28 287.61 270.15 C 270.75 270.20 253.88 270.24 237.01 270.13 C 236.87 236.32 237.34 202.50 236.77 168.70 C 236.86 168.09 237.05 166.86 237.14 166.25 Z" />
</g>
<g id="#e23237ff">
<path fill="#e23237" opacity="1.00" d=" M 0.29 85.73 C 79.03 57.62 157.76 29.41 236.61 1.61 C 237.78 21.29 236.33 41.05 237.34 60.74 C 188.38 170.22 138.93 279.50 89.98 388.98 C 108.27 388.81 126.57 388.49 144.85 388.04 C 155.03 363.58 164.55 338.83 174.54 314.29 C 195.33 313.70 216.19 314.19 237.01 314.05 C 237.10 379.51 236.88 444.96 237.12 510.42 C 170.26 473.13 103.07 436.33 36.42 398.74 C 24.34 294.41 12.25 190.08 0.29 85.73 Z" />
<path fill="#e23237" opacity="1.00" d=" M 193.99 270.16 C 208.19 236.31 222.30 202.42 236.77 168.70 C 237.34 202.50 236.87 236.32 237.01 270.13 C 222.68 270.25 208.33 270.18 193.99 270.16 Z" />
</g>
<g id="#ffffffff">
<path fill="#ffffff" opacity="1.00" d=" M 237.34 60.74 C 289.00 170.44 340.58 280.17 392.03 389.97 C 374.48 389.58 356.90 389.65 339.38 388.83 C 328.42 363.98 317.98 338.89 306.86 314.12 C 283.58 313.93 260.29 314.07 237.01 314.05 C 216.19 314.19 195.33 313.70 174.54 314.29 C 164.55 338.83 155.03 363.58 144.85 388.04 C 126.57 388.49 108.27 388.81 89.98 388.98 C 138.93 279.50 188.38 170.22 237.34 60.74 M 237.14 166.25 C 237.05 166.86 236.86 168.09 236.77 168.70 C 222.30 202.42 208.19 236.31 193.99 270.16 C 208.33 270.18 222.68 270.25 237.01 270.13 C 253.88 270.24 270.75 270.20 287.61 270.15 C 271.55 236.28 255.24 202.54 239.14 168.69 C 238.72 167.68 238.05 166.86 237.14 166.25 Z" />
</g>
</svg>
