<?xml version="1.0" encoding="UTF-8" ?>
<!DOCTYPE svg PUBLIC "-//W3C//DTD SVG 1.1//EN" "http://www.w3.org/Graphics/SVG/1.1/DTD/svg11.dtd">
<svg width="300pt" height="300pt" viewBox="0 0 300 300" version="1.1" xmlns="http://www.w3.org/2000/svg">
<g id="#faf2ffff">
<path fill="#faf2ff" opacity="1.00" d=" M 0.00 0.00 L 300.00 0.00 L 300.00 1.00 C 200.00 1.01 100.00 1.03 0.00 1.00 L 0.00 0.00 Z" />
<path fill="#faf2ff" opacity="1.00" d=" M 50.09 74.97 C 49.83 62.04 60.84 49.74 73.95 49.50 C 122.96 49.46 171.98 49.53 221.00 49.47 C 235.08 47.41 249.01 58.73 249.81 72.91 C 249.72 91.34 249.57 110.60 257.13 127.80 C 260.74 136.38 268.28 143.82 277.93 144.63 C 277.97 148.81 277.96 153.00 277.98 157.18 C 268.30 158.22 260.73 165.55 257.05 174.21 C 249.77 191.11 249.47 209.96 249.82 228.07 C 249.51 240.62 238.73 252.19 225.99 252.41 C 177.99 252.46 130.00 252.45 82.00 252.47 C 76.70 252.43 71.15 252.96 66.15 250.80 C 56.69 247.07 49.98 237.22 50.16 227.03 C 50.52 210.95 50.03 194.48 44.84 179.11 C 41.55 168.70 33.78 158.33 22.08 157.36 C 21.93 153.13 21.93 148.88 22.08 144.65 C 32.59 143.66 40.32 135.11 43.75 125.67 C 50.02 109.60 50.42 92.00 50.09 74.97 M 65.99 66.96 C 60.87 73.21 64.32 81.68 63.15 88.95 C 62.31 110.88 59.27 136.35 40.90 151.00 C 49.59 157.62 55.08 167.56 58.11 177.89 C 62.87 193.80 63.54 210.60 63.10 227.09 C 62.95 233.48 68.49 239.60 74.99 239.50 C 125.00 239.49 175.00 239.49 225.01 239.50 C 231.60 239.70 236.96 233.41 237.03 227.08 C 236.44 207.09 237.33 186.19 245.86 167.75 C 248.80 161.16 253.45 155.49 259.09 151.01 C 249.39 143.43 243.65 131.96 240.83 120.19 C 237.09 105.45 236.41 90.08 236.93 74.95 C 237.03 68.59 231.57 62.30 225.00 62.50 C 175.67 62.49 126.33 62.55 76.99 62.47 C 72.87 62.17 68.47 63.47 65.99 66.96 Z" />
<path fill="#faf2ff" opacity="1.00" d=" M 111.13 97.11 C 125.75 96.85 140.38 97.05 155.01 97.01 C 162.89 96.91 170.98 98.88 177.32 103.72 C 188.07 111.58 190.35 128.61 182.10 139.04 C 178.51 144.03 172.93 146.93 167.17 148.64 C 175.94 149.67 184.65 154.11 189.03 162.05 C 195.21 173.25 192.98 188.72 183.52 197.45 C 176.01 204.00 165.78 206.49 156.00 206.51 C 141.07 206.49 126.15 206.54 111.22 206.49 C 111.05 170.03 111.22 133.57 111.13 97.11 M 128.19 111.05 C 128.15 121.91 128.24 132.76 128.14 143.61 C 139.70 142.83 152.32 145.86 162.96 139.99 C 173.33 134.21 172.20 115.97 160.47 112.43 C 150.02 109.49 138.90 111.21 128.19 111.05 M 128.01 156.67 C 128.41 168.64 128.03 180.62 128.13 192.60 C 136.78 192.65 145.42 192.71 154.07 192.58 C 160.17 192.28 166.88 190.88 171.10 186.09 C 178.17 177.93 175.88 162.73 165.03 159.00 C 153.20 154.77 140.30 157.18 128.01 156.67 Z" />
</g>
<g id="#930afdff">
<path fill="#930afd" opacity="1.00" d=" M 0.00 1.00 C 100.00 1.03 200.00 1.01 300.00 1.00 L 300.00 300.00 L 0.00 300.00 L 0.00 1.00 M 50.09 74.97 C 50.42 92.00 50.02 109.60 43.75 125.67 C 40.32 135.11 32.59 143.66 22.08 144.65 C 21.93 148.88 21.93 153.13 22.08 157.36 C 33.78 158.33 41.55 168.70 44.84 179.11 C 50.03 194.48 50.52 210.95 50.16 227.03 C 49.98 237.22 56.69 247.07 66.15 250.80 C 71.15 252.96 76.70 252.43 82.00 252.47 C 130.00 252.45 177.99 252.46 225.99 252.41 C 238.73 252.19 249.51 240.62 249.82 228.07 C 249.47 209.96 249.77 191.11 257.05 174.21 C 260.73 165.55 268.30 158.22 277.98 157.18 C 277.96 153.00 277.97 148.81 277.93 144.63 C 268.28 143.82 260.74 136.38 257.13 127.80 C 249.57 110.60 249.72 91.34 249.81 72.91 C 249.01 58.73 235.08 47.41 221.00 49.47 C 171.98 49.53 122.96 49.46 73.95 49.50 C 60.84 49.74 49.83 62.04 50.09 74.97 Z" />
<path fill="#930afd" opacity="1.00" d=" M 65.99 66.96 C 68.47 63.47 72.87 62.17 76.99 62.47 C 126.33 62.55 175.67 62.49 225.00 62.50 C 231.57 62.30 237.03 68.59 236.93 74.95 C 236.41 90.08 237.09 105.45 240.83 120.19 C 243.65 131.96 249.39 143.43 259.09 151.01 C 253.45 155.49 248.80 161.16 245.86 167.75 C 237.33 186.19 236.44 207.09 237.03 227.08 C 236.96 233.41 231.60 239.70 225.01 239.50 C 175.00 239.49 125.00 239.49 74.99 239.50 C 68.49 239.60 62.95 233.48 63.10 227.09 C 63.54 210.60 62.87 193.80 58.11 177.89 C 55.08 167.56 49.59 157.62 40.90 151.00 C 59.27 136.35 62.31 110.88 63.15 88.95 C 64.32 81.68 60.87 73.21 65.99 66.96 M 111.13 97.11 C 111.22 133.57 111.05 170.03 111.22 206.49 C 126.15 206.54 141.07 206.49 156.00 206.51 C 165.78 206.49 176.01 204.00 183.52 197.45 C 192.98 188.72 195.21 173.25 189.03 162.05 C 184.65 154.11 175.94 149.67 167.17 148.64 C 172.93 146.93 178.51 144.03 182.10 139.04 C 190.35 128.61 188.07 111.58 177.32 103.72 C 170.98 98.88 162.89 96.91 155.01 97.01 C 140.38 97.05 125.75 96.85 111.13 97.11 Z" />
<path fill="#930afd" opacity="1.00" d=" M 128.19 111.05 C 138.90 111.21 150.02 109.49 160.47 112.43 C 172.20 115.97 173.33 134.21 162.96 139.99 C 152.32 145.86 139.70 142.83 128.14 143.61 C 128.24 132.76 128.15 121.91 128.19 111.05 Z" />
<path fill="#930afd" opacity="1.00" d=" M 128.01 156.67 C 140.30 157.18 153.20 154.77 165.03 159.00 C 175.88 162.73 178.17 177.93 171.10 186.09 C 166.88 190.88 160.17 192.28 154.07 192.58 C 145.42 192.71 136.78 192.65 128.13 192.60 C 128.03 180.62 128.41 168.64 128.01 156.67 Z" />
</g>
</svg>
