<?xml version="1.0" encoding="UTF-8" ?>
<!DOCTYPE svg PUBLIC "-//W3C//DTD SVG 1.1//EN" "http://www.w3.org/Graphics/SVG/1.1/DTD/svg11.dtd">
<svg width="800pt" height="800pt" viewBox="0 0 800 800" version="1.1" xmlns="http://www.w3.org/2000/svg">
<g id="#0277bdff">
<path fill="#0277bd" opacity="1.00" d=" M 116.99 83.26 C 305.66 83.37 494.34 83.37 683.01 83.26 C 683.37 85.91 682.81 88.55 682.63 91.19 C 666.20 277.45 649.76 463.71 633.33 649.97 C 556.26 672.09 479.13 694.01 402.06 716.11 C 399.62 717.12 397.17 715.77 394.81 715.20 C 318.78 693.42 242.70 671.78 166.67 649.97 C 150.24 463.71 133.80 277.45 117.37 91.19 C 117.19 88.55 116.62 85.91 116.99 83.26 M 400.21 133.26 C 399.77 161.05 400.04 188.87 400.06 216.67 C 348.95 216.74 297.84 216.62 246.72 216.73 C 248.36 238.92 250.02 261.10 251.71 283.28 C 328.33 283.35 404.96 283.27 481.58 283.43 C 481.47 284.98 481.38 286.53 481.29 288.08 C 481.30 286.66 481.26 285.24 481.19 283.83 C 454.19 283.47 427.14 283.39 400.14 283.87 C 399.84 305.91 400.01 327.97 400.06 350.01 C 374.49 350.14 348.93 349.95 323.36 350.11 C 324.62 372.29 325.30 394.54 326.92 416.68 C 351.29 416.60 375.67 416.62 400.04 416.67 C 399.96 449.40 399.98 482.14 400.03 514.88 C 377.18 507.51 354.58 499.32 331.77 491.80 C 330.89 477.90 330.68 463.97 329.94 450.06 C 307.75 450.08 285.56 449.98 263.36 450.11 C 265.04 480.61 266.66 511.12 268.38 541.62 C 312.26 556.14 356.18 570.55 400.10 584.98 C 399.97 611.60 399.83 638.24 400.18 664.86 C 459.54 648.12 518.80 630.98 578.14 614.13 C 580.90 613.33 583.77 612.76 586.32 611.38 C 587.32 608.51 587.13 605.37 587.49 602.38 C 600.83 449.37 614.12 296.35 627.47 143.34 C 627.86 140.01 628.18 136.65 627.87 133.29 C 551.99 133.10 476.09 133.17 400.21 133.26 Z" />
</g>
<g id="#039be5ff">
<path fill="#039be5" opacity="1.00" d=" M 400.21 133.26 C 476.09 133.17 551.99 133.10 627.87 133.29 C 628.18 136.65 627.86 140.01 627.47 143.34 C 614.12 296.35 600.83 449.37 587.49 602.38 C 587.13 605.37 587.32 608.51 586.32 611.38 C 583.77 612.76 580.90 613.33 578.14 614.13 C 518.80 630.98 459.54 648.12 400.18 664.86 C 399.83 638.24 399.97 611.60 400.10 584.98 C 443.95 570.52 487.85 556.19 531.66 541.63 C 538.28 433.31 544.86 324.99 551.65 216.69 C 501.12 216.63 450.59 216.66 400.06 216.67 C 400.04 188.87 399.77 161.05 400.21 133.26 Z" />
<path fill="#039be5" opacity="1.00" d=" M 400.14 283.87 C 427.14 283.39 454.19 283.47 481.19 283.83 C 481.26 285.24 481.30 286.66 481.29 288.08 C 479.78 308.70 478.17 329.32 476.68 349.94 C 451.14 350.09 425.60 349.94 400.06 350.01 C 400.01 327.97 399.84 305.91 400.14 283.87 Z" />
<path fill="#039be5" opacity="1.00" d=" M 400.04 416.67 C 424.43 416.79 448.82 416.59 473.21 416.76 C 471.66 441.76 470.11 466.76 468.16 491.72 C 445.43 499.38 422.80 507.33 400.03 514.88 C 399.98 482.14 399.96 449.40 400.04 416.67 Z" />
</g>
<g id="#f8f8f8ff">
<path fill="#f8f8f8" opacity="1.00" d=" M 246.72 216.73 C 297.84 216.62 348.95 216.74 400.06 216.67 C 450.59 216.66 501.12 216.63 551.65 216.69 C 544.86 324.99 538.28 433.31 531.66 541.63 C 487.85 556.19 443.95 570.52 400.10 584.98 C 356.18 570.55 312.26 556.14 268.38 541.62 C 266.66 511.12 265.04 480.61 263.36 450.11 C 285.56 449.98 307.75 450.08 329.94 450.06 C 330.68 463.97 330.89 477.90 331.77 491.80 C 354.58 499.32 377.18 507.51 400.03 514.88 C 422.80 507.33 445.43 499.38 468.16 491.72 C 470.11 466.76 471.66 441.76 473.21 416.76 C 448.82 416.59 424.43 416.79 400.04 416.67 C 375.67 416.62 351.29 416.60 326.92 416.68 C 325.30 394.54 324.62 372.29 323.36 350.11 C 348.93 349.95 374.49 350.14 400.06 350.01 C 425.60 349.94 451.14 350.09 476.68 349.94 C 478.17 329.32 479.78 308.70 481.29 288.08 C 481.38 286.53 481.47 284.98 481.58 283.43 C 404.96 283.27 328.33 283.35 251.71 283.28 C 250.02 261.10 248.36 238.92 246.72 216.73 Z" />
</g>
</svg>
