<?xml version="1.0" encoding="UTF-8" ?>
<!DOCTYPE svg PUBLIC "-//W3C//DTD SVG 1.1//EN" "http://www.w3.org/Graphics/SVG/1.1/DTD/svg11.dtd">
<svg width="300pt" height="300pt" viewBox="0 0 300 300" version="1.1" xmlns="http://www.w3.org/2000/svg">
<g id="#ffffffff">
</g>
<g id="#242937ff">
<path fill="#242937" opacity="1.00" d=" M 140.33 25.40 C 158.00 24.04 175.97 26.29 192.68 32.22 C 232.45 46.13 264.25 80.98 274.08 122.00 C 280.84 149.59 278.15 179.47 266.24 205.29 C 251.22 237.72 222.27 263.59 188.02 274.06 C 158.79 283.15 126.28 281.24 98.37 268.64 C 65.55 253.81 39.34 224.66 28.73 190.17 C 17.78 155.23 22.66 115.44 42.65 84.65 C 63.62 51.13 100.76 28.14 140.33 25.40 M 137.44 66.99 C 137.33 74.69 145.48 81.05 152.90 78.99 C 156.64 78.17 159.25 75.19 161.71 72.48 C 171.71 79.36 178.51 89.97 182.93 101.10 C 195.80 134.69 196.18 172.77 185.75 207.07 C 187.30 209.43 190.91 209.61 191.41 206.36 C 199.84 178.15 200.36 147.71 194.00 119.02 C 189.30 99.29 180.89 78.20 162.80 67.18 C 162.47 61.61 159.22 56.07 153.62 54.49 C 145.80 51.75 136.85 58.79 137.44 66.99 M 94.33 95.39 C 84.76 96.94 74.89 101.17 69.42 109.56 C 61.21 122.28 65.86 138.77 73.33 150.67 C 75.01 153.53 79.44 150.04 77.40 147.63 C 72.73 138.99 68.66 129.03 70.95 119.06 C 72.66 111.18 79.34 105.42 86.68 102.75 C 98.10 98.60 110.53 99.71 122.30 101.48 C 125.14 102.10 126.54 97.27 123.44 96.59 C 113.93 94.47 103.99 94.13 94.33 95.39 M 196.94 100.07 C 209.46 100.09 224.93 104.85 228.69 118.30 C 232.41 134.28 222.49 149.11 213.08 161.08 C 210.79 163.03 212.68 165.53 214.86 166.47 C 224.57 156.04 232.84 143.26 234.60 128.85 C 235.74 120.33 233.16 111.19 226.82 105.21 C 218.43 97.27 206.29 94.52 195.04 94.94 C 191.68 96.16 193.71 100.89 196.94 100.07 M 166.81 98.73 C 138.14 106.86 111.42 122.23 90.22 143.20 C 77.80 156.33 65.59 172.14 65.14 191.01 C 65.39 194.64 61.00 195.84 59.93 198.99 C 56.00 206.35 61.54 216.56 70.00 216.83 C 78.44 218.25 86.27 209.47 83.72 201.26 C 82.24 195.14 76.15 191.65 70.16 191.45 C 71.18 172.71 83.50 157.00 96.45 144.44 C 118.17 123.98 145.30 109.10 174.36 102.24 C 175.77 101.83 176.06 100.06 176.91 99.05 C 174.18 95.90 170.13 98.05 166.81 98.73 M 147.26 149.24 C 140.91 151.01 138.63 159.94 143.72 164.30 C 148.30 169.44 157.47 166.45 158.82 159.92 C 160.85 153.43 153.48 146.96 147.26 149.24 M 87.89 170.08 C 107.34 190.36 132.11 205.26 158.60 214.42 C 178.63 220.22 201.27 224.52 220.86 214.97 C 227.52 218.73 237.38 216.86 240.20 209.17 C 244.28 200.37 235.32 189.76 225.98 191.98 C 217.48 193.41 213.30 203.54 217.14 210.97 C 205.05 217.00 190.92 216.20 177.97 213.96 C 143.94 207.35 112.83 188.69 88.90 163.89 C 84.76 163.30 85.23 168.46 87.89 170.08 M 112.24 208.18 C 110.62 209.03 109.54 210.61 110.57 212.37 C 115.24 224.56 121.55 236.78 131.98 245.02 C 138.82 250.52 148.21 253.32 156.81 250.79 C 167.65 247.67 175.78 238.79 181.30 229.32 C 183.52 226.43 178.33 223.44 176.85 226.82 C 170.61 236.78 160.91 247.49 148.03 246.38 C 132.93 244.18 123.89 229.76 118.13 216.95 C 116.30 214.06 116.38 208.71 112.24 208.18 Z" />
<path fill="#242937" opacity="1.00" d=" M 148.37 59.35 C 153.96 57.90 159.46 64.50 156.68 69.70 C 154.69 74.80 147.00 75.66 144.08 70.97 C 140.76 66.98 143.52 60.45 148.37 59.35 Z" />
<path fill="#242937" opacity="1.00" d=" M 69.29 197.30 C 74.95 195.31 81.01 201.93 78.29 207.35 C 76.42 212.43 68.92 213.61 65.68 209.24 C 62.13 205.38 64.28 198.59 69.29 197.30 Z" />
<path fill="#242937" opacity="1.00" d=" M 226.29 197.30 C 231.94 195.31 238.01 201.92 235.29 207.35 C 233.42 212.42 225.91 213.62 222.70 209.21 C 219.10 205.39 221.30 198.58 226.29 197.30 Z" />
</g>
<g id="#71ebfaff">
<path fill="#71ebfa" opacity="1.00" d=" M 137.44 66.99 C 136.85 58.79 145.80 51.75 153.62 54.49 C 159.22 56.07 162.47 61.61 162.80 67.18 C 180.89 78.20 189.30 99.29 194.00 119.02 C 200.36 147.71 199.84 178.15 191.41 206.36 C 190.91 209.61 187.30 209.43 185.75 207.07 C 196.18 172.77 195.80 134.69 182.93 101.10 C 178.51 89.97 171.71 79.36 161.71 72.48 C 159.25 75.19 156.64 78.17 152.90 78.99 C 145.48 81.05 137.33 74.69 137.44 66.99 M 148.37 59.35 C 143.52 60.45 140.76 66.98 144.08 70.97 C 147.00 75.66 154.69 74.80 156.68 69.70 C 159.46 64.50 153.96 57.90 148.37 59.35 Z" />
<path fill="#71ebfa" opacity="1.00" d=" M 94.33 95.39 C 103.99 94.13 113.93 94.47 123.44 96.59 C 126.54 97.27 125.14 102.10 122.30 101.48 C 110.53 99.71 98.10 98.60 86.68 102.75 C 79.34 105.42 72.66 111.18 70.95 119.06 C 68.66 129.03 72.73 138.99 77.40 147.63 C 79.44 150.04 75.01 153.53 73.33 150.67 C 65.86 138.77 61.21 122.28 69.42 109.56 C 74.89 101.17 84.76 96.94 94.33 95.39 Z" />
<path fill="#71ebfa" opacity="1.00" d=" M 196.94 100.07 C 193.71 100.89 191.68 96.16 195.04 94.94 C 206.29 94.52 218.43 97.27 226.82 105.21 C 233.16 111.19 235.74 120.33 234.60 128.85 C 232.84 143.26 224.57 156.04 214.86 166.47 C 212.68 165.53 210.79 163.03 213.08 161.08 C 222.49 149.11 232.41 134.28 228.69 118.30 C 224.93 104.85 209.46 100.09 196.94 100.07 Z" />
<path fill="#71ebfa" opacity="1.00" d=" M 166.81 98.73 C 170.13 98.05 174.18 95.90 176.91 99.05 C 176.06 100.06 175.77 101.83 174.36 102.24 C 145.30 109.10 118.17 123.98 96.45 144.44 C 83.50 157.00 71.18 172.71 70.16 191.45 C 76.15 191.65 82.24 195.14 83.72 201.26 C 86.27 209.47 78.44 218.25 70.00 216.83 C 61.54 216.56 56.00 206.35 59.93 198.99 C 61.00 195.84 65.39 194.64 65.14 191.01 C 65.59 172.14 77.80 156.33 90.22 143.20 C 111.42 122.23 138.14 106.86 166.81 98.73 M 69.29 197.30 C 64.28 198.59 62.13 205.38 65.68 209.24 C 68.92 213.61 76.42 212.43 78.29 207.35 C 81.01 201.93 74.95 195.31 69.29 197.30 Z" />
<path fill="#71ebfa" opacity="1.00" d=" M 147.26 149.24 C 153.48 146.96 160.85 153.43 158.82 159.92 C 157.47 166.45 148.30 169.44 143.72 164.30 C 138.63 159.94 140.91 151.01 147.26 149.24 Z" />
<path fill="#71ebfa" opacity="1.00" d=" M 87.89 170.08 C 85.23 168.46 84.76 163.30 88.90 163.89 C 112.83 188.69 143.94 207.35 177.97 213.96 C 190.92 216.20 205.05 217.00 217.14 210.97 C 213.30 203.54 217.48 193.41 225.98 191.98 C 235.32 189.76 244.28 200.37 240.20 209.17 C 237.38 216.86 227.52 218.73 220.86 214.97 C 201.27 224.52 178.63 220.22 158.60 214.42 C 132.11 205.26 107.34 190.36 87.89 170.08 M 226.29 197.30 C 221.30 198.58 219.10 205.39 222.70 209.21 C 225.91 213.62 233.42 212.42 235.29 207.35 C 238.01 201.92 231.94 195.31 226.29 197.30 Z" />
<path fill="#71ebfa" opacity="1.00" d=" M 112.24 208.18 C 116.38 208.71 116.30 214.06 118.13 216.95 C 123.89 229.76 132.93 244.18 148.03 246.38 C 160.91 247.49 170.61 236.78 176.85 226.82 C 178.33 223.44 183.52 226.43 181.30 229.32 C 175.78 238.79 167.65 247.67 156.81 250.79 C 148.21 253.32 138.82 250.52 131.98 245.02 C 121.55 236.78 115.24 224.56 110.57 212.37 C 109.54 210.61 110.62 209.03 112.24 208.18 Z" />
</g>
</svg>
