<?xml version="1.0" encoding="UTF-8" ?>
<!DOCTYPE svg PUBLIC "-//W3C//DTD SVG 1.1//EN" "http://www.w3.org/Graphics/SVG/1.1/DTD/svg11.dtd">
<svg width="500pt" height="500pt" viewBox="0 0 500 500" version="1.1" xmlns="http://www.w3.org/2000/svg">
<g id="#838383ff">
<path fill="#838383" opacity="1.00" d=" M 0.00 0.00 L 500.00 0.00 L 500.00 1.01 C 333.33 0.99 166.67 1.00 0.00 1.00 L 0.00 0.00 Z" />
<path fill="#838383" opacity="1.00" d=" M 230.25 14.24 C 256.34 12.53 282.83 13.98 308.23 20.44 C 356.12 31.72 398.77 60.38 430.61 97.44 C 459.06 129.71 478.28 170.15 484.59 212.76 C 490.58 253.45 487.41 295.92 472.75 334.51 C 460.26 368.24 439.08 398.41 412.95 422.96 C 394.33 441.46 372.29 456.58 348.49 467.64 C 306.33 487.25 258.27 492.32 212.49 485.70 C 166.48 479.27 123.12 457.40 89.52 425.49 C 77.20 413.36 64.92 401.06 55.25 386.64 C 11.10 326.63 1.57 244.92 24.59 174.79 C 38.26 133.63 64.69 97.49 97.49 69.48 C 134.18 37.24 181.55 17.72 230.25 14.24 M 108.45 175.38 C 83.78 194.82 72.98 227.89 75.72 258.52 C 77.47 277.49 81.99 296.93 93.35 312.58 C 105.19 329.15 124.30 339.95 144.41 342.49 C 163.09 344.95 182.96 343.62 200.00 335.00 C 218.93 325.68 232.99 307.22 236.09 286.24 C 226.52 286.21 216.95 286.16 207.38 286.27 C 204.52 301.84 190.73 313.44 175.68 316.65 C 156.57 320.72 134.52 317.03 120.62 302.41 C 109.32 290.77 105.69 273.95 106.21 258.20 C 150.44 258.09 194.67 258.31 238.90 258.09 C 239.54 234.18 234.50 209.27 220.59 189.42 C 211.47 176.67 198.51 166.21 183.38 161.64 C 158.11 154.55 129.12 158.61 108.45 175.38 M 250.82 158.69 C 272.20 187.86 293.59 217.03 315.09 246.13 C 292.26 278.78 268.71 310.95 245.87 343.60 C 258.12 343.58 270.37 343.62 282.63 343.58 C 299.85 318.16 316.89 292.61 334.10 267.17 C 351.41 292.53 368.39 318.11 385.60 343.53 C 398.65 343.73 411.71 343.47 424.77 343.66 C 400.87 310.41 377.05 277.10 353.16 243.84 C 374.15 215.35 395.70 187.27 416.58 158.69 C 404.44 158.57 392.29 158.49 380.15 158.73 C 364.81 180.23 349.57 201.82 334.12 223.24 C 319.30 201.78 304.63 180.22 289.87 158.72 C 276.85 158.51 263.83 158.57 250.82 158.69 Z" />
<path fill="#838383" opacity="1.00" d=" M 126.15 194.17 C 145.34 179.23 175.44 181.10 192.51 198.48 C 201.97 207.83 207.11 220.99 207.98 234.14 C 174.05 234.13 140.09 234.48 106.18 233.96 C 107.25 218.80 113.95 203.61 126.15 194.17 Z" />
</g>
<g id="#ffffffff">
<path fill="#ffffff" opacity="1.00" d=" M 108.45 175.38 C 129.12 158.61 158.11 154.55 183.38 161.64 C 198.51 166.21 211.47 176.67 220.59 189.42 C 234.50 209.27 239.54 234.18 238.90 258.09 C 194.67 258.31 150.44 258.09 106.21 258.20 C 105.69 273.95 109.32 290.77 120.62 302.41 C 134.52 317.03 156.57 320.72 175.68 316.65 C 190.73 313.44 204.52 301.84 207.38 286.27 C 216.95 286.16 226.52 286.21 236.09 286.24 C 232.99 307.22 218.93 325.68 200.00 335.00 C 182.96 343.62 163.09 344.95 144.41 342.49 C 124.30 339.95 105.19 329.15 93.35 312.58 C 81.99 296.93 77.47 277.49 75.72 258.52 C 72.98 227.89 83.78 194.82 108.45 175.38 M 126.15 194.17 C 113.95 203.61 107.25 218.80 106.18 233.96 C 140.09 234.48 174.05 234.13 207.98 234.14 C 207.11 220.99 201.97 207.83 192.51 198.48 C 175.44 181.10 145.34 179.23 126.15 194.17 Z" />
<path fill="#ffffff" opacity="1.00" d=" M 250.82 158.69 C 263.83 158.57 276.85 158.51 289.87 158.72 C 304.63 180.22 319.30 201.78 334.12 223.24 C 349.57 201.82 364.81 180.23 380.15 158.73 C 392.29 158.49 404.44 158.57 416.58 158.69 C 395.70 187.27 374.15 215.35 353.16 243.84 C 377.05 277.10 400.87 310.41 424.77 343.66 C 411.71 343.47 398.65 343.73 385.60 343.53 C 368.39 318.11 351.41 292.53 334.10 267.17 C 316.89 292.61 299.85 318.16 282.63 343.58 C 270.37 343.62 258.12 343.58 245.87 343.60 C 268.71 310.95 292.26 278.78 315.09 246.13 C 293.59 217.03 272.20 187.86 250.82 158.69 Z" />
</g>
</svg>
