<?xml version="1.0" encoding="UTF-8" ?>
<!DOCTYPE svg PUBLIC "-//W3C//DTD SVG 1.1//EN" "http://www.w3.org/Graphics/SVG/1.1/DTD/svg11.dtd">
<svg width="452pt" height="452pt" viewBox="0 0 452 452" version="1.1" xmlns="http://www.w3.org/2000/svg">
<g id="#4caf50ff">
<path fill="#4caf50" opacity="1.00" d=" M 98.98 56.04 C 133.53 46.28 169.12 40.03 204.98 38.10 C 249.42 35.77 294.06 41.14 337.19 51.80 C 347.73 54.66 358.88 56.63 367.97 63.06 C 384.70 74.18 394.02 94.54 393.04 114.43 C 392.84 116.19 393.13 117.95 393.54 119.67 C 394.64 128.36 394.82 137.13 395.24 145.87 C 395.77 156.28 395.88 166.72 395.26 177.12 C 393.78 214.50 385.00 251.76 368.31 285.33 C 339.08 344.03 286.69 390.27 225.99 414.47 C 169.40 391.84 120.08 350.16 89.89 297.04 C 69.16 260.48 58.31 218.70 56.72 176.80 C 57.20 166.48 56.10 156.17 56.76 145.87 C 57.29 130.74 58.64 115.65 60.52 100.63 C 63.45 80.06 79.01 61.89 98.98 56.04 M 206.37 66.48 C 172.81 68.36 139.60 74.51 107.18 83.21 C 96.56 86.03 88.43 95.94 87.63 106.89 C 83.21 152.23 82.21 199.21 97.11 242.88 C 117.17 304.88 165.95 355.32 224.58 382.48 C 228.53 383.47 232.12 380.06 235.73 378.77 C 278.21 357.37 314.92 323.78 338.00 282.00 C 356.34 249.08 365.65 211.54 367.01 174.00 C 367.53 151.86 366.74 129.69 364.42 107.67 C 363.14 96.44 355.33 85.64 344.01 82.97 C 299.24 71.08 252.78 63.84 206.37 66.48 Z" />
<path fill="#4caf50" opacity="1.00" d=" M 226.11 94.64 C 251.17 116.76 269.21 146.90 277.76 179.19 C 283.78 203.34 284.77 229.46 276.29 253.16 C 268.29 275.56 253.62 295.47 235.24 310.44 C 232.50 301.61 229.40 292.88 226.49 284.10 C 226.00 280.42 226.00 276.70 225.96 273.00 C 226.12 213.55 225.83 154.09 226.11 94.64 Z" />
</g>
<g id="#5d4037ff">
<path fill="#5d4037" opacity="1.00" d=" M 206.37 66.48 C 252.78 63.84 299.24 71.08 344.01 82.97 C 355.33 85.64 363.14 96.44 364.42 107.67 C 366.74 129.69 367.53 151.86 367.01 174.00 C 365.65 211.54 356.34 249.08 338.00 282.00 C 314.92 323.78 278.21 357.37 235.73 378.77 C 232.12 380.06 228.53 383.47 224.58 382.48 C 165.95 355.32 117.17 304.88 97.11 242.88 C 82.21 199.21 83.21 152.23 87.63 106.89 C 88.43 95.94 96.56 86.03 107.18 83.21 C 139.60 74.51 172.81 68.36 206.37 66.48 M 169.49 221.63 C 170.56 250.90 184.46 278.57 204.63 299.39 C 208.22 303.58 212.89 306.75 216.26 311.11 C 217.30 320.23 215.74 330.05 216.73 338.78 L 216.72 339.13 C 222.94 338.87 229.17 339.07 235.39 338.98 C 235.32 329.47 235.67 319.94 235.24 310.44 C 253.62 295.47 268.29 275.56 276.29 253.16 C 284.77 229.46 283.78 203.34 277.76 179.19 C 269.21 146.90 251.17 116.76 226.11 94.64 L 226.12 93.89 C 190.82 126.13 167.65 173.28 169.49 221.63 Z" />
</g>
<g id="#81c784ff">
<path fill="#81c784" opacity="1.00" d=" M 169.49 221.63 C 167.65 173.28 190.82 126.13 226.12 93.89 L 226.11 94.64 C 225.83 154.09 226.12 213.55 225.96 273.00 C 226.00 276.70 226.00 280.42 226.49 284.10 C 223.05 290.08 221.68 296.91 219.26 303.32 C 214.58 314.59 217.46 326.98 216.73 338.78 C 215.74 330.05 217.30 320.23 216.26 311.11 C 212.89 306.75 208.22 303.58 204.63 299.39 C 184.46 278.57 170.56 250.90 169.49 221.63 Z" />
</g>
<g id="#3b6d3755">
<path fill="#3b6d37" opacity="0.33" d=" M 393.04 114.43 C 395.15 114.58 394.96 118.55 393.54 119.67 C 393.13 117.95 392.84 116.19 393.04 114.43 Z" />
<path fill="#3b6d37" opacity="0.33" d=" M 56.72 176.80 C 55.27 166.90 56.38 156.11 56.76 145.87 C 56.10 156.17 57.20 166.48 56.72 176.80 Z" />
<path fill="#3b6d37" opacity="0.33" d=" M 395.24 145.87 C 395.84 156.27 395.91 166.72 395.26 177.12 C 395.88 166.72 395.77 156.28 395.24 145.87 Z" />
</g>
<g id="#dcedc8ff">
<path fill="#dcedc8" opacity="1.00" d=" M 219.26 303.32 C 221.68 296.91 223.05 290.08 226.49 284.10 C 229.40 292.88 232.50 301.61 235.24 310.44 C 235.67 319.94 235.32 329.47 235.39 338.98 C 229.17 339.07 222.94 338.87 216.72 339.13 L 216.73 338.78 C 217.46 326.98 214.58 314.59 219.26 303.32 Z" />
</g>
</svg>
