<?xml version="1.0" encoding="UTF-8" ?>
<!DOCTYPE svg PUBLIC "-//W3C//DTD SVG 1.1//EN" "http://www.w3.org/Graphics/SVG/1.1/DTD/svg11.dtd">
<svg width="520pt" height="512pt" viewBox="0 0 520 512" version="1.1" xmlns="http://www.w3.org/2000/svg">
<g id="#00546bff">
<path fill="#00546b" opacity="1.00" d=" M 25.70 0.00 L 36.06 0.00 C 55.48 3.63 73.73 12.03 90.19 22.80 C 96.61 26.94 101.42 35.19 109.94 34.70 C 132.97 34.84 156.22 39.71 176.82 50.15 C 205.09 66.62 232.17 85.48 255.73 108.28 C 278.95 130.55 298.39 156.50 314.88 184.06 C 317.65 188.81 319.97 193.80 322.10 198.87 C 333.71 228.10 346.70 256.80 361.15 284.74 C 365.62 293.58 368.86 303.17 375.06 311.03 C 378.63 315.51 384.79 315.93 389.60 318.43 C 402.33 324.77 416.04 329.20 427.95 337.11 C 446.50 348.80 463.98 362.12 480.72 376.26 C 486.96 381.06 491.63 387.42 496.32 393.64 C 498.51 396.75 502.36 399.23 502.08 403.47 C 494.84 405.45 487.73 407.95 480.34 409.36 C 469.74 411.42 458.77 411.26 448.37 414.35 C 440.87 416.59 433.29 418.51 425.57 419.83 C 435.47 438.84 458.60 443.71 473.80 457.21 C 489.27 468.42 499.77 484.61 513.60 497.47 C 516.35 501.21 517.53 505.85 520.00 509.77 L 520.00 510.52 C 507.09 500.58 494.61 489.76 480.39 481.55 C 468.88 475.12 456.41 470.59 444.98 464.02 C 424.62 451.33 403.14 436.14 395.81 412.03 C 398.04 406.20 405.41 406.45 410.32 404.28 C 431.97 395.29 455.77 394.19 478.90 394.38 C 475.34 387.02 467.69 383.20 461.17 378.88 C 445.74 369.03 431.51 357.29 415.40 348.51 C 401.89 342.98 388.11 338.06 374.10 333.92 C 368.15 331.78 361.57 329.66 357.72 324.29 C 347.66 310.72 341.06 295.05 334.21 279.73 C 325.87 260.64 316.19 242.16 308.07 222.97 C 305.21 216.12 303.09 208.94 299.67 202.33 C 271.66 147.94 227.68 101.58 173.94 72.13 C 161.00 65.35 147.65 58.84 133.35 55.56 C 120.52 54.06 107.50 53.93 94.71 52.23 C 88.46 49.63 84.35 43.91 78.81 40.23 C 66.99 32.27 53.75 26.75 40.59 21.44 C 34.71 19.37 27.91 16.97 21.90 19.93 C 16.78 21.82 15.34 28.38 16.71 33.17 C 20.06 45.09 28.93 54.17 36.23 63.78 C 43.93 74.58 52.47 85.04 57.58 97.41 C 69.26 124.78 73.21 155.94 92.22 179.79 C 97.34 185.36 104.97 190.52 104.63 199.01 C 103.66 213.02 95.96 225.33 92.85 238.85 C 85.61 271.64 87.73 307.52 103.28 337.71 C 106.38 343.74 111.51 349.74 118.73 350.31 C 121.30 332.82 121.46 314.66 128.05 298.02 C 131.82 287.97 139.74 280.42 146.15 272.07 C 148.41 275.20 149.46 278.93 150.53 282.58 C 161.74 311.94 176.75 339.76 194.01 365.99 C 203.06 379.35 212.36 392.72 224.09 403.89 C 227.27 406.64 230.86 408.97 233.39 412.40 C 223.44 408.99 217.55 399.72 209.82 393.21 C 194.50 381.36 179.90 368.35 167.99 353.00 C 158.52 341.54 154.72 326.69 146.49 314.47 C 143.84 325.81 142.34 337.36 140.70 348.88 C 139.53 357.14 135.15 365.95 126.59 368.47 C 117.98 371.80 108.50 367.90 102.26 361.73 C 88.76 348.77 81.40 330.77 77.27 312.83 C 71.45 286.61 71.89 258.92 79.03 233.01 C 82.52 222.44 83.47 211.14 88.33 201.03 C 86.90 195.37 81.12 192.59 78.17 187.85 C 60.68 162.07 51.85 131.76 42.68 102.35 C 31.09 77.99 6.77 60.98 0.00 34.11 L 0.00 25.70 C 2.17 12.69 12.30 1.55 25.70 0.00 Z" />
<path fill="#00546b" opacity="1.00" d=" M 103.78 89.09 C 109.71 88.30 116.92 85.29 121.81 90.18 C 126.91 93.21 129.91 98.55 131.94 103.93 C 132.00 110.45 129.68 117.81 123.61 121.09 C 120.79 115.34 118.44 109.34 115.20 103.81 C 111.45 98.86 106.71 94.66 103.78 89.09 Z" />
</g>
</svg>
