<?xml version="1.0" encoding="UTF-8" ?>
<!DOCTYPE svg PUBLIC "-//W3C//DTD SVG 1.1//EN" "http://www.w3.org/Graphics/SVG/1.1/DTD/svg11.dtd">
<svg width="300pt" height="300pt" viewBox="0 0 300 300" version="1.1" xmlns="http://www.w3.org/2000/svg">
<g id="#ffffffff">
<path fill="#ffffff" opacity="1.00" d=" M 75.44 149.54 C 88.39 148.29 104.38 155.87 105.62 170.15 C 105.77 194.81 105.36 219.42 105.73 244.06 C 106.13 256.81 93.56 265.82 81.81 266.56 C 69.44 268.08 54.56 262.09 51.01 249.19 C 49.25 237.20 51.65 225.04 50.46 213.00 C 50.82 198.96 50.40 184.97 50.51 170.94 C 50.97 158.26 63.83 150.26 75.44 149.54 M 71.31 154.33 C 62.07 155.93 51.32 163.46 52.87 173.99 C 55.72 185.57 69.12 190.76 80.05 189.78 C 90.72 189.91 103.89 182.49 103.52 170.57 C 100.78 156.64 83.69 151.49 71.31 154.33 M 94.99 193.86 C 95.32 194.60 95.98 196.08 96.31 196.82 C 98.55 195.56 100.14 193.69 99.51 190.97 C 97.94 191.83 96.43 192.79 94.99 193.86 M 52.46 197.77 C 53.12 214.90 74.90 220.89 88.66 215.78 C 96.59 213.44 104.05 206.44 103.69 197.63 C 92.42 214.82 63.90 214.78 52.46 197.77 M 95.02 221.70 C 95.39 222.34 96.14 223.63 96.52 224.28 C 98.78 222.90 100.09 220.83 99.21 218.12 C 97.75 219.24 96.34 220.42 95.02 221.70 M 52.51 225.41 C 51.75 240.47 69.23 247.94 82.04 245.96 C 92.60 245.15 104.84 237.35 103.54 225.43 C 92.01 242.31 64.12 242.09 52.51 225.41 M 95.68 253.84 C 98.37 252.67 100.15 250.61 99.31 247.58 C 96.72 248.79 94.67 250.75 95.68 253.84 Z" />
<path fill="#ffffff" opacity="1.00" d=" M 136.53 161.25 C 141.82 160.05 148.61 158.76 152.71 163.30 C 157.53 169.08 157.20 177.31 156.31 184.35 C 155.58 191.15 149.91 197.35 142.70 196.50 C 142.67 203.30 142.72 210.11 142.65 216.91 C 140.65 216.95 138.66 216.97 136.66 216.99 C 136.53 198.41 136.79 179.83 136.53 161.25 M 142.72 168.50 C 142.65 175.02 142.62 181.54 142.75 188.07 C 153.67 188.92 153.96 167.15 142.72 168.50 Z" />
<path fill="#ffffff" opacity="1.00" d=" M 161.40 160.66 C 163.46 160.67 165.52 160.67 167.58 160.65 C 167.54 176.34 167.63 192.03 167.53 207.73 C 171.30 207.74 175.08 207.68 178.85 207.67 C 178.89 210.77 178.92 213.86 178.94 216.96 C 173.11 216.96 167.29 216.95 161.46 216.97 C 161.37 198.20 161.48 179.43 161.40 160.66 Z" />
<path fill="#ffffff" opacity="1.00" d=" M 187.52 161.55 C 190.99 158.37 195.98 159.95 199.80 161.51 C 199.56 164.61 199.20 167.70 198.90 170.80 C 196.48 169.85 193.87 167.89 191.19 169.01 C 187.63 171.09 187.55 176.25 189.34 179.53 C 192.37 183.78 197.67 186.26 199.43 191.45 C 202.17 198.99 201.92 208.36 196.90 214.90 C 192.99 219.54 186.13 218.61 181.65 215.36 C 182.07 212.24 182.46 209.11 182.80 205.98 C 185.49 207.92 188.95 209.81 192.27 208.30 C 195.75 205.88 195.36 200.70 193.92 197.23 C 190.83 192.41 184.91 189.67 183.31 183.81 C 181.16 176.45 181.45 167.03 187.52 161.55 Z" />
<path fill="#ffffff" opacity="1.00" d=" M 210.94 162.91 C 214.26 158.38 221.58 158.82 224.70 163.34 C 229.72 170.06 230.56 178.86 230.74 186.99 C 230.69 196.32 230.18 206.55 224.00 214.11 C 226.49 215.27 228.97 216.48 231.43 217.73 C 230.74 220.51 230.07 223.31 229.39 226.10 C 223.85 222.71 218.78 218.54 212.63 216.28 C 206.19 211.45 205.06 202.49 204.31 195.00 C 203.83 184.13 203.86 171.87 210.94 162.91 M 215.44 169.33 C 210.88 173.89 211.00 181.01 210.54 187.03 C 210.70 193.86 210.38 201.64 214.68 207.38 C 216.94 210.45 221.18 207.75 221.91 204.75 C 225.25 195.06 225.00 184.23 222.60 174.35 C 221.86 171.41 218.84 166.66 215.44 169.33 Z" />
<path fill="#ffffff" opacity="1.00" d=" M 235.30 160.66 C 237.38 160.67 239.47 160.67 241.56 160.65 C 241.53 176.39 241.48 192.12 241.59 207.86 C 245.31 207.69 249.04 207.68 252.76 207.66 C 252.79 210.76 252.81 213.87 252.84 216.97 C 247.00 216.96 241.16 216.95 235.32 216.98 C 235.31 198.21 235.33 179.43 235.30 160.66 Z" />
</g>
<g id="#ff1117ff">
<path fill="#ff1117" opacity="1.00" d=" M 58.27 62.41 C 65.85 61.83 74.20 60.64 81.41 63.47 C 92.99 73.71 92.82 92.91 85.77 105.72 C 81.03 114.56 70.02 111.04 61.96 111.72 C 56.33 112.38 52.01 107.78 49.96 103.03 C 45.39 92.75 45.51 80.46 50.21 70.24 C 51.90 66.86 54.53 63.55 58.27 62.41 M 58.44 71.51 C 50.51 77.59 50.69 90.00 54.68 98.34 C 58.40 105.59 67.60 102.00 74.04 102.86 C 82.03 103.89 84.94 94.35 85.17 88.05 C 85.26 81.80 83.90 73.11 76.99 71.01 C 70.85 70.78 64.44 70.14 58.44 71.51 Z" />
<path fill="#ff1117" opacity="1.00" d=" M 93.31 61.91 C 100.87 61.94 108.45 61.64 116.01 62.00 C 123.61 62.56 125.73 71.66 125.87 77.94 C 126.43 85.34 123.50 96.29 114.26 95.84 C 117.87 101.02 121.30 106.33 124.77 111.60 C 122.22 111.65 119.67 111.64 117.12 111.70 C 111.74 103.45 106.28 95.24 101.25 86.77 C 106.70 86.61 112.20 87.19 117.62 86.50 C 122.05 82.44 121.58 74.64 117.21 70.65 C 111.03 70.84 104.85 70.75 98.68 70.72 C 98.56 84.38 98.71 98.04 98.60 111.70 C 96.77 111.64 94.94 111.57 93.12 111.49 C 93.54 94.97 93.19 78.43 93.31 61.91 Z" />
<path fill="#ff1117" opacity="1.00" d=" M 143.04 64.15 C 143.64 60.83 148.53 60.50 149.14 63.96 C 155.09 79.82 160.62 95.87 166.30 111.84 C 164.10 111.78 161.90 111.69 159.70 111.62 C 158.77 108.68 157.78 105.76 156.77 102.85 C 152.00 102.83 147.22 102.92 142.46 103.15 C 141.44 100.14 140.44 97.13 139.57 94.07 C 144.23 94.27 148.88 94.25 153.54 94.23 C 151.06 87.09 148.70 79.91 146.06 72.82 C 142.01 85.06 137.50 97.14 133.39 109.36 C 132.82 113.02 128.48 111.46 125.91 111.90 C 131.69 96.01 137.10 79.98 143.04 64.15 Z" />
<path fill="#ff1117" opacity="1.00" d=" M 166.09 72.09 C 167.99 67.49 171.52 62.40 176.98 62.10 C 183.47 61.55 190.01 61.97 196.52 61.90 C 195.43 64.93 194.36 67.98 193.17 70.97 C 186.09 71.84 175.76 67.61 171.50 75.40 C 167.14 83.77 167.25 96.49 175.46 102.47 C 182.56 103.34 189.79 102.55 196.94 102.83 C 195.94 105.79 194.91 108.74 193.76 111.65 C 185.41 110.75 174.12 114.93 168.61 106.42 C 162.22 96.32 162.01 83.10 166.09 72.09 Z" />
<path fill="#ff1117" opacity="1.00" d=" M 199.30 61.77 C 201.07 61.86 202.84 61.96 204.61 62.07 C 204.71 75.67 204.62 89.27 204.67 102.86 C 212.94 102.79 221.21 102.82 229.47 102.82 C 228.47 105.78 227.42 108.73 226.35 111.67 C 218.27 111.63 210.19 111.85 202.13 111.62 C 199.19 111.68 199.41 108.11 199.29 106.05 C 199.31 91.29 199.31 76.53 199.30 61.77 Z" />
<path fill="#ff1117" opacity="1.00" d=" M 238.81 62.71 C 246.09 61.13 253.65 61.98 261.05 62.06 C 260.10 65.03 259.03 67.96 258.01 70.91 C 252.38 70.95 246.70 70.35 241.11 71.10 C 236.23 72.51 234.90 78.16 233.67 82.45 C 242.37 82.56 251.08 82.59 259.79 82.46 C 258.68 85.45 257.57 88.45 256.40 91.42 C 248.82 91.24 241.24 91.30 233.66 91.36 C 234.81 95.47 236.16 100.54 240.33 102.51 C 247.38 103.28 254.51 102.60 261.60 102.80 C 260.60 105.75 259.60 108.71 258.55 111.64 C 250.42 110.65 239.61 114.94 233.92 107.07 C 228.07 99.13 227.33 88.48 228.85 79.02 C 230.11 72.77 232.66 65.63 238.81 62.71 Z" />
<path fill="#ff1117" opacity="1.00" d=" M 23.00 128.54 C 108.33 128.53 193.67 128.53 279.00 128.54 C 279.01 178.66 279.00 228.77 279.00 278.89 C 193.67 279.07 108.33 279.07 23.00 278.89 C 23.00 228.77 22.99 178.66 23.00 128.54 M 75.44 149.54 C 63.83 150.26 50.97 158.26 50.51 170.94 C 50.40 184.97 50.82 198.96 50.46 213.00 C 51.65 225.04 49.25 237.20 51.01 249.19 C 54.56 262.09 69.44 268.08 81.81 266.56 C 93.56 265.82 106.13 256.81 105.73 244.06 C 105.36 219.42 105.77 194.81 105.62 170.15 C 104.38 155.87 88.39 148.29 75.44 149.54 M 136.53 161.25 C 136.79 179.83 136.53 198.41 136.66 216.99 C 138.66 216.97 140.65 216.95 142.65 216.91 C 142.72 210.11 142.67 203.30 142.70 196.50 C 149.91 197.35 155.58 191.15 156.31 184.35 C 157.20 177.31 157.53 169.08 152.71 163.30 C 148.61 158.76 141.82 160.05 136.53 161.25 M 161.40 160.66 C 161.48 179.43 161.37 198.20 161.46 216.97 C 167.29 216.95 173.11 216.96 178.94 216.96 C 178.92 213.86 178.89 210.77 178.85 207.67 C 175.08 207.68 171.30 207.74 167.53 207.73 C 167.63 192.03 167.54 176.34 167.58 160.65 C 165.52 160.67 163.46 160.67 161.40 160.66 M 187.52 161.55 C 181.45 167.03 181.16 176.45 183.31 183.81 C 184.91 189.67 190.83 192.41 193.92 197.23 C 195.36 200.70 195.75 205.88 192.27 208.30 C 188.95 209.81 185.49 207.92 182.80 205.98 C 182.46 209.11 182.07 212.24 181.65 215.36 C 186.13 218.61 192.99 219.54 196.90 214.90 C 201.92 208.36 202.17 198.99 199.43 191.45 C 197.67 186.26 192.37 183.78 189.34 179.53 C 187.55 176.25 187.63 171.09 191.19 169.01 C 193.87 167.89 196.48 169.85 198.90 170.80 C 199.20 167.70 199.56 164.61 199.80 161.51 C 195.98 159.95 190.99 158.37 187.52 161.55 M 210.94 162.91 C 203.86 171.87 203.83 184.13 204.31 195.00 C 205.06 202.49 206.19 211.45 212.63 216.28 C 218.78 218.54 223.85 222.71 229.39 226.10 C 230.07 223.31 230.74 220.51 231.43 217.73 C 228.97 216.48 226.49 215.27 224.00 214.11 C 230.18 206.55 230.69 196.32 230.74 186.99 C 230.56 178.86 229.72 170.06 224.70 163.34 C 221.58 158.82 214.26 158.38 210.94 162.91 M 235.30 160.66 C 235.33 179.43 235.31 198.21 235.32 216.98 C 241.16 216.95 247.00 216.96 252.84 216.97 C 252.81 213.87 252.79 210.76 252.76 207.66 C 249.04 207.68 245.31 207.69 241.59 207.86 C 241.48 192.12 241.53 176.39 241.56 160.65 C 239.47 160.67 237.38 160.67 235.30 160.66 Z" />
<path fill="#ff1117" opacity="1.00" d=" M 71.31 154.33 C 83.69 151.49 100.78 156.64 103.52 170.57 C 103.89 182.49 90.72 189.91 80.05 189.78 C 69.12 190.76 55.72 185.57 52.87 173.99 C 51.32 163.46 62.07 155.93 71.31 154.33 Z" />
<path fill="#ff1117" opacity="1.00" d=" M 142.72 168.50 C 153.96 167.15 153.67 188.92 142.75 188.07 C 142.62 181.54 142.65 175.02 142.72 168.50 Z" />
<path fill="#ff1117" opacity="1.00" d=" M 215.44 169.33 C 218.84 166.66 221.86 171.41 222.60 174.35 C 225.00 184.23 225.25 195.06 221.91 204.75 C 221.18 207.75 216.94 210.45 214.68 207.38 C 210.38 201.64 210.70 193.86 210.54 187.03 C 211.00 181.01 210.88 173.89 215.44 169.33 Z" />
<path fill="#ff1117" opacity="1.00" d=" M 94.99 193.86 C 96.43 192.79 97.94 191.83 99.51 190.97 C 100.14 193.69 98.55 195.56 96.31 196.82 C 95.98 196.08 95.32 194.60 94.99 193.86 Z" />
<path fill="#ff1117" opacity="1.00" d=" M 52.46 197.77 C 63.90 214.78 92.42 214.82 103.69 197.63 C 104.05 206.44 96.59 213.44 88.66 215.78 C 74.90 220.89 53.12 214.90 52.46 197.77 Z" />
<path fill="#ff1117" opacity="1.00" d=" M 95.02 221.70 C 96.34 220.42 97.75 219.24 99.21 218.12 C 100.09 220.83 98.78 222.90 96.52 224.28 C 96.14 223.63 95.39 222.34 95.02 221.70 Z" />
<path fill="#ff1117" opacity="1.00" d=" M 52.51 225.41 C 64.12 242.09 92.01 242.31 103.54 225.43 C 104.84 237.35 92.60 245.15 82.04 245.96 C 69.23 247.94 51.75 240.47 52.51 225.41 Z" />
<path fill="#ff1117" opacity="1.00" d=" M 95.68 253.84 C 94.67 250.75 96.72 248.79 99.31 247.58 C 100.15 250.61 98.37 252.67 95.68 253.84 Z" />
</g>
</svg>
