<?xml version="1.0" encoding="UTF-8" ?>
<!DOCTYPE svg PUBLIC "-//W3C//DTD SVG 1.1//EN" "http://www.w3.org/Graphics/SVG/1.1/DTD/svg11.dtd">
<svg width="300pt" height="300pt" viewBox="0 0 300 300" version="1.1" xmlns="http://www.w3.org/2000/svg">
<g id="#dd0031ff">
<path fill="#dd0031" opacity="1.00" d=" M 11.41 50.85 C 57.60 34.35 103.86 18.04 150.05 1.53 C 150.11 48.72 150.09 95.91 150.12 143.09 C 155.05 143.32 159.98 143.62 164.91 143.32 C 156.32 144.40 147.60 143.56 138.96 143.85 C 134.50 144.34 130.79 141.62 127.16 139.50 C 123.51 145.58 118.70 151.01 115.73 157.46 C 114.90 166.18 115.69 175.00 115.40 183.75 C 121.56 188.25 127.90 192.51 134.02 197.07 C 136.62 198.61 135.94 202.04 136.49 204.57 C 129.32 199.82 122.45 194.65 115.43 189.69 C 115.42 191.66 115.41 193.64 115.40 195.61 C 121.58 200.10 127.94 204.34 134.04 208.94 C 136.63 210.49 135.93 213.87 136.49 216.40 C 129.33 211.65 122.47 206.47 115.43 201.55 C 115.42 203.52 115.41 205.49 115.41 207.47 C 122.36 212.33 129.21 217.34 136.15 222.22 C 136.15 224.19 136.15 226.16 136.14 228.13 C 129.19 223.26 122.36 218.23 115.39 213.40 C 113.15 227.78 125.61 238.09 134.62 247.37 C 139.75 247.35 144.88 247.35 150.02 247.36 C 150.15 264.41 150.02 281.46 150.09 298.50 C 110.96 276.82 71.77 255.26 32.61 233.61 C 25.53 172.69 18.61 111.75 11.41 50.85 M 84.50 74.34 C 94.78 75.34 105.07 76.25 115.35 77.32 C 118.87 69.45 122.28 61.53 125.74 53.63 C 118.85 53.61 111.97 53.61 105.08 53.63 C 98.23 60.55 91.26 67.34 84.50 74.34 M 130.11 53.69 C 126.28 63.05 122.33 72.34 118.38 81.64 C 100.64 80.14 82.90 78.74 65.16 77.31 C 68.02 89.01 70.70 100.75 73.61 112.44 C 73.79 114.41 75.89 114.90 77.39 115.56 C 96.39 122.57 115.37 129.62 134.32 136.75 C 138.16 138.34 142.39 137.79 146.43 137.92 C 146.46 109.82 146.45 81.71 146.44 53.61 C 144.47 53.61 142.50 53.61 140.54 53.61 C 140.51 65.93 140.58 78.24 140.50 90.56 C 138.55 89.61 136.60 88.67 134.65 87.74 C 134.54 76.34 134.67 64.95 134.57 53.55 C 133.08 53.60 131.59 53.65 130.11 53.69 M 75.49 120.14 C 75.51 136.92 75.50 153.71 75.50 170.49 C 87.34 180.27 99.10 190.16 110.92 199.97 C 111.08 184.97 110.64 169.94 111.12 154.95 C 113.44 149.25 118.06 144.74 121.24 139.47 C 116.83 140.38 112.44 141.37 108.05 142.36 C 103.82 138.12 99.57 133.90 95.39 129.61 C 90.33 123.82 82.12 123.24 75.49 120.14 M 91.76 189.73 C 91.72 196.13 91.73 202.52 91.76 208.92 C 98.18 215.26 104.53 221.68 110.91 228.05 C 110.77 220.75 111.25 213.43 110.73 206.15 C 104.89 200.19 98.02 195.27 91.76 189.73 Z" />
</g>
<g id="#c3002fff">
<path fill="#c3002f" opacity="1.00" d=" M 150.05 1.53 C 195.72 17.65 241.32 33.96 286.97 50.12 C 289.14 50.25 288.56 52.45 288.50 53.94 C 281.48 113.84 274.67 173.76 267.65 233.66 C 228.45 255.24 189.31 276.94 150.09 298.50 C 150.02 281.46 150.15 264.41 150.02 247.36 C 155.99 246.80 163.61 249.51 167.84 243.85 C 175.69 235.54 185.63 225.90 183.41 213.37 C 176.50 218.27 169.62 223.21 162.72 228.14 C 162.72 226.14 162.73 224.16 162.74 222.17 C 169.01 217.59 175.53 213.33 181.67 208.58 C 183.97 206.97 183.22 203.83 183.70 201.45 C 176.48 206.26 169.62 211.58 162.40 216.39 C 162.64 214.40 162.69 212.38 163.25 210.45 C 169.15 204.71 176.95 201.29 182.84 195.54 C 183.45 193.62 183.47 191.58 183.72 189.59 C 176.51 194.43 169.63 199.73 162.42 204.57 C 162.81 201.94 162.21 198.49 164.96 196.96 C 171.02 192.47 177.26 188.23 183.38 183.82 C 183.13 174.95 184.00 166.00 183.01 157.18 C 179.92 150.89 175.28 145.48 171.67 139.48 C 169.44 140.80 167.26 142.22 164.91 143.32 C 159.98 143.62 155.05 143.32 150.12 143.09 C 150.09 95.91 150.11 48.72 150.05 1.53 M 152.35 137.87 C 156.85 137.73 161.55 138.50 165.84 136.79 C 185.96 129.21 206.15 121.80 226.28 114.24 C 229.23 101.94 232.19 89.64 235.12 77.34 C 216.90 78.69 198.69 80.15 180.48 81.65 C 176.65 73.03 173.25 64.22 169.41 55.60 C 168.82 53.22 166.10 53.69 164.25 53.35 C 164.16 64.80 164.29 76.24 164.18 87.69 C 162.22 88.65 160.26 89.62 158.31 90.60 C 158.26 78.28 158.30 65.96 158.29 53.65 C 156.33 53.62 154.36 53.60 152.40 53.58 C 152.32 81.68 152.41 109.78 152.35 137.87 M 173.07 53.64 C 176.57 61.53 179.91 69.49 183.51 77.33 C 193.80 76.22 204.11 75.35 214.40 74.33 C 207.60 67.40 200.63 60.62 193.84 53.66 C 186.92 53.59 179.99 53.62 173.07 53.64 M 203.05 130.04 C 199.02 134.18 194.89 138.22 190.85 142.35 C 186.42 141.39 182.01 140.40 177.59 139.46 C 180.78 144.49 184.78 149.02 187.59 154.27 C 188.16 169.47 187.60 184.74 187.84 199.97 C 198.66 191.12 209.30 182.04 220.11 173.18 C 221.64 171.82 223.75 170.42 223.34 168.05 C 223.36 152.09 223.33 136.13 223.33 120.17 C 216.51 123.27 208.09 123.93 203.05 130.04 M 187.82 205.97 C 187.82 213.33 187.77 220.69 187.86 228.05 C 194.34 221.74 200.65 215.25 207.10 208.90 C 207.12 202.52 207.13 196.14 207.09 189.76 C 200.58 195.06 194.26 200.59 187.82 205.97 Z" />
</g>
<g id="#ffffffff">
<path fill="#ffffff" opacity="1.00" d=" M 84.50 74.34 C 91.26 67.34 98.23 60.55 105.08 53.63 C 111.97 53.61 118.85 53.61 125.74 53.63 C 122.28 61.53 118.87 69.45 115.35 77.32 C 105.07 76.25 94.78 75.34 84.50 74.34 Z" />
<path fill="#ffffff" opacity="1.00" d=" M 130.11 53.69 C 131.59 53.65 133.08 53.60 134.57 53.55 C 134.67 64.95 134.54 76.34 134.65 87.74 C 136.60 88.67 138.55 89.61 140.50 90.56 C 140.58 78.24 140.51 65.93 140.54 53.61 C 142.50 53.61 144.47 53.61 146.44 53.61 C 146.45 81.71 146.46 109.82 146.43 137.92 C 142.39 137.79 138.16 138.34 134.32 136.75 C 115.37 129.62 96.39 122.57 77.39 115.56 C 75.89 114.90 73.79 114.41 73.61 112.44 C 70.70 100.75 68.02 89.01 65.16 77.31 C 82.90 78.74 100.64 80.14 118.38 81.64 C 122.33 72.34 126.28 63.05 130.11 53.69 Z" />
<path fill="#ffffff" opacity="1.00" d=" M 152.35 137.87 C 152.41 109.78 152.32 81.68 152.40 53.58 C 154.36 53.60 156.33 53.62 158.29 53.65 C 158.30 65.96 158.26 78.28 158.31 90.60 C 160.26 89.62 162.22 88.65 164.18 87.69 C 164.29 76.24 164.16 64.80 164.25 53.35 C 166.10 53.69 168.82 53.22 169.41 55.60 C 173.25 64.22 176.65 73.03 180.48 81.65 C 198.69 80.15 216.90 78.69 235.12 77.34 C 232.19 89.64 229.23 101.94 226.28 114.24 C 206.15 121.80 185.96 129.21 165.84 136.79 C 161.55 138.50 156.85 137.73 152.35 137.87 Z" />
<path fill="#ffffff" opacity="1.00" d=" M 173.07 53.64 C 179.99 53.62 186.92 53.59 193.84 53.66 C 200.63 60.62 207.60 67.40 214.40 74.33 C 204.11 75.35 193.80 76.22 183.51 77.33 C 179.91 69.49 176.57 61.53 173.07 53.64 Z" />
<path fill="#ffffff" opacity="1.00" d=" M 75.49 120.14 C 82.12 123.24 90.33 123.82 95.39 129.61 C 99.57 133.90 103.82 138.12 108.05 142.36 C 112.44 141.37 116.83 140.38 121.24 139.47 C 118.06 144.74 113.44 149.25 111.12 154.95 C 110.64 169.94 111.08 184.97 110.92 199.97 C 99.10 190.16 87.34 180.27 75.50 170.49 C 75.50 153.71 75.51 136.92 75.49 120.14 Z" />
<path fill="#ffffff" opacity="1.00" d=" M 203.05 130.04 C 208.09 123.93 216.51 123.27 223.33 120.17 C 223.33 136.13 223.36 152.09 223.34 168.05 C 223.75 170.42 221.64 171.82 220.11 173.18 C 209.30 182.04 198.66 191.12 187.84 199.97 C 187.60 184.74 188.16 169.47 187.59 154.27 C 184.78 149.02 180.78 144.49 177.59 139.46 C 182.01 140.40 186.42 141.39 190.85 142.35 C 194.89 138.22 199.02 134.18 203.05 130.04 Z" />
<path fill="#ffffff" opacity="1.00" d=" M 127.16 139.50 C 130.79 141.62 134.50 144.34 138.96 143.85 C 147.60 143.56 156.32 144.40 164.91 143.32 C 167.26 142.22 169.44 140.80 171.67 139.48 C 175.28 145.48 179.92 150.89 183.01 157.18 C 184.00 166.00 183.13 174.95 183.38 183.82 C 177.26 188.23 171.02 192.47 164.96 196.96 C 162.21 198.49 162.81 201.94 162.42 204.57 C 169.63 199.73 176.51 194.43 183.72 189.59 C 183.47 191.58 183.45 193.62 182.84 195.54 C 176.95 201.29 169.15 204.71 163.25 210.45 C 162.69 212.38 162.64 214.40 162.40 216.39 C 169.62 211.58 176.48 206.26 183.70 201.45 C 183.22 203.83 183.97 206.97 181.67 208.58 C 175.53 213.33 169.01 217.59 162.74 222.17 C 162.73 224.16 162.72 226.14 162.72 228.14 C 169.62 223.21 176.50 218.27 183.41 213.37 C 185.63 225.90 175.69 235.54 167.84 243.85 C 163.61 249.51 155.99 246.80 150.02 247.36 C 144.88 247.35 139.75 247.35 134.62 247.37 C 125.61 238.09 113.15 227.78 115.39 213.40 C 122.36 218.23 129.19 223.26 136.14 228.13 C 136.15 226.16 136.15 224.19 136.15 222.22 C 129.21 217.34 122.36 212.33 115.41 207.47 C 115.41 205.49 115.42 203.52 115.43 201.55 C 122.47 206.47 129.33 211.65 136.49 216.40 C 135.93 213.87 136.63 210.49 134.04 208.94 C 127.94 204.34 121.58 200.10 115.40 195.61 C 115.41 193.64 115.42 191.66 115.43 189.69 C 122.45 194.65 129.32 199.82 136.49 204.57 C 135.94 202.04 136.62 198.61 134.02 197.07 C 127.90 192.51 121.56 188.25 115.40 183.75 C 115.69 175.00 114.90 166.18 115.73 157.46 C 118.70 151.01 123.51 145.58 127.16 139.50 Z" />
<path fill="#ffffff" opacity="1.00" d=" M 91.76 189.73 C 98.02 195.27 104.89 200.19 110.73 206.15 C 111.25 213.43 110.77 220.75 110.91 228.05 C 104.53 221.68 98.18 215.26 91.76 208.92 C 91.73 202.52 91.72 196.13 91.76 189.73 Z" />
<path fill="#ffffff" opacity="1.00" d=" M 187.82 205.97 C 194.26 200.59 200.58 195.06 207.09 189.76 C 207.13 196.14 207.12 202.52 207.10 208.90 C 200.65 215.25 194.34 221.74 187.86 228.05 C 187.77 220.69 187.82 213.33 187.82 205.97 Z" />
</g>
</svg>
