<?xml version="1.0" encoding="UTF-8" ?>
<!DOCTYPE svg PUBLIC "-//W3C//DTD SVG 1.1//EN" "http://www.w3.org/Graphics/SVG/1.1/DTD/svg11.dtd">
<svg width="816pt" height="816pt" viewBox="0 0 816 816" version="1.1" xmlns="http://www.w3.org/2000/svg">
<g id="#007accff">
<path fill="#007acc" opacity="1.00" d=" M 0.00 0.00 L 816.00 0.00 L 816.00 816.00 L 0.00 816.00 L 0.00 0.00 M 602.71 372.73 C 577.52 375.63 552.77 386.65 535.39 405.41 C 522.97 418.70 514.74 435.76 511.57 453.64 C 509.88 468.82 510.31 484.27 512.61 499.37 C 517.99 523.15 532.72 544.28 552.10 558.87 C 579.80 579.84 613.51 590.05 644.09 605.82 C 654.19 611.11 665.04 616.88 670.85 627.18 C 675.31 634.19 675.12 642.87 674.38 650.83 C 672.85 662.75 663.15 671.88 652.58 676.51 C 635.34 683.98 615.43 683.83 597.62 678.40 C 576.26 672.09 560.79 654.30 548.96 636.30 C 528.43 648.15 507.68 659.67 487.50 672.09 C 498.18 692.92 513.62 711.90 533.77 724.25 C 558.24 739.71 586.98 748.79 616.01 748.82 C 644.33 750.76 673.52 746.28 698.73 732.76 C 716.75 723.28 732.33 708.54 741.21 690.07 C 748.41 675.50 750.89 659.10 751.26 643.00 C 750.70 621.73 746.18 599.80 733.98 582.01 C 723.09 565.89 707.12 554.07 690.44 544.49 C 666.46 530.44 640.39 520.61 615.39 508.61 C 605.47 503.55 594.83 497.86 589.35 487.67 C 580.86 472.72 585.20 450.29 601.41 442.46 C 619.77 433.97 644.29 437.49 657.80 453.20 C 662.61 458.31 665.74 464.81 671.03 469.50 C 690.37 457.06 710.06 445.02 728.28 430.98 C 712.93 404.48 688.17 382.08 657.59 375.52 C 639.58 371.81 621.00 371.77 602.71 372.73 M 179.50 376.51 C 178.24 398.58 178.86 420.71 178.79 442.80 C 214.11 442.95 249.45 442.55 284.77 443.00 C 285.00 543.55 284.48 644.12 285.03 744.66 C 310.03 744.67 335.03 744.69 360.04 744.65 C 360.40 644.08 360.00 543.50 360.24 442.93 C 395.56 442.65 430.90 442.90 466.22 442.81 C 466.25 420.63 465.78 398.46 465.60 376.29 C 370.23 376.21 274.85 375.09 179.50 376.51 Z" />
</g>
<g id="#ffffffff">
<path fill="#ffffff" opacity="1.00" d=" M 602.71 372.73 C 621.00 371.77 639.58 371.81 657.59 375.52 C 688.17 382.08 712.93 404.48 728.28 430.98 C 710.06 445.02 690.37 457.06 671.03 469.50 C 665.74 464.81 662.61 458.31 657.80 453.20 C 644.29 437.49 619.77 433.97 601.41 442.46 C 585.20 450.29 580.86 472.72 589.35 487.67 C 594.83 497.86 605.47 503.55 615.39 508.61 C 640.39 520.61 666.46 530.44 690.44 544.49 C 707.12 554.07 723.09 565.89 733.98 582.01 C 746.18 599.80 750.70 621.73 751.26 643.00 C 750.89 659.10 748.41 675.50 741.21 690.07 C 732.33 708.54 716.75 723.28 698.73 732.76 C 673.52 746.28 644.33 750.76 616.01 748.82 C 586.98 748.79 558.24 739.71 533.77 724.25 C 513.62 711.90 498.18 692.92 487.50 672.09 C 507.68 659.67 528.43 648.15 548.96 636.30 C 560.79 654.30 576.26 672.09 597.62 678.40 C 615.43 683.83 635.34 683.98 652.58 676.51 C 663.15 671.88 672.85 662.75 674.38 650.83 C 675.12 642.87 675.31 634.19 670.85 627.18 C 665.04 616.88 654.19 611.11 644.09 605.82 C 613.51 590.05 579.80 579.84 552.10 558.87 C 532.72 544.28 517.99 523.15 512.61 499.37 C 510.31 484.27 509.88 468.82 511.57 453.64 C 514.74 435.76 522.97 418.70 535.39 405.41 C 552.77 386.65 577.52 375.63 602.71 372.73 Z" />
<path fill="#ffffff" opacity="1.00" d=" M 179.50 376.51 C 274.85 375.09 370.23 376.21 465.60 376.29 C 465.78 398.46 466.25 420.63 466.22 442.81 C 430.90 442.90 395.56 442.65 360.24 442.93 C 360.00 543.50 360.40 644.08 360.04 744.65 C 335.03 744.69 310.03 744.67 285.03 744.66 C 284.48 644.12 285.00 543.55 284.77 443.00 C 249.45 442.55 214.11 442.95 178.79 442.80 C 178.86 420.71 178.24 398.58 179.50 376.51 Z" />
</g>
</svg>
