<?xml version="1.0" encoding="UTF-8" ?>
<!DOCTYPE svg PUBLIC "-//W3C//DTD SVG 1.1//EN" "http://www.w3.org/Graphics/SVG/1.1/DTD/svg11.dtd">
<svg width="256pt" height="256pt" viewBox="0 0 256 256" version="1.1" xmlns="http://www.w3.org/2000/svg">
<g id="#2c92beff">
<path fill="#2c92be" opacity="1.00" d=" M 125.92 0.00 L 126.31 0.00 C 140.04 8.47 154.60 15.87 167.99 24.73 C 153.63 33.43 139.35 42.29 124.93 50.88 C 110.62 43.23 96.52 35.18 82.26 27.45 C 96.62 18.00 111.54 9.41 125.92 0.00 Z" />
<path fill="#2c92be" opacity="1.00" d=" M 186.39 36.34 C 187.30 35.93 188.35 34.70 189.39 35.56 C 205.74 45.04 222.16 54.39 238.45 63.97 C 238.48 106.58 238.60 149.20 238.39 191.81 C 200.93 212.98 163.62 234.44 126.11 255.54 C 90.01 234.04 53.71 212.81 17.78 191.06 C 17.76 155.65 17.71 120.24 17.80 84.84 C 32.49 91.92 46.99 99.37 61.67 106.47 C 62.45 126.15 61.28 146.05 62.25 165.67 C 84.10 178.20 105.86 190.91 127.81 203.25 C 149.98 190.53 172.55 178.34 194.37 165.13 C 194.28 140.13 194.43 115.12 194.30 90.12 C 177.97 80.43 161.30 71.30 145.08 61.44 C 158.88 53.13 172.65 44.75 186.39 36.34 Z" />
</g>
</svg>
