<?xml version="1.0" encoding="UTF-8" ?>
<!DOCTYPE svg PUBLIC "-//W3C//DTD SVG 1.1//EN" "http://www.w3.org/Graphics/SVG/1.1/DTD/svg11.dtd">
<svg width="593pt" height="512pt" viewBox="0 0 593 512" version="1.1" xmlns="http://www.w3.org/2000/svg">
<g id="#41b883ff">
<path fill="#41b883" opacity="1.00" d=" M 0.00 0.00 L 116.98 0.00 C 175.15 99.57 233.00 199.33 291.02 298.99 C 292.95 301.93 294.16 305.44 296.72 307.92 C 355.96 205.31 415.26 102.73 474.30 0.00 L 593.00 0.00 L 593.00 0.53 C 494.12 170.65 395.64 341.02 296.82 511.18 C 296.43 510.81 295.66 510.06 295.27 509.69 C 196.81 340.00 98.58 170.17 0.00 0.54 L 0.00 0.00 Z" />
</g>
<g id="#35495eff">
<path fill="#35495e" opacity="1.00" d=" M 116.98 0.00 L 226.93 0.00 C 250.19 39.31 273.28 78.73 296.39 118.14 C 319.31 78.91 341.79 39.40 364.43 0.00 L 474.30 0.00 C 415.26 102.73 355.96 205.31 296.72 307.92 C 294.16 305.44 292.95 301.93 291.02 298.99 C 233.00 199.33 175.15 99.57 116.98 0.00 Z" />
</g>
</svg>
