<?xml version="1.0" encoding="UTF-8" ?>
<!DOCTYPE svg PUBLIC "-//W3C//DTD SVG 1.1//EN" "http://www.w3.org/Graphics/SVG/1.1/DTD/svg11.dtd">
<svg width="300pt" height="300pt" viewBox="0 0 300 300" version="1.1" xmlns="http://www.w3.org/2000/svg">
<g id="#ffffffff">
</g>
<g id="#25475fff">
<path fill="#25475f" opacity="1.00" d=" M 37.86 39.04 C 60.44 39.13 83.10 38.67 105.63 39.27 C 112.80 54.17 120.52 68.82 127.67 83.73 C 116.04 106.01 105.16 128.73 93.74 151.14 C 75.09 113.78 56.13 76.55 37.86 39.04 Z" />
<path fill="#25475f" opacity="1.00" d=" M 194.41 39.25 C 217.19 38.70 240.08 39.10 262.90 39.05 C 261.90 40.39 260.94 41.77 260.25 43.30 C 242.37 79.28 224.22 115.14 206.43 151.16 C 194.91 128.76 184.20 105.93 172.36 83.72 C 179.53 68.81 187.23 54.15 194.41 39.25 Z" />
</g>
<g id="#00c18cff">
<path fill="#00c18c" opacity="1.00" d=" M 93.74 151.14 C 105.16 128.73 116.04 106.01 127.67 83.73 C 135.39 98.39 142.41 113.45 150.11 128.12 C 157.47 113.30 164.78 98.44 172.36 83.72 C 184.20 105.93 194.91 128.76 206.43 151.16 C 225.37 188.34 243.61 225.88 262.62 263.02 L 262.23 263.95 C 239.89 263.97 217.55 264.08 195.22 263.90 C 179.98 234.18 165.44 204.01 150.08 174.39 C 134.62 203.90 120.38 234.44 104.77 263.88 C 82.50 264.06 60.20 264.01 37.93 263.91 C 37.86 262.50 38.47 261.25 39.12 260.05 C 57.40 223.78 75.30 187.32 93.74 151.14 Z" />
</g>
</svg>
