<?xml version="1.0" encoding="UTF-8" ?>
<!DOCTYPE svg PUBLIC "-//W3C//DTD SVG 1.1//EN" "http://www.w3.org/Graphics/SVG/1.1/DTD/svg11.dtd">
<svg width="281pt" height="300pt" viewBox="0 0 281 300" version="1.1" xmlns="http://www.w3.org/2000/svg">
<g id="#79b927fc">
<path fill="#79b927" opacity="1.00" d=" M 238.39 0.00 L 244.65 0.00 C 252.59 5.16 260.01 11.34 265.18 19.36 C 263.02 21.14 261.85 24.72 257.95 22.94 C 240.98 23.08 224.01 23.04 207.05 22.98 C 204.54 23.09 204.92 19.26 201.99 19.74 C 211.74 9.63 224.87 3.33 238.39 0.00 Z" />
</g>
<g id="#39150b42">
<path fill="#39150b" opacity="0.26" d=" M 37.85 18.73 C 44.13 16.97 50.83 18.08 57.18 18.85 C 53.41 18.88 49.64 19.03 45.87 19.05 C 43.19 18.94 40.52 18.84 37.85 18.73 Z" />
</g>
<g id="#90301aa8">
<path fill="#90301a" opacity="0.66" d=" M 30.89 19.76 C 32.86 18.34 35.18 17.99 37.85 18.73 C 36.53 21.08 34.22 21.42 30.89 19.76 Z" />
</g>
<g id="#db4e2bfe">
<path fill="#db4e2b" opacity="1.00" d=" M 37.85 18.73 C 40.52 18.84 43.19 18.94 45.87 19.05 C 47.29 20.63 50.07 22.52 47.50 24.47 C 32.54 38.05 21.87 56.23 5.48 68.10 C 3.83 62.57 2.33 56.96 1.68 51.20 C 1.76 49.97 1.90 48.75 2.08 47.54 C 8.55 47.70 10.96 39.06 15.70 35.71 C 18.49 30.78 27.86 27.29 24.92 20.74 C 26.89 20.32 28.89 20.02 30.89 19.76 C 34.22 21.42 36.53 21.08 37.85 18.73 Z" />
</g>
<g id="#de5c31fe">
<path fill="#de5c31" opacity="1.00" d=" M 45.87 19.05 C 49.64 19.03 53.41 18.88 57.18 18.85 L 57.98 18.95 C 59.52 19.19 62.59 19.67 64.12 19.91 C 64.85 19.92 66.30 19.95 67.03 19.97 L 66.95 20.70 C 62.99 29.81 54.61 35.93 48.52 43.58 C 35.92 56.48 25.37 71.52 11.51 83.05 C 9.07 78.26 7.17 73.20 5.48 68.10 C 21.87 56.23 32.54 38.05 47.50 24.47 C 50.07 22.52 47.29 20.63 45.87 19.05 Z" />
</g>
<g id="#85371d9b">
<path fill="#85371d" opacity="0.61" d=" M 57.98 18.95 C 59.52 19.19 62.59 19.67 64.12 19.91 C 62.59 19.67 59.52 19.19 57.98 18.95 Z" />
</g>
<g id="#6e30197f">
<path fill="#6e3019" opacity="0.50" d=" M 67.03 19.97 C 68.43 19.53 69.97 19.77 71.06 20.78 C 69.66 21.25 68.29 21.22 66.95 20.70 L 67.03 19.97 Z" />
</g>
<g id="#84c02efe">
<path fill="#84c02e" opacity="1.00" d=" M 201.99 19.74 C 204.92 19.26 204.54 23.09 207.05 22.98 C 224.01 23.04 240.98 23.08 257.95 22.94 C 261.85 24.72 263.02 21.14 265.18 19.36 C 269.88 25.81 273.32 33.13 275.94 40.64 C 273.74 43.22 273.14 48.50 268.00 46.00 C 242.03 45.89 216.04 46.24 190.09 45.86 C 186.89 45.87 187.68 42.51 186.21 40.68 C 190.02 32.75 195.52 25.68 201.99 19.74 Z" />
</g>
<g id="#d74025fb">
<path fill="#d74025" opacity="1.00" d=" M 0.82 27.73 C 8.30 23.89 16.79 22.51 24.92 20.74 C 27.86 27.29 18.49 30.78 15.70 35.71 C 10.96 39.06 8.55 47.70 2.08 47.54 C 1.90 48.75 1.76 49.97 1.68 51.20 C 1.36 48.48 1.11 45.77 0.95 43.04 C 0.95 37.93 1.04 32.83 0.82 27.73 Z" />
</g>
<g id="#e16837fe">
<path fill="#e16837" opacity="1.00" d=" M 48.52 43.58 C 54.61 35.93 62.99 29.81 66.95 20.70 C 68.29 21.22 69.66 21.25 71.06 20.78 C 74.75 21.68 78.46 22.52 82.15 23.47 C 66.55 45.05 46.32 64.24 28.76 84.74 C 25.40 87.93 22.95 93.04 17.64 92.96 C 15.49 89.73 13.37 86.46 11.51 83.05 C 25.37 71.52 35.92 56.48 48.52 43.58 Z" />
</g>
<g id="#e3753cfe">
<path fill="#e3753c" opacity="1.00" d=" M 28.76 84.74 C 46.32 64.24 66.55 45.05 82.15 23.47 C 86.34 24.47 90.46 25.80 94.35 27.67 C 94.75 30.41 95.18 33.38 92.04 35.03 C 72.58 55.94 54.06 77.71 34.77 98.77 C 32.70 101.47 29.61 102.77 26.61 104.10 C 23.37 100.60 20.22 96.98 17.64 92.96 C 22.95 93.04 25.40 87.93 28.76 84.74 Z" />
</g>
<g id="#7620138d">
<path fill="#762013" opacity="0.55" d=" M 0.00 28.17 L 0.82 27.73 C 1.04 32.83 0.95 37.93 0.95 43.04 L 0.00 42.96 L 0.00 28.17 Z" />
</g>
<g id="#e58242fe">
<path fill="#e58242" opacity="1.00" d=" M 94.35 27.67 C 99.71 29.76 105.10 31.86 110.09 34.74 C 106.12 33.90 108.26 37.40 107.67 39.67 C 91.56 56.93 76.33 74.98 60.36 92.36 C 52.88 99.52 47.63 109.96 37.68 113.80 C 33.75 110.85 29.90 107.76 26.61 104.10 C 29.61 102.77 32.70 101.47 34.77 98.77 C 54.06 77.71 72.58 55.94 92.04 35.03 C 95.18 33.38 94.75 30.41 94.35 27.67 Z" />
</g>
<g id="#e89048fe">
<path fill="#e89048" opacity="1.00" d=" M 107.67 39.67 C 108.26 37.40 106.12 33.90 110.09 34.74 C 113.92 36.96 117.81 39.11 121.43 41.67 C 121.06 44.73 120.95 48.07 118.01 50.02 C 97.62 72.94 77.03 95.69 56.78 118.73 C 54.92 120.14 52.14 119.87 50.66 121.81 C 46.08 119.57 41.62 117.05 37.68 113.80 C 47.63 109.96 52.88 99.52 60.36 92.36 C 76.33 74.98 91.56 56.93 107.67 39.67 Z" />
</g>
<g id="#90c635fe">
<path fill="#90c635" opacity="1.00" d=" M 186.21 40.68 C 187.68 42.51 186.89 45.87 190.09 45.86 C 216.04 46.24 242.03 45.89 268.00 46.00 C 273.14 48.50 273.74 43.22 275.94 40.64 C 278.04 47.45 280.02 54.44 280.00 61.62 C 278.53 63.67 277.44 65.99 275.72 67.86 C 245.82 68.19 215.91 67.95 186.01 67.98 C 183.08 67.90 182.14 64.35 180.13 62.69 C 180.02 62.20 179.82 61.23 179.71 60.74 C 180.64 53.72 182.94 46.95 186.21 40.68 Z" />
</g>
<g id="#eb9e4ffe">
<path fill="#eb9e4f" opacity="1.00" d=" M 121.43 41.67 C 125.69 44.24 129.53 47.42 133.29 50.67 C 133.25 52.65 133.40 54.65 133.25 56.64 C 111.13 80.48 90.49 106.08 67.59 128.99 C 61.67 127.31 56.06 124.72 50.66 121.81 C 52.14 119.87 54.92 120.14 56.78 118.73 C 77.03 95.69 97.62 72.94 118.01 50.02 C 120.95 48.07 121.06 44.73 121.43 41.67 Z" />
</g>
<g id="#eeae56fe">
<path fill="#eeae56" opacity="1.00" d=" M 133.29 50.67 C 138.68 54.72 143.23 59.73 147.99 64.48 C 129.85 86.57 109.77 107.29 90.80 128.79 C 89.57 132.05 80.38 130.77 84.95 134.19 C 79.11 132.63 73.33 130.86 67.59 128.99 C 90.49 106.08 111.13 80.48 133.25 56.64 C 133.40 54.65 133.25 52.65 133.29 50.67 Z" />
</g>
<g id="#435b1973">
<path fill="#435b19" opacity="0.45" d=" M 179.65 74.30 C 178.31 69.90 179.14 65.20 179.71 60.74 C 179.82 61.23 180.02 62.20 180.13 62.69 C 180.09 66.56 179.99 70.44 179.65 74.30 Z" />
</g>
<g id="#9bcc3bff">
<path fill="#9bcc3b" opacity="1.00" d=" M 275.72 67.86 C 277.44 65.99 278.53 63.67 280.00 61.62 C 279.95 67.78 280.02 73.94 280.05 80.10 C 279.83 81.59 279.39 84.59 279.17 86.09 C 275.81 83.82 275.56 91.91 270.99 87.97 C 243.98 88.09 216.97 87.96 189.97 87.96 C 187.86 87.72 186.25 89.16 184.66 90.28 C 182.71 85.05 181.00 79.72 179.65 74.30 C 179.99 70.44 180.09 66.56 180.13 62.69 C 182.14 64.35 183.08 67.90 186.01 67.98 C 215.91 67.95 245.82 68.19 275.72 67.86 Z" />
</g>
<g id="#638425a8">
<path fill="#638425" opacity="0.66" d=" M 280.00 61.62 L 281.00 62.17 L 281.00 79.85 L 280.05 80.10 C 280.02 73.94 279.95 67.78 280.00 61.62 Z" />
</g>
<g id="#f1be5dfe">
<path fill="#f1be5d" opacity="1.00" d=" M 90.80 128.79 C 109.77 107.29 129.85 86.57 147.99 64.48 C 152.16 68.45 155.76 72.97 159.05 77.68 C 158.60 84.58 152.74 88.82 148.71 93.72 C 133.99 108.78 121.15 125.84 105.61 139.97 C 98.63 138.42 91.82 136.16 84.95 134.19 C 80.38 130.77 89.57 132.05 90.80 128.79 Z" />
</g>
<g id="#f5d366fe">
<path fill="#f5d366" opacity="1.00" d=" M 148.71 93.72 C 152.74 88.82 158.60 84.58 159.05 77.68 C 162.30 81.83 165.26 86.20 167.96 90.74 C 169.93 113.59 169.36 138.80 155.95 158.44 C 139.98 150.26 122.55 145.65 105.61 139.97 C 121.15 125.84 133.99 108.78 148.71 93.72 Z" />
</g>
<g id="#a6d242fe">
<path fill="#a6d242" opacity="1.00" d=" M 270.99 87.97 C 275.56 91.91 275.81 83.82 279.17 86.09 L 279.05 86.92 C 277.46 87.76 277.62 89.73 278.26 91.13 C 276.99 96.90 275.64 102.69 273.32 108.14 C 268.74 104.86 268.97 116.20 263.00 111.98 C 241.09 111.90 219.16 112.30 197.26 111.79 C 195.09 109.82 191.33 102.47 191.63 109.24 C 189.49 102.86 186.86 96.65 184.66 90.28 C 186.25 89.16 187.86 87.72 189.97 87.96 C 216.97 87.96 243.98 88.09 270.99 87.97 Z" />
</g>
<g id="#8ab235da">
<path fill="#8ab235" opacity="0.85" d=" M 278.26 91.13 C 277.62 89.73 277.46 87.76 279.05 86.92 C 279.42 88.37 279.33 89.98 278.26 91.13 Z" />
</g>
<g id="#cdc886fd">
<path fill="#cdc886" opacity="1.00" d=" M 167.96 90.74 C 175.24 101.72 181.09 113.60 186.19 125.74 C 177.71 137.37 176.92 153.79 167.87 164.50 C 164.12 162.57 160.36 160.66 156.52 158.91 L 155.95 158.44 C 169.36 138.80 169.93 113.59 167.96 90.74 Z" />
</g>
<g id="#b3d94afe">
<path fill="#b3d94a" opacity="1.00" d=" M 191.63 109.24 C 191.33 102.47 195.09 109.82 197.26 111.79 C 219.16 112.30 241.09 111.90 263.00 111.98 C 268.97 116.20 268.74 104.86 273.32 108.14 C 269.58 117.77 264.77 126.99 259.38 135.80 C 254.37 134.76 251.74 143.12 245.99 140.93 C 230.77 138.83 211.58 146.63 199.84 135.00 C 196.87 126.49 194.76 117.70 191.63 109.24 Z" />
</g>
<g id="#bbcb94fd">
<path fill="#bbcb94" opacity="1.00" d=" M 186.19 125.74 C 189.17 133.00 192.07 140.33 194.40 147.83 C 192.25 154.26 188.81 160.20 186.58 166.63 C 185.31 169.26 184.94 173.77 181.01 173.19 C 176.83 169.99 172.24 167.41 167.87 164.50 C 176.92 153.79 177.71 137.37 186.19 125.74 Z" />
</g>
<g id="#c4e255fd">
<path fill="#c4e255" opacity="1.00" d=" M 199.84 135.00 C 211.58 146.63 230.77 138.83 245.99 140.93 C 251.74 143.12 254.37 134.76 259.38 135.80 C 245.18 157.55 228.13 177.43 209.10 195.08 C 209.00 191.93 209.08 188.78 208.33 185.71 C 208.12 183.85 207.96 181.98 207.82 180.12 C 207.65 178.56 207.32 175.44 207.15 173.88 C 207.05 172.62 206.95 171.36 206.86 170.11 C 207.39 168.68 207.45 166.92 206.15 165.88 C 206.08 165.19 205.93 163.81 205.85 163.12 C 206.40 161.69 206.42 159.98 205.22 158.88 C 203.51 150.90 201.72 142.94 199.84 135.00 Z" />
</g>
<g id="#a6cea1fc">
<path fill="#a6cea1" opacity="1.00" d=" M 194.40 147.83 C 197.14 156.72 199.16 165.81 201.23 174.87 C 200.62 176.29 200.50 178.09 201.85 179.14 C 201.92 179.57 202.08 180.43 202.16 180.86 C 201.61 182.29 201.54 184.06 202.83 185.13 C 202.93 185.82 203.13 187.20 203.23 187.89 C 202.63 189.63 202.45 191.69 203.80 193.14 C 203.81 193.64 203.84 194.63 203.85 195.13 C 196.72 187.32 189.68 179.36 181.01 173.19 C 184.94 173.77 185.31 169.26 186.58 166.63 C 188.81 160.20 192.25 154.26 194.40 147.83 Z" />
</g>
<g id="#92c5e7fe">
<path fill="#92c5e7" opacity="1.00" d=" M 156.52 158.91 C 160.36 160.66 164.12 162.57 167.87 164.50 C 172.24 167.41 176.83 169.99 181.01 173.19 C 189.68 179.36 196.72 187.32 203.85 195.13 C 203.98 198.05 203.91 200.96 203.89 203.90 C 203.74 205.46 203.43 208.58 203.27 210.15 C 202.25 215.65 200.71 221.05 198.98 226.37 C 187.44 208.14 173.39 191.65 160.87 174.09 C 158.77 170.83 156.15 167.92 152.80 165.93 C 154.16 163.65 155.37 161.29 156.52 158.91 Z" />
</g>
<g id="#7c9035a1">
<path fill="#7c9035" opacity="0.63" d=" M 205.22 158.88 C 206.42 159.98 206.40 161.69 205.85 163.12 C 204.49 162.09 204.62 160.28 205.22 158.88 Z" />
</g>
<g id="#7bb7defe">
<path fill="#7bb7de" opacity="1.00" d=" M 145.77 176.92 C 148.15 173.28 150.44 169.58 152.80 165.93 C 156.15 167.92 158.77 170.83 160.87 174.09 C 173.39 191.65 187.44 208.14 198.98 226.37 C 197.65 231.30 195.58 235.99 193.17 240.48 C 183.12 221.52 168.16 205.64 156.02 187.99 C 153.00 183.94 150.32 179.41 145.77 176.92 Z" />
</g>
<g id="#73833293">
<path fill="#738332" opacity="0.58" d=" M 206.15 165.88 C 207.45 166.92 207.39 168.68 206.86 170.11 C 205.53 169.07 205.61 167.30 206.15 165.88 Z" />
</g>
<g id="#69762e83">
<path fill="#69762e" opacity="0.51" d=" M 207.15 173.88 C 207.32 175.44 207.65 178.56 207.82 180.12 C 207.65 178.56 207.32 175.44 207.15 173.88 Z" />
</g>
<g id="#4c624f79">
<path fill="#4c624f" opacity="0.47" d=" M 201.23 174.87 C 202.43 175.99 202.40 177.71 201.85 179.14 C 200.50 178.09 200.62 176.29 201.23 174.87 Z" />
<path fill="#4c624f" opacity="0.47" d=" M 202.16 180.86 C 203.45 181.93 203.38 183.69 202.83 185.13 C 201.54 184.06 201.61 182.29 202.16 180.86 Z" />
</g>
<g id="#66abd7fe">
<path fill="#66abd7" opacity="1.00" d=" M 138.78 186.97 C 141.32 183.77 143.44 180.27 145.77 176.92 C 150.32 179.41 153.00 183.94 156.02 187.99 C 168.16 205.64 183.12 221.52 193.17 240.48 C 191.49 243.82 189.70 247.11 187.75 250.30 C 174.53 230.31 159.25 211.41 145.00 192.00 C 143.81 189.29 141.14 188.25 138.78 186.97 Z" />
</g>
<g id="#525b2564">
<path fill="#525b25" opacity="0.39" d=" M 208.33 185.71 C 209.08 188.78 209.00 191.93 209.10 195.08 C 206.45 194.10 209.15 188.14 208.33 185.71 Z" />
</g>
<g id="#539fd0fe">
<path fill="#539fd0" opacity="1.00" d=" M 132.68 194.86 C 134.68 192.20 136.70 189.56 138.78 186.97 C 141.14 188.25 143.81 189.29 145.00 192.00 C 159.25 211.41 174.53 230.31 187.75 250.30 C 186.03 253.16 183.97 255.79 181.92 258.41 C 164.23 238.42 150.98 214.45 132.68 194.86 Z" />
</g>
<g id="#485c4a71">
<path fill="#485c4a" opacity="0.44" d=" M 203.23 187.89 C 204.52 189.37 204.37 191.40 203.80 193.14 C 202.45 191.69 202.63 189.63 203.23 187.89 Z" />
</g>
<g id="#4194c9fe">
<path fill="#4194c9" opacity="1.00" d=" M 126.58 203.00 C 128.48 200.19 130.58 197.52 132.68 194.86 C 150.98 214.45 164.23 238.42 181.92 258.41 C 179.69 261.16 177.51 263.96 175.04 266.51 C 159.10 245.40 144.05 223.05 126.58 203.00 Z" />
</g>
<g id="#308ac2fe">
<path fill="#308ac2" opacity="1.00" d=" M 121.55 210.95 C 123.18 208.27 124.82 205.59 126.58 203.00 C 144.05 223.05 159.10 245.40 175.04 266.51 C 172.72 268.94 170.13 271.09 167.53 273.22 C 158.25 255.01 143.24 240.16 131.86 223.17 C 128.87 218.74 125.15 214.88 121.55 210.95 Z" />
</g>
<g id="#4b63737e">
<path fill="#4b6373" opacity="0.49" d=" M 203.27 210.15 C 203.43 208.58 203.74 205.46 203.89 203.90 C 203.74 205.46 203.43 208.58 203.27 210.15 Z" />
</g>
<g id="#2181bdfe">
<path fill="#2181bd" opacity="1.00" d=" M 116.87 219.47 C 118.35 216.58 119.86 213.72 121.55 210.95 C 125.15 214.88 128.87 218.74 131.86 223.17 C 143.24 240.16 158.25 255.01 167.53 273.22 C 165.57 274.98 163.54 276.64 161.41 278.18 C 149.92 258.80 134.48 241.92 121.62 223.37 C 120.43 221.65 118.70 220.43 116.87 219.47 Z" />
</g>
<g id="#1278b7fe">
<path fill="#1278b7" opacity="1.00" d=" M 113.59 225.88 C 114.55 223.68 115.70 221.56 116.87 219.47 C 118.70 220.43 120.43 221.65 121.62 223.37 C 134.48 241.92 149.92 258.80 161.41 278.18 C 159.43 279.75 157.34 281.17 155.15 282.42 C 142.29 262.91 126.80 244.96 113.59 225.88 Z" />
</g>
<g id="#056eb3fd">
<path fill="#056eb3" opacity="1.00" d=" M 102.74 260.87 C 104.88 248.79 108.69 237.11 113.59 225.88 C 126.80 244.96 142.29 262.91 155.15 282.42 C 142.31 290.28 127.90 295.44 113.13 298.21 C 111.72 297.61 110.03 297.55 108.86 298.67 C 107.06 299.03 105.27 299.45 103.51 300.00 L 102.00 300.00 L 101.77 299.16 C 101.60 297.60 101.28 294.46 101.12 292.90 C 101.04 287.29 101.04 281.69 101.11 276.10 C 101.30 274.55 101.67 271.44 101.86 269.89 C 101.95 268.29 102.04 266.69 102.13 265.10 C 103.54 264.11 103.36 262.26 102.74 260.87 Z" />
</g>
<g id="#02375c82">
<path fill="#02375c" opacity="0.51" d=" M 102.13 265.10 C 101.60 263.67 101.59 262.00 102.74 260.87 C 103.36 262.26 103.54 264.11 102.13 265.10 Z" />
</g>
<g id="#044573a2">
<path fill="#044573" opacity="0.64" d=" M 101.11 276.10 C 101.30 274.55 101.67 271.44 101.86 269.89 C 101.67 271.44 101.30 274.55 101.11 276.10 Z" />
</g>
<g id="#032f4e6e">
<path fill="#032f4e" opacity="0.43" d=" M 101.12 292.90 C 101.28 294.46 101.60 297.60 101.77 299.16 C 101.60 297.60 101.28 294.46 101.12 292.90 Z" />
</g>
<g id="#03385c82">
<path fill="#03385c" opacity="0.51" d=" M 108.86 298.67 C 110.03 297.55 111.72 297.61 113.13 298.21 C 112.04 299.51 110.24 299.38 108.86 298.67 Z" />
</g>
</svg>
