<?xml version="1.0" encoding="UTF-8" ?>
<!DOCTYPE svg PUBLIC "-//W3C//DTD SVG 1.1//EN" "http://www.w3.org/Graphics/SVG/1.1/DTD/svg11.dtd">
<svg width="300pt" height="300pt" viewBox="0 0 300 300" version="1.1" xmlns="http://www.w3.org/2000/svg">
<g id="#ffffffff">
<path fill="#ffffff" opacity="1.00" d=" M 227.56 42.17 C 231.91 42.81 236.10 44.18 240.12 45.92 C 240.06 46.53 240.00 47.15 239.95 47.76 C 235.71 46.15 231.25 44.89 227.56 42.17 Z" />
<path fill="#ffffff" opacity="1.00" d=" M 168.85 59.71 C 171.91 56.01 177.38 56.10 181.72 54.98 C 182.05 55.57 182.70 56.75 183.03 57.34 C 194.02 56.07 206.21 52.53 216.52 58.29 C 217.17 59.08 217.77 59.91 218.31 60.79 C 218.98 62.14 219.68 63.48 220.43 64.79 C 220.66 62.89 220.88 60.99 221.09 59.08 C 222.87 60.09 224.64 61.10 226.35 62.23 C 227.99 66.15 225.08 69.87 222.86 72.86 C 221.97 71.80 221.09 70.74 220.19 69.68 C 218.94 79.74 210.72 87.28 203.03 93.06 C 196.14 100.98 187.52 107.35 178.25 112.19 C 165.22 116.07 153.07 122.26 140.39 127.07 L 140.73 125.66 C 143.16 119.55 145.87 113.58 147.17 107.08 C 155.18 91.69 161.67 75.51 168.85 59.71 Z" />
<path fill="#ffffff" opacity="1.00" d=" M 168.86 145.88 C 178.44 143.61 188.93 144.27 197.66 149.11 C 194.54 157.60 191.02 166.97 182.59 171.53 C 165.26 185.72 146.89 198.87 126.60 208.55 C 115.29 214.70 103.79 220.62 91.60 224.86 C 102.34 202.85 113.26 180.92 124.24 159.03 C 139.71 157.03 154.34 151.29 168.86 145.88 Z" />
<path fill="#ffffff" opacity="1.00" d=" M 108.17 232.89 C 109.21 232.57 110.27 232.28 111.33 232.02 C 107.96 234.11 104.01 238.22 99.78 236.67 C 102.35 234.96 105.25 233.85 108.17 232.89 Z" />
<path fill="#ffffff" opacity="1.00" d=" M 79.43 246.10 C 81.34 242.57 84.89 241.46 88.67 242.34 C 86.00 244.45 82.87 245.92 79.43 246.10 Z" />
</g>
<g id="#f9dc3eff">
<path fill="#f9dc3e" opacity="1.00" d=" M 123.73 44.77 C 145.03 36.35 167.15 29.17 190.02 26.73 C 204.08 27.58 218.90 28.29 231.41 35.50 C 240.19 39.50 248.45 45.85 251.95 55.13 C 252.70 67.20 251.28 80.25 244.61 90.62 C 239.28 96.59 232.74 101.35 226.91 106.83 C 221.92 111.83 214.94 114.38 210.60 120.09 C 211.47 121.15 212.35 122.20 213.24 123.26 C 218.23 129.47 224.34 135.01 227.84 142.28 C 228.96 147.91 226.72 153.37 224.43 158.38 C 215.44 177.15 198.21 190.10 181.23 201.24 C 169.38 208.61 159.82 220.21 146.01 223.98 C 139.35 232.18 128.07 232.30 118.69 234.74 C 108.39 240.07 97.27 243.56 86.97 248.87 C 82.02 251.24 74.33 248.45 71.34 254.33 C 67.91 261.60 62.06 267.34 58.46 274.46 C 57.16 274.68 55.87 274.90 54.58 275.13 C 56.21 268.52 60.17 262.94 62.65 256.69 C 63.02 255.77 63.38 254.84 63.74 253.92 C 63.26 253.59 62.32 252.94 61.84 252.61 C 58.20 252.21 54.59 252.62 51.15 253.86 C 50.26 254.04 48.49 254.38 47.60 254.56 C 47.87 253.23 48.23 251.94 48.68 250.67 C 78.14 199.96 100.66 145.64 123.74 91.83 C 126.12 84.57 131.16 77.52 129.50 69.55 C 131.77 68.02 133.23 65.66 134.62 63.37 C 121.06 67.06 108.86 74.55 97.48 82.61 C 95.21 84.61 92.55 82.12 90.07 81.91 C 87.17 84.96 84.23 87.92 80.41 89.83 C 79.47 90.49 78.54 91.16 77.62 91.84 L 77.03 91.51 C 76.61 91.32 75.76 90.93 75.34 90.74 C 76.41 89.17 77.44 87.58 78.41 85.94 C 76.06 87.42 73.78 89.03 71.37 90.41 C 73.28 84.84 78.65 80.52 84.68 80.71 C 84.39 80.22 83.81 79.24 83.52 78.75 C 87.96 77.10 91.15 73.49 94.99 70.88 C 97.30 69.12 100.36 67.66 100.78 64.44 C 101.85 63.56 102.94 62.70 104.02 61.83 C 101.82 61.73 99.63 61.74 97.44 61.78 C 105.80 55.57 115.19 50.78 123.73 44.77 M 216.26 37.73 C 219.78 39.74 223.55 41.44 227.56 42.17 C 231.25 44.89 235.71 46.15 239.95 47.76 C 240.00 47.15 240.06 46.53 240.12 45.92 C 235.84 37.35 224.32 38.67 216.26 37.73 M 167.07 55.03 C 159.55 70.67 153.58 87.13 145.21 102.35 C 143.58 108.15 142.20 114.01 139.26 119.33 C 138.31 121.33 137.07 128.12 140.73 125.66 L 140.39 127.07 C 153.07 122.26 165.22 116.07 178.25 112.19 C 187.52 107.35 196.14 100.98 203.03 93.06 C 210.72 87.28 218.94 79.74 220.19 69.68 C 221.09 70.74 221.97 71.80 222.86 72.86 C 225.08 69.87 227.99 66.15 226.35 62.23 C 225.15 58.75 222.04 56.47 218.61 55.46 C 218.49 57.23 218.36 59.01 218.31 60.79 C 217.77 59.91 217.17 59.08 216.52 58.29 C 215.54 54.39 211.68 52.48 208.03 51.85 C 198.89 50.25 189.66 52.10 180.64 53.56 C 180.34 52.94 179.73 51.69 179.43 51.07 C 175.19 51.85 170.66 52.48 167.07 55.03 M 236.82 54.68 C 237.34 56.97 238.52 58.99 240.35 60.49 C 240.65 57.81 239.09 55.82 236.82 54.68 M 132.64 86.53 C 134.94 85.23 136.39 82.97 137.01 80.44 C 134.99 82.01 133.52 84.15 132.64 86.53 M 123.06 108.51 C 125.35 107.52 126.30 105.48 126.09 103.02 C 124.30 104.35 123.60 106.45 123.06 108.51 M 118.49 124.57 C 118.92 122.48 119.02 120.34 117.88 118.45 C 117.39 120.51 116.95 122.82 118.49 124.57 M 205.13 124.85 C 207.13 125.62 209.19 126.51 211.40 125.98 C 209.73 124.35 207.70 123.16 205.66 122.07 C 205.53 122.77 205.26 124.16 205.13 124.85 M 135.01 132.19 C 133.74 133.83 136.94 134.59 137.84 133.49 C 139.10 131.84 135.90 131.09 135.01 132.19 M 190.84 137.46 C 192.50 139.77 194.86 141.51 197.83 141.44 C 196.65 138.58 193.76 137.44 190.84 137.46 M 158.88 144.89 C 154.81 147.01 149.35 146.89 146.39 150.75 C 138.07 150.23 130.29 154.83 121.92 155.13 C 110.71 178.75 98.16 201.72 87.48 225.59 C 88.85 225.34 90.23 225.10 91.60 224.86 C 103.79 220.62 115.29 214.70 126.60 208.55 C 146.89 198.87 165.26 185.72 182.59 171.53 C 191.02 166.97 194.54 157.60 197.66 149.11 C 196.42 145.08 192.22 143.58 188.63 142.33 C 178.85 139.33 168.07 140.51 158.88 144.89 M 87.51 207.20 C 89.89 204.88 90.76 201.65 91.43 198.52 C 88.55 200.48 87.56 203.86 87.51 207.20 M 128.54 222.18 C 128.56 223.34 128.58 224.51 128.59 225.68 C 136.19 221.70 143.12 216.52 151.00 213.01 C 156.37 210.20 162.94 207.54 165.46 201.63 C 153.05 208.27 141.16 215.90 128.54 222.18 M 113.42 224.49 C 117.92 226.50 122.39 220.44 127.17 220.00 C 126.68 219.73 125.70 219.17 125.21 218.90 C 121.75 221.66 117.65 223.30 113.42 224.49 M 109.77 231.43 C 112.13 230.87 114.50 230.31 116.88 229.82 C 116.64 229.28 116.17 228.19 115.94 227.65 C 113.77 228.72 111.68 229.94 109.77 231.43 M 96.52 233.06 C 98.32 233.41 100.39 232.95 101.96 234.09 C 95.90 236.28 89.58 239.88 82.97 238.27 C 79.27 237.63 77.90 241.68 76.98 244.44 C 77.80 244.99 78.62 245.54 79.43 246.10 C 82.87 245.92 86.00 244.45 88.67 242.34 C 92.69 241.33 96.85 239.74 99.78 236.67 C 104.01 238.22 107.96 234.11 111.33 232.02 C 110.27 232.28 109.21 232.57 108.17 232.89 C 107.40 232.31 106.63 231.73 105.87 231.16 C 106.63 230.30 108.16 228.56 108.93 227.69 C 104.69 229.21 100.50 230.92 96.52 233.06 M 84.36 232.10 C 81.42 233.59 85.54 235.03 86.60 233.12 C 87.95 231.63 85.13 231.35 84.36 232.10 M 63.19 246.55 C 62.63 245.95 61.51 244.75 60.96 244.15 C 59.64 245.44 59.17 247.09 59.50 248.89 C 61.83 248.77 64.15 248.99 66.37 249.71 C 68.10 247.31 69.18 244.52 69.60 241.59 C 66.58 241.87 64.92 244.42 63.19 246.55 Z" />
</g>
<g id="#040406ff">
<path fill="#040406" opacity="1.00" d=" M 216.26 37.73 C 224.32 38.67 235.84 37.35 240.12 45.92 C 236.10 44.18 231.91 42.81 227.56 42.17 C 223.55 41.44 219.78 39.74 216.26 37.73 Z" />
<path fill="#040406" opacity="1.00" d=" M 167.07 55.03 C 170.66 52.48 175.19 51.85 179.43 51.07 C 179.73 51.69 180.34 52.94 180.64 53.56 C 189.66 52.10 198.89 50.25 208.03 51.85 C 211.68 52.48 215.54 54.39 216.52 58.29 C 206.21 52.53 194.02 56.07 183.03 57.34 C 182.70 56.75 182.05 55.57 181.72 54.98 C 177.38 56.10 171.91 56.01 168.85 59.71 C 161.67 75.51 155.18 91.69 147.17 107.08 C 145.87 113.58 143.16 119.55 140.73 125.66 C 137.07 128.12 138.31 121.33 139.26 119.33 C 142.20 114.01 143.58 108.15 145.21 102.35 C 153.58 87.13 159.55 70.67 167.07 55.03 Z" />
<path fill="#040406" opacity="1.00" d=" M 236.82 54.68 C 239.09 55.82 240.65 57.81 240.35 60.49 C 238.52 58.99 237.34 56.97 236.82 54.68 Z" />
<path fill="#040406" opacity="1.00" d=" M 218.61 55.46 C 222.04 56.47 225.15 58.75 226.35 62.23 C 224.64 61.10 222.87 60.09 221.09 59.08 C 220.88 60.99 220.66 62.89 220.43 64.79 C 219.68 63.48 218.98 62.14 218.31 60.79 C 218.36 59.01 218.49 57.23 218.61 55.46 Z" />
<path fill="#040406" opacity="1.00" d=" M 251.95 55.13 C 254.92 60.22 255.14 66.36 254.01 72.01 C 252.57 81.54 250.84 92.46 242.74 98.76 C 236.81 103.81 231.13 109.13 225.16 114.11 C 221.06 116.99 216.55 119.39 213.24 123.26 C 212.35 122.20 211.47 121.15 210.60 120.09 C 214.94 114.38 221.92 111.83 226.91 106.83 C 232.74 101.35 239.28 96.59 244.61 90.62 C 251.28 80.25 252.70 67.20 251.95 55.13 Z" />
<path fill="#040406" opacity="1.00" d=" M 97.48 82.61 C 108.86 74.55 121.06 67.06 134.62 63.37 C 133.23 65.66 131.77 68.02 129.50 69.55 C 118.63 74.09 108.45 80.13 98.92 87.02 C 96.94 88.76 94.81 86.13 92.93 85.48 C 88.19 88.64 83.75 92.24 79.84 96.39 C 79.19 95.45 78.53 94.51 77.88 93.57 C 78.49 93.24 79.70 92.59 80.31 92.27 C 80.33 91.66 80.38 90.44 80.41 89.83 C 84.23 87.92 87.17 84.96 90.07 81.91 C 92.55 82.12 95.21 84.61 97.48 82.61 Z" />
<path fill="#040406" opacity="1.00" d=" M 132.64 86.53 C 133.52 84.15 134.99 82.01 137.01 80.44 C 136.39 82.97 134.94 85.23 132.64 86.53 Z" />
<path fill="#040406" opacity="1.00" d=" M 75.34 90.74 C 75.76 90.93 76.61 91.32 77.03 91.51 C 76.92 95.79 71.34 93.03 75.34 90.74 Z" />
<path fill="#040406" opacity="1.00" d=" M 123.06 108.51 C 123.60 106.45 124.30 104.35 126.09 103.02 C 126.30 105.48 125.35 107.52 123.06 108.51 Z" />
<path fill="#040406" opacity="1.00" d=" M 118.49 124.57 C 116.95 122.82 117.39 120.51 117.88 118.45 C 119.02 120.34 118.92 122.48 118.49 124.57 Z" />
<path fill="#040406" opacity="1.00" d=" M 205.13 124.85 C 205.26 124.16 205.53 122.77 205.66 122.07 C 207.70 123.16 209.73 124.35 211.40 125.98 C 209.19 126.51 207.13 125.62 205.13 124.85 Z" />
<path fill="#040406" opacity="1.00" d=" M 135.01 132.19 C 135.90 131.09 139.10 131.84 137.84 133.49 C 136.94 134.59 133.74 133.83 135.01 132.19 Z" />
<path fill="#040406" opacity="1.00" d=" M 190.84 137.46 C 193.76 137.44 196.65 138.58 197.83 141.44 C 194.86 141.51 192.50 139.77 190.84 137.46 Z" />
<path fill="#040406" opacity="1.00" d=" M 158.88 144.89 C 168.07 140.51 178.85 139.33 188.63 142.33 C 192.22 143.58 196.42 145.08 197.66 149.11 C 188.93 144.27 178.44 143.61 168.86 145.88 C 154.34 151.29 139.71 157.03 124.24 159.03 C 113.26 180.92 102.34 202.85 91.60 224.86 C 90.23 225.10 88.85 225.34 87.48 225.59 C 98.16 201.72 110.71 178.75 121.92 155.13 C 130.29 154.83 138.07 150.23 146.39 150.75 C 149.35 146.89 154.81 147.01 158.88 144.89 Z" />
<path fill="#040406" opacity="1.00" d=" M 227.84 142.28 C 230.59 145.97 231.18 151.13 229.39 155.37 C 223.55 173.81 208.64 187.37 193.42 198.38 C 181.75 205.86 170.94 214.54 159.79 222.75 C 156.35 225.31 152.26 226.81 148.11 227.77 C 141.86 235.94 130.60 236.43 121.35 238.42 C 107.52 245.52 92.72 250.51 77.83 254.89 C 72.89 255.95 72.29 261.97 69.40 265.39 C 65.50 270.29 62.56 276.83 56.74 279.62 C 57.21 277.87 57.75 276.13 58.46 274.46 C 62.06 267.34 67.91 261.60 71.34 254.33 C 74.33 248.45 82.02 251.24 86.97 248.87 C 97.27 243.56 108.39 240.07 118.69 234.74 C 128.07 232.30 139.35 232.18 146.01 223.98 C 159.82 220.21 169.38 208.61 181.23 201.24 C 198.21 190.10 215.44 177.15 224.43 158.38 C 226.72 153.37 228.96 147.91 227.84 142.28 Z" />
<path fill="#040406" opacity="1.00" d=" M 87.51 207.20 C 87.56 203.86 88.55 200.48 91.43 198.52 C 90.76 201.65 89.89 204.88 87.51 207.20 Z" />
<path fill="#040406" opacity="1.00" d=" M 128.54 222.18 C 141.16 215.90 153.05 208.27 165.46 201.63 C 162.94 207.54 156.37 210.20 151.00 213.01 C 143.12 216.52 136.19 221.70 128.59 225.68 C 128.58 224.51 128.56 223.34 128.54 222.18 Z" />
<path fill="#040406" opacity="1.00" d=" M 113.42 224.49 C 117.65 223.30 121.75 221.66 125.21 218.90 C 125.70 219.17 126.68 219.73 127.17 220.00 C 122.39 220.44 117.92 226.50 113.42 224.49 Z" />
<path fill="#040406" opacity="1.00" d=" M 109.77 231.43 C 111.68 229.94 113.77 228.72 115.94 227.65 C 116.17 228.19 116.64 229.28 116.88 229.82 C 114.50 230.31 112.13 230.87 109.77 231.43 Z" />
<path fill="#040406" opacity="1.00" d=" M 96.52 233.06 C 100.50 230.92 104.69 229.21 108.93 227.69 C 108.16 228.56 106.63 230.30 105.87 231.16 C 106.63 231.73 107.40 232.31 108.17 232.89 C 105.25 233.85 102.35 234.96 99.78 236.67 C 96.85 239.74 92.69 241.33 88.67 242.34 C 84.89 241.46 81.34 242.57 79.43 246.10 C 78.62 245.54 77.80 244.99 76.98 244.44 C 77.90 241.68 79.27 237.63 82.97 238.27 C 89.58 239.88 95.90 236.28 101.96 234.09 C 100.39 232.95 98.32 233.41 96.52 233.06 Z" />
<path fill="#040406" opacity="1.00" d=" M 84.36 232.10 C 85.13 231.35 87.95 231.63 86.60 233.12 C 85.54 235.03 81.42 233.59 84.36 232.10 Z" />
<path fill="#040406" opacity="1.00" d=" M 63.19 246.55 C 64.92 244.42 66.58 241.87 69.60 241.59 C 69.18 244.52 68.10 247.31 66.37 249.71 C 64.15 248.99 61.83 248.77 59.50 248.89 C 59.17 247.09 59.64 245.44 60.96 244.15 C 61.51 244.75 62.63 245.95 63.19 246.55 Z" />
<path fill="#040406" opacity="1.00" d=" M 51.15 253.86 C 54.59 252.62 58.20 252.21 61.84 252.61 C 62.32 252.94 63.26 253.59 63.74 253.92 C 63.38 254.84 63.02 255.77 62.65 256.69 C 61.42 256.98 60.26 256.68 59.16 255.79 C 56.39 257.00 53.53 257.98 50.61 258.76 C 50.44 258.11 50.09 256.81 49.91 256.17 C 50.22 255.59 50.84 254.44 51.15 253.86 Z" />
</g>
</svg>
