<?xml version="1.0" encoding="UTF-8" ?>
<!DOCTYPE svg PUBLIC "-//W3C//DTD SVG 1.1//EN" "http://www.w3.org/Graphics/SVG/1.1/DTD/svg11.dtd">
<svg width="500pt" height="500pt" viewBox="0 0 500 500" version="1.1" xmlns="http://www.w3.org/2000/svg">
<g id="#00d2b2ff">
<path fill="#00d2b2" opacity="1.00" d=" M 105.77 125.00 C 151.40 83.56 197.31 42.44 243.01 1.07 C 300.12 52.77 357.40 104.29 414.59 155.90 C 381.13 186.05 347.71 216.24 314.24 246.38 C 313.17 247.12 312.03 247.97 312.32 249.45 C 357.90 290.28 403.25 331.36 448.67 372.37 C 381.07 413.26 313.20 453.72 245.61 494.64 C 242.23 498.09 239.50 492.91 237.04 490.99 C 182.28 441.55 127.49 392.15 72.70 342.75 C 72.15 339.52 72.88 336.28 73.25 333.08 C 83.76 266.98 94.17 200.85 104.68 134.75 C 105.33 131.54 105.70 128.28 105.77 125.00 Z" />
</g>
<g id="#00726069">
<path fill="#007260" opacity="0.41" d=" M 102.66 139.82 C 103.74 134.89 103.42 129.60 105.77 125.00 C 105.70 128.28 105.33 131.54 104.68 134.75 C 94.17 200.85 83.76 266.98 73.25 333.08 C 72.88 336.28 72.15 339.52 72.70 342.75 C 70.38 343.25 70.99 340.39 71.01 338.98 C 81.73 272.62 92.07 206.22 102.66 139.82 Z" />
</g>
</svg>
