<?xml version="1.0" encoding="UTF-8" ?>
<!DOCTYPE svg PUBLIC "-//W3C//DTD SVG 1.1//EN" "http://www.w3.org/Graphics/SVG/1.1/DTD/svg11.dtd">
<svg width="512pt" height="512pt" viewBox="0 0 512 512" version="1.1" xmlns="http://www.w3.org/2000/svg">
<g id="#00d2b8ff">
<path fill="#00d2b8" opacity="1.00" d=" M 270.63 0.00 L 278.81 0.00 C 287.76 2.32 296.22 6.63 302.81 13.19 C 321.57 31.76 340.27 50.39 359.03 68.97 C 360.67 70.67 362.79 72.15 363.39 74.58 C 367.35 86.03 371.47 97.41 375.40 108.87 C 365.11 106.49 354.53 105.88 344.00 105.96 C 270.00 105.96 196.00 105.96 122.00 105.98 C 117.80 106.04 113.56 106.20 109.42 105.36 C 161.47 70.80 213.65 36.39 265.69 1.84 C 267.29 1.11 268.96 0.55 270.63 0.00 Z" />
<path fill="#00d2b8" opacity="1.00" d=" M 107.93 106.66 C 218.34 216.84 328.40 327.39 438.95 437.43 C 438.87 437.71 438.70 438.26 438.61 438.54 C 437.48 438.68 436.32 438.76 435.28 439.23 C 415.65 447.99 395.95 456.60 376.35 465.43 C 374.98 465.98 373.46 466.77 371.97 466.11 C 288.38 436.62 204.76 407.16 121.16 377.67 C 118.02 376.46 114.82 375.40 111.50 374.82 C 111.44 374.59 111.33 374.14 111.27 373.91 C 107.12 356.57 108.57 338.66 108.30 321.00 C 107.97 249.55 107.90 178.11 107.93 106.66 Z" />
</g>
<g id="#007bb7ff">
<path fill="#007bb7" opacity="1.00" d=" M 107.93 106.66 C 108.41 106.21 108.91 105.78 109.42 105.36 C 113.56 106.20 117.80 106.04 122.00 105.98 C 196.00 105.96 270.00 105.96 344.00 105.96 C 354.53 105.88 365.11 106.49 375.40 108.87 C 375.58 109.04 375.94 109.38 376.11 109.55 C 406.15 194.08 435.77 278.77 465.73 363.32 C 466.78 366.88 469.37 370.71 467.49 374.43 C 458.28 395.33 448.90 416.16 439.81 437.12 L 438.95 437.43 C 328.40 327.39 218.34 216.84 107.93 106.66 Z" />
<path fill="#007bb7" opacity="1.00" d=" M 6.05 260.07 C 40.19 209.06 73.65 157.57 107.93 106.66 C 107.90 178.11 107.97 249.55 108.30 321.00 C 108.57 338.66 107.12 356.57 111.27 373.91 C 100.49 370.41 89.88 366.40 79.15 362.75 C 76.85 361.91 74.27 361.34 72.61 359.38 C 52.75 339.23 32.68 319.28 12.95 299.01 C 4.13 288.85 -3.36 272.13 6.05 260.07 Z" />
</g>
<g id="#00a4e4ff">
<path fill="#00a4e4" opacity="1.00" d=" M 376.11 109.55 C 397.33 115.32 417.88 125.76 432.88 142.12 C 458.66 168.10 484.68 193.87 510.28 220.01 C 510.13 284.91 510.44 349.84 509.94 414.73 C 486.57 422.20 463.19 429.66 439.81 437.12 C 448.90 416.16 458.28 395.33 467.49 374.43 C 469.37 370.71 466.78 366.88 465.73 363.32 C 435.77 278.77 406.15 194.08 376.11 109.55 Z" />
</g>
<g id="#55ddcaff">
<path fill="#55ddca" opacity="1.00" d=" M 111.50 374.82 C 114.82 375.40 118.02 376.46 121.16 377.67 C 204.76 407.16 288.38 436.62 371.97 466.11 C 373.46 466.77 374.98 465.98 376.35 465.43 C 395.95 456.60 415.65 447.99 435.28 439.23 C 436.32 438.76 437.48 438.68 438.61 438.54 C 430.86 463.05 422.96 487.51 415.13 512.00 L 225.33 512.00 C 197.82 485.08 170.69 457.75 143.34 430.66 C 127.33 415.86 117.42 395.54 111.50 374.82 Z" />
</g>
</svg>
