<?xml version="1.0" encoding="UTF-8" ?>
<!DOCTYPE svg PUBLIC "-//W3C//DTD SVG 1.1//EN" "http://www.w3.org/Graphics/SVG/1.1/DTD/svg11.dtd">
<svg width="452pt" height="452pt" viewBox="0 0 452 452" version="1.1" xmlns="http://www.w3.org/2000/svg">
<g id="#ffa000ff">
<path fill="#ffa000" opacity="1.00" d=" M 127.68 25.85 C 128.74 18.19 140.35 16.31 143.88 23.12 C 161.27 56.18 178.45 89.37 195.78 122.47 C 195.66 122.72 195.41 123.22 195.29 123.48 C 157.86 193.65 120.43 263.83 83.01 334.01 C 81.16 338.11 78.03 341.71 77.38 346.28 C 76.67 346.96 75.98 347.65 75.29 348.36 C 92.85 240.87 110.11 133.33 127.68 25.85 Z" />
</g>
<g id="#ff8f00ff">
<path fill="#ff8f00" opacity="1.00" d=" M 219.06 79.01 C 221.80 73.94 230.16 74.14 232.67 79.33 C 246.00 105.66 258.96 132.18 272.38 158.46 C 259.70 170.89 246.71 182.97 234.01 195.38 C 222.52 174.57 212.02 153.23 200.74 132.30 C 199.24 129.17 197.67 126.04 195.29 123.48 C 195.41 123.22 195.66 122.72 195.78 122.47 C 203.64 108.04 211.22 93.45 219.06 79.01 Z" />
</g>
<g id="#ffc400ff">
<path fill="#ffc400" opacity="1.00" d=" M 326.92 105.89 C 331.72 101.34 340.62 104.57 341.47 111.11 C 353.29 190.14 364.86 269.21 376.67 348.24 C 330.29 375.74 283.49 402.61 236.95 429.88 C 230.95 433.82 222.79 434.29 216.59 430.52 C 169.50 403.12 122.38 375.76 75.29 348.36 C 75.98 347.65 76.67 346.96 77.38 346.28 C 129.76 296.16 181.83 245.70 234.01 195.38 C 246.71 182.97 259.70 170.89 272.38 158.46 C 290.54 140.92 308.69 123.36 326.92 105.89 Z" />
</g>
<g id="#ff6f00ff">
<path fill="#ff6f00" opacity="1.00" d=" M 195.29 123.48 C 197.67 126.04 199.24 129.17 200.74 132.30 C 212.02 153.23 222.52 174.57 234.01 195.38 C 181.83 245.70 129.76 296.16 77.38 346.28 C 78.03 341.71 81.16 338.11 83.01 334.01 C 120.43 263.83 157.86 193.65 195.29 123.48 Z" />
</g>
</svg>
