<?xml version="1.0" encoding="UTF-8" ?>
<!DOCTYPE svg PUBLIC "-//W3C//DTD SVG 1.1//EN" "http://www.w3.org/Graphics/SVG/1.1/DTD/svg11.dtd">
<svg width="210pt" height="240pt" viewBox="0 0 210 240" version="1.1" xmlns="http://www.w3.org/2000/svg">
<g id="#f7f7f7ff">
</g>
<g id="#54c5f8ff">
<path fill="#54c5f8" opacity="1.00" d=" M 126.14 10.09 C 148.52 10.02 170.89 10.04 193.26 10.08 C 146.01 58.33 97.94 105.79 50.54 153.90 C 39.47 143.50 29.06 132.41 18.20 121.80 C 15.39 119.87 18.88 117.79 20.25 116.25 C 55.62 80.93 90.91 45.54 126.14 10.09 Z" />
<path fill="#54c5f8" opacity="1.00" d=" M 100.35 137.40 C 109.09 129.07 117.18 120.04 126.10 111.92 C 148.39 111.56 170.75 111.51 193.05 111.95 C 173.78 131.85 153.87 151.14 134.65 171.07 L 134.37 170.80 C 122.95 159.76 112.28 147.87 100.35 137.40 Z" />
</g>
<g id="#29b6f6ff">
<path fill="#29b6f6" opacity="1.00" d=" M 67.36 170.78 C 78.10 159.44 89.47 148.64 100.35 137.40 C 112.28 147.87 122.95 159.76 134.37 170.80 C 129.14 176.67 123.19 181.86 117.91 187.69 C 112.35 193.10 106.77 198.49 101.49 204.17 L 100.62 204.48 C 89.61 193.18 78.03 182.38 67.36 170.78 Z" />
</g>
<g id="#01477fff">
<path fill="#01477f" opacity="1.00" d=" M 134.37 170.80 L 134.65 171.07 C 134.97 171.40 135.63 172.05 135.95 172.38 C 129.82 177.43 122.19 184.18 123.96 193.02 C 124.86 197.48 119.18 198.22 116.14 199.42 C 115.82 195.42 116.45 191.42 117.91 187.69 C 123.19 181.86 129.14 176.67 134.37 170.80 Z" />
</g>
<g id="#01579bff">
<path fill="#01579b" opacity="1.00" d=" M 123.96 193.02 C 122.19 184.18 129.82 177.43 135.95 172.38 C 155.12 191.54 174.35 210.63 193.30 229.99 C 170.89 230.10 148.48 230.07 126.07 230.01 C 117.57 221.51 109.12 212.97 100.62 204.48 L 101.49 204.17 C 106.49 202.96 111.23 200.94 116.14 199.42 C 119.18 198.22 124.86 197.48 123.96 193.02 Z" />
</g>
<g id="#002b4dff">
<path fill="#002b4d" opacity="1.00" d=" M 101.49 204.17 C 106.77 198.49 112.35 193.10 117.91 187.69 C 116.45 191.42 115.82 195.42 116.14 199.42 C 111.23 200.94 106.49 202.96 101.49 204.17 Z" />
</g>
</svg>
