<?xml version="1.0" encoding="UTF-8" ?>
<!DOCTYPE svg PUBLIC "-//W3C//DTD SVG 1.1//EN" "http://www.w3.org/Graphics/SVG/1.1/DTD/svg11.dtd">
<svg width="512pt" height="512pt" viewBox="0 0 512 512" version="1.1" xmlns="http://www.w3.org/2000/svg">
<g id="#de4c36ff">
<path fill="#de4c36" opacity="1.00" d=" M 250.93 0.00 L 259.87 0.00 C 266.98 1.58 273.95 4.57 279.06 9.93 C 353.57 84.42 428.09 158.92 502.58 233.43 C 507.66 238.39 510.38 245.13 512.00 251.92 L 512.00 260.90 C 510.46 267.77 507.68 274.55 502.58 279.56 C 428.26 353.92 353.91 428.25 279.56 502.58 C 274.59 507.66 267.85 510.37 261.05 512.00 L 252.14 512.00 C 245.27 510.42 238.46 507.69 233.45 502.56 C 158.93 428.07 84.43 353.57 9.93 279.06 C 4.60 274.00 1.67 267.09 0.00 260.06 L 0.00 251.12 C 1.61 242.97 5.63 235.39 11.90 229.89 C 62.27 179.60 112.52 129.18 162.95 78.94 C 182.30 98.22 201.63 117.53 220.88 136.91 C 212.50 156.17 222.45 180.66 242.06 188.30 C 242.54 235.13 242.19 281.99 242.24 328.83 C 228.98 334.44 219.10 347.44 218.08 361.91 C 216.58 377.05 224.91 392.51 238.31 399.68 C 251.85 407.29 269.83 405.71 281.80 395.80 C 293.98 386.21 299.37 369.02 294.81 354.19 C 291.87 343.68 284.12 335.01 274.57 329.94 C 274.50 283.62 274.51 237.30 274.59 190.98 C 292.26 208.51 309.94 226.04 327.35 243.82 C 319.31 262.65 328.73 286.44 347.60 294.44 C 361.60 300.96 379.27 298.07 390.45 287.42 C 401.84 277.10 406.09 259.77 400.67 245.36 C 394.08 225.61 370.51 214.43 350.96 221.51 C 331.98 202.75 313.12 183.85 294.33 164.90 C 299.20 150.47 295.18 133.46 283.76 123.24 C 273.46 113.42 257.87 110.57 244.45 114.80 C 224.97 95.17 205.28 75.72 185.84 56.05 C 201.31 40.44 216.89 24.94 232.44 9.41 C 237.41 4.33 244.14 1.64 250.93 0.00 Z" />
</g>
</svg>
