<?xml version="1.0" encoding="UTF-8" ?>
<!DOCTYPE svg PUBLIC "-//W3C//DTD SVG 1.1//EN" "http://www.w3.org/Graphics/SVG/1.1/DTD/svg11.dtd">
<svg width="512pt" height="512pt" viewBox="0 0 512 512" version="1.1" xmlns="http://www.w3.org/2000/svg">
<g id="#000000ff">
<path fill="#000000" opacity="1.00" d=" M 132.72 37.79 C 199.15 0.46 282.62 -3.57 353.00 25.03 C 377.24 35.23 400.09 48.83 420.24 65.75 C 476.41 112.18 510.92 183.55 512.00 256.48 L 512.00 268.48 C 510.73 316.25 496.58 363.92 469.43 403.43 C 440.44 447.50 397.71 482.71 348.12 501.09 C 342.21 503.06 336.43 506.55 329.95 505.56 C 323.78 505.07 319.54 498.86 319.70 492.96 C 319.50 467.96 319.86 442.95 319.52 417.96 C 319.24 402.31 314.22 386.26 302.71 375.21 C 336.38 371.91 371.83 361.08 394.45 334.48 C 412.51 311.57 418.71 281.57 419.22 252.97 C 420.29 228.18 412.62 202.72 396.11 183.94 C 395.03 182.34 392.41 180.85 393.58 178.63 C 401.84 157.35 398.87 133.33 390.38 112.61 C 384.63 110.25 378.01 111.74 372.13 113.12 C 353.46 118.52 336.34 128.04 320.03 138.41 C 278.28 127.28 233.72 127.27 191.97 138.41 C 181.24 131.73 170.49 124.91 158.61 120.40 C 146.92 115.67 134.26 109.37 121.36 112.38 C 113.00 133.23 110.14 157.28 118.42 178.63 C 119.55 180.58 117.38 182.00 116.36 183.39 C 99.52 202.20 91.69 227.95 92.78 252.97 C 93.11 278.88 98.58 305.38 112.51 327.54 C 122.50 343.26 138.23 354.40 155.04 361.89 C 171.95 369.99 190.68 372.84 209.09 375.25 C 199.71 384.42 194.99 396.95 192.74 409.62 C 181.02 415.19 167.75 416.75 154.91 415.94 C 139.80 413.93 127.34 402.98 119.84 390.18 C 111.48 375.41 96.28 363.48 79.04 362.02 C 75.39 362.23 69.17 361.62 67.96 366.02 C 69.85 373.59 77.68 377.19 83.56 381.35 C 94.81 390.88 101.85 404.35 107.21 417.87 C 113.65 433.89 130.22 444.13 146.99 446.00 C 161.97 448.54 177.31 448.07 192.25 445.51 C 192.47 461.32 192.52 477.15 192.61 492.97 C 192.86 499.34 187.66 505.66 181.08 505.64 C 175.77 506.21 170.95 503.68 166.12 501.92 C 77.23 470.01 10.43 384.15 1.57 290.09 C 0.41 282.94 0.79 275.68 0.00 268.51 L 0.00 256.48 C 0.94 227.25 6.01 197.98 16.72 170.68 C 38.16 114.59 79.89 66.45 132.72 37.79 Z" />
</g>
</svg>
