<?xml version="1.0" encoding="UTF-8" ?>
<!DOCTYPE svg PUBLIC "-//W3C//DTD SVG 1.1//EN" "http://www.w3.org/Graphics/SVG/1.1/DTD/svg11.dtd">
<svg width="512pt" height="512pt" viewBox="0 0 512 512" version="1.1" xmlns="http://www.w3.org/2000/svg">
<g id="#e65100ff">
<path fill="#e65100" opacity="1.00" d=" M 75.21 53.35 C 195.73 53.33 316.25 53.32 436.77 53.35 L 437.27 53.85 C 426.68 174.45 415.97 295.04 405.38 415.64 C 404.54 416.57 403.10 416.50 402.01 416.98 C 353.33 430.78 304.72 444.92 256.00 458.57 C 206.21 444.34 156.18 430.46 106.62 415.67 C 96.04 295.07 85.32 174.47 74.74 53.87 L 75.21 53.35 M 256.67 85.62 C 254.92 102.80 256.77 120.59 255.79 137.99 C 223.57 139.09 191.21 137.70 158.97 138.67 C 161.35 181.32 163.90 223.96 166.46 266.60 C 196.33 266.78 226.20 266.58 256.08 266.70 C 255.86 287.56 256.11 308.44 255.95 329.31 C 241.28 324.84 226.85 319.53 212.32 314.62 C 211.39 305.79 210.98 296.90 210.07 288.06 C 195.90 287.93 181.72 288.00 167.55 288.03 C 168.77 307.48 170.34 326.92 171.75 346.36 C 199.40 356.20 227.70 364.77 255.52 374.35 C 256.75 391.20 255.41 408.16 256.21 425.04 C 294.34 415.33 332.02 403.46 370.02 393.07 C 372.28 392.36 375.78 392.06 375.67 388.92 C 384.45 288.62 393.17 188.30 401.91 88.00 C 402.70 84.43 398.13 85.39 396.01 85.18 C 349.57 85.57 303.05 84.69 256.67 85.62 Z" />
<path fill="#e65100" opacity="1.00" d=" M 203.82 181.51 C 221.12 182.08 238.49 180.96 255.74 182.05 C 256.40 196.01 255.80 210.02 255.99 224.00 C 239.65 223.94 223.31 224.13 206.98 223.91 C 205.80 209.79 204.79 195.65 203.82 181.51 Z" />
</g>
<g id="#ff6d00ff">
<path fill="#ff6d00" opacity="1.00" d=" M 256.67 85.62 C 303.05 84.69 349.57 85.57 396.01 85.18 C 398.13 85.39 402.70 84.43 401.91 88.00 C 393.17 188.30 384.45 288.62 375.67 388.92 C 375.78 392.06 372.28 392.36 370.02 393.07 C 332.02 403.46 294.34 415.33 256.21 425.04 C 255.41 408.16 256.75 391.20 255.52 374.35 L 256.17 374.20 C 284.25 365.19 312.39 356.09 340.22 346.43 C 342.78 305.66 345.29 264.88 347.70 224.10 C 317.14 223.86 286.56 224.07 255.99 224.00 C 255.80 210.02 256.40 196.01 255.74 182.05 C 238.49 180.96 221.12 182.08 203.82 181.51 C 221.20 181.05 238.60 181.48 255.99 181.31 C 287.61 181.30 319.24 181.45 350.86 181.23 C 351.99 167.08 353.17 152.93 354.00 138.76 C 321.34 138.55 288.66 138.70 256.00 138.69 C 223.66 138.65 191.32 138.69 158.97 138.67 C 191.21 137.70 223.57 139.09 255.79 137.99 C 256.77 120.59 254.92 102.80 256.67 85.62 Z" />
<path fill="#ff6d00" opacity="1.00" d=" M 256.08 266.70 C 271.64 266.74 287.20 266.63 302.77 266.77 C 301.98 282.71 300.84 298.67 299.66 314.59 C 285.42 319.80 270.92 324.29 256.66 329.46 L 255.95 329.31 C 256.11 308.44 255.86 287.56 256.08 266.70 Z" />
</g>
<g id="#eeeeeeff">
<path fill="#eeeeee" opacity="1.00" d=" M 158.97 138.67 C 191.32 138.69 223.66 138.65 256.00 138.69 C 256.00 152.90 256.01 167.10 255.99 181.31 C 238.60 181.48 221.20 181.05 203.82 181.51 C 204.79 195.65 205.80 209.79 206.98 223.91 C 223.31 224.13 239.65 223.94 255.99 224.00 C 256.23 237.94 255.57 251.92 256.27 265.84 C 271.71 266.73 287.24 265.90 302.72 266.16 L 302.77 266.77 C 287.20 266.63 271.64 266.74 256.08 266.70 C 226.20 266.58 196.33 266.78 166.46 266.60 C 163.90 223.96 161.35 181.32 158.97 138.67 Z" />
<path fill="#eeeeee" opacity="1.00" d=" M 167.55 288.03 C 181.72 288.00 195.90 287.93 210.07 288.06 C 210.98 296.90 211.39 305.79 212.32 314.62 C 226.85 319.53 241.28 324.84 255.95 329.31 L 256.66 329.46 C 255.24 344.30 256.21 359.30 256.17 374.20 L 255.52 374.35 C 227.70 364.77 199.40 356.20 171.75 346.36 C 170.34 326.92 168.77 307.48 167.55 288.03 Z" />
</g>
<g id="#ffffffff">
<path fill="#ffffff" opacity="1.00" d=" M 256.00 138.69 C 288.66 138.70 321.34 138.55 354.00 138.76 C 353.17 152.93 351.99 167.08 350.86 181.23 C 319.24 181.45 287.61 181.30 255.99 181.31 C 256.01 167.10 256.00 152.90 256.00 138.69 Z" />
<path fill="#ffffff" opacity="1.00" d=" M 255.99 224.00 C 286.56 224.07 317.14 223.86 347.70 224.10 C 345.29 264.88 342.78 305.66 340.22 346.43 C 312.39 356.09 284.25 365.19 256.17 374.20 C 256.21 359.30 255.24 344.30 256.66 329.46 C 270.92 324.29 285.42 319.80 299.66 314.59 C 300.84 298.67 301.98 282.71 302.77 266.77 L 302.72 266.16 C 287.24 265.90 271.71 266.73 256.27 265.84 C 255.57 251.92 256.23 237.94 255.99 224.00 Z" />
</g>
</svg>
