<?xml version="1.0" encoding="UTF-8" ?>
<!DOCTYPE svg PUBLIC "-//W3C//DTD SVG 1.1//EN" "http://www.w3.org/Graphics/SVG/1.1/DTD/svg11.dtd">
<svg width="512pt" height="512pt" viewBox="0 0 512 512" version="1.1" xmlns="http://www.w3.org/2000/svg">
<g id="#4f8ff7ff">
<path fill="#4f8ff7" opacity="1.00" d=" M 146.95 78.88 C 178.36 59.44 215.05 48.69 251.98 48.08 C 297.27 46.93 342.66 61.47 379.12 88.31 C 391.45 80.03 409.28 81.61 419.62 92.38 C 430.37 102.72 431.94 120.54 423.66 132.85 C 464.45 187.52 475.22 262.68 451.63 326.65 C 430.67 385.59 381.59 433.62 322.15 453.18 C 280.37 467.29 234.06 467.53 192.10 453.94 C 137.60 436.62 91.29 395.58 67.36 343.65 C 49.59 305.69 43.95 262.30 50.96 221.01 C 60.54 162.72 96.60 109.65 146.95 78.88 M 231.34 65.44 C 170.63 72.78 115.03 111.42 86.51 165.44 C 67.31 201.09 60.08 242.90 65.75 282.96 C 73.75 342.82 112.17 397.40 165.56 425.52 C 201.79 445.04 244.40 452.13 285.04 445.91 C 348.35 436.81 405.19 393.47 431.12 335.06 C 459.40 273.78 451.79 197.86 411.76 143.49 C 399.68 149.71 383.88 147.45 374.38 137.63 C 364.54 128.13 362.25 112.31 368.49 100.22 C 329.39 71.72 279.29 59.10 231.34 65.44 Z" />
<path fill="#4f8ff7" opacity="1.00" d=" M 244.49 160.68 C 265.22 158.14 286.74 162.59 304.70 173.26 C 326.92 186.26 343.48 208.56 349.35 233.64 C 355.13 257.51 351.30 283.58 338.71 304.69 C 325.73 326.92 303.44 343.46 278.37 349.35 C 254.49 355.13 228.43 351.31 207.31 338.72 C 185.07 325.74 168.52 303.45 162.64 278.37 C 156.86 254.49 160.68 228.43 173.26 207.29 C 188.08 181.83 215.18 163.98 244.49 160.68 Z" />
</g>
</svg>
