<?xml version="1.0" encoding="UTF-8" ?>
<!DOCTYPE svg PUBLIC "-//W3C//DTD SVG 1.1//EN" "http://www.w3.org/Graphics/SVG/1.1/DTD/svg11.dtd">
<svg width="500pt" height="500pt" viewBox="0 0 500 500" version="1.1" xmlns="http://www.w3.org/2000/svg">
<g id="#ffca00ff">
<path fill="#ffca00" opacity="1.00" d=" M 0.00 0.00 L 500.00 0.00 L 500.00 500.00 L 0.00 500.00 L 0.00 0.00 M 374.03 217.74 C 353.12 219.41 332.43 230.24 321.56 248.58 C 305.66 276.13 311.08 315.43 336.26 335.76 C 356.80 353.75 384.63 359.13 407.11 373.88 C 418.73 381.05 421.29 399.49 410.61 408.61 C 398.57 418.85 380.61 418.90 366.33 413.75 C 353.84 409.16 344.65 398.69 338.07 387.48 C 324.46 394.57 311.26 402.60 298.29 410.79 C 310.45 436.49 336.09 454.46 363.94 459.02 C 385.96 462.72 409.54 461.58 429.93 451.83 C 444.56 444.91 456.72 432.43 462.04 417.02 C 469.75 393.70 466.98 365.49 450.48 346.49 C 436.16 330.57 416.20 321.56 396.94 313.15 C 386.84 308.55 376.03 304.81 367.52 297.45 C 358.75 289.51 358.40 274.22 367.09 266.10 C 374.80 259.25 386.32 259.00 395.60 262.44 C 404.07 265.92 409.73 273.60 414.12 281.30 C 427.05 273.52 439.10 264.34 451.90 256.33 C 445.80 244.13 436.23 233.49 424.36 226.65 C 409.17 218.20 391.13 216.08 374.03 217.74 M 224.31 220.20 C 224.02 275.46 224.30 330.73 224.17 386.00 C 224.03 394.85 223.28 404.98 216.45 411.45 C 209.12 417.55 198.40 418.04 189.59 415.35 C 178.88 411.50 173.65 400.75 167.89 391.81 C 154.72 399.73 141.55 407.66 128.56 415.90 C 137.43 436.18 155.41 452.45 177.01 457.93 C 197.18 462.85 219.29 462.04 238.26 453.13 C 252.76 446.21 263.77 432.88 268.48 417.58 C 274.54 400.35 272.68 381.90 272.94 364.00 C 272.85 316.00 273.17 267.99 272.78 220.00 C 256.64 219.77 240.41 219.35 224.31 220.20 Z" />
</g>
<g id="#ffffffff">
<path fill="#ffffff" opacity="1.00" d=" M 374.03 217.74 C 391.13 216.08 409.17 218.20 424.36 226.65 C 436.23 233.49 445.80 244.13 451.90 256.33 C 439.10 264.34 427.05 273.52 414.12 281.30 C 409.73 273.60 404.07 265.92 395.60 262.44 C 386.32 259.00 374.80 259.25 367.09 266.10 C 358.40 274.22 358.75 289.51 367.52 297.45 C 376.03 304.81 386.84 308.55 396.94 313.15 C 416.20 321.56 436.16 330.57 450.48 346.49 C 466.98 365.49 469.75 393.70 462.04 417.02 C 456.72 432.43 444.56 444.91 429.93 451.83 C 409.54 461.58 385.96 462.72 363.94 459.02 C 336.09 454.46 310.45 436.49 298.29 410.79 C 311.26 402.60 324.46 394.57 338.07 387.48 C 344.65 398.69 353.84 409.16 366.33 413.75 C 380.61 418.90 398.57 418.85 410.61 408.61 C 421.29 399.49 418.73 381.05 407.11 373.88 C 384.63 359.13 356.80 353.75 336.26 335.76 C 311.08 315.43 305.66 276.13 321.56 248.58 C 332.43 230.24 353.12 219.41 374.03 217.74 Z" />
<path fill="#ffffff" opacity="1.00" d=" M 224.31 220.20 C 240.41 219.35 256.64 219.77 272.78 220.00 C 273.17 267.99 272.85 316.00 272.94 364.00 C 272.68 381.90 274.54 400.35 268.48 417.58 C 263.77 432.88 252.76 446.21 238.26 453.13 C 219.29 462.04 197.18 462.85 177.01 457.93 C 155.41 452.45 137.43 436.18 128.56 415.90 C 141.55 407.66 154.72 399.73 167.89 391.81 C 173.65 400.75 178.88 411.50 189.59 415.35 C 198.40 418.04 209.12 417.55 216.45 411.45 C 223.28 404.98 224.03 394.85 224.17 386.00 C 224.30 330.73 224.02 275.46 224.31 220.20 Z" />
</g>
</svg>
