<?xml version="1.0" encoding="UTF-8" ?>
<!DOCTYPE svg PUBLIC "-//W3C//DTD SVG 1.1//EN" "http://www.w3.org/Graphics/SVG/1.1/DTD/svg11.dtd">
<svg width="224pt" height="225pt" viewBox="0 0 224 225" version="1.1" xmlns="http://www.w3.org/2000/svg">
<g id="#7ac143ff">
<path fill="#7ac143" opacity="1.00" d=" M 38.31 55.89 C 39.16 45.70 48.82 37.31 59.05 37.98 C 68.36 38.04 76.53 45.37 78.29 54.39 C 89.92 52.45 102.62 55.71 110.48 64.85 C 105.58 69.85 100.56 74.72 95.68 79.74 C 91.26 74.75 83.10 73.15 77.92 77.92 C 72.72 82.03 72.01 90.53 76.71 95.29 C 87.93 106.67 99.31 117.90 110.58 129.23 C 105.68 134.27 100.63 139.16 95.72 144.20 C 84.21 133.07 73.05 121.59 61.68 110.32 C 53.29 102.02 50.68 89.23 53.53 77.97 C 44.04 75.37 36.93 65.84 38.31 55.89 Z" />
</g>
<g id="#f9a541ff">
<path fill="#f9a541" opacity="1.00" d=" M 147.55 54.98 C 149.28 44.57 159.54 36.50 170.12 38.10 C 180.31 39.06 188.56 48.84 187.77 59.05 C 187.64 68.57 179.86 76.69 170.64 78.26 C 173.91 90.34 169.87 103.58 160.85 112.15 C 155.78 107.19 150.78 102.15 145.79 97.11 C 148.39 94.37 150.74 90.98 150.54 87.01 C 150.72 79.67 142.98 73.52 135.89 75.32 C 131.76 76.03 129.14 79.58 126.32 82.31 C 116.40 92.23 106.44 102.17 96.25 111.78 C 91.16 107.00 86.35 101.92 81.40 97.00 C 92.83 85.56 104.18 74.03 115.75 62.74 C 124.09 54.74 136.48 52.24 147.55 54.98 Z" />
</g>
<g id="#63963aca">
</g>
<g id="#f44321ff">
<path fill="#f44321" opacity="1.00" d=" M 113.58 97.91 C 118.51 92.92 123.47 87.76 128.79 83.30 C 140.12 94.26 151.13 105.58 162.32 116.69 C 170.29 124.63 173.29 136.63 171.00 147.53 C 180.27 149.19 187.95 157.38 188.01 166.96 C 188.71 177.92 179.02 188.08 168.02 187.77 C 158.57 188.16 150.19 180.98 147.95 172.00 C 136.13 175.21 121.48 172.08 114.02 162.04 C 118.62 156.94 123.72 152.29 128.51 147.37 C 132.32 151.45 138.57 153.57 143.75 150.79 C 150.83 147.58 152.90 137.24 147.29 131.73 C 136.15 120.36 124.77 109.23 113.58 97.91 Z" />
</g>
<g id="#5091cdff">
<path fill="#5091cd" opacity="1.00" d=" M 63.23 115.00 C 68.33 119.84 73.23 124.89 78.19 129.87 C 72.20 135.14 71.84 145.58 78.98 150.00 C 83.88 153.53 90.96 152.29 94.93 147.93 C 106.01 137.12 116.61 125.84 127.70 115.05 C 132.69 120.07 137.74 125.05 142.71 130.10 C 131.50 141.42 120.21 152.67 108.93 163.91 C 100.92 171.81 88.90 174.87 77.99 172.45 C 75.37 181.92 65.90 189.03 55.95 187.68 C 45.33 186.85 36.86 176.47 38.05 165.90 C 38.57 157.36 45.10 150.21 53.17 147.89 C 50.57 136.06 54.34 123.29 63.23 115.00 Z" />
</g>
</svg>
