<?xml version="1.0" encoding="UTF-8" ?>
<!DOCTYPE svg PUBLIC "-//W3C//DTD SVG 1.1//EN" "http://www.w3.org/Graphics/SVG/1.1/DTD/svg11.dtd">
<svg width="225pt" height="225pt" viewBox="0 0 225 225" version="1.1" xmlns="http://www.w3.org/2000/svg">
<g id="#ffffffff">
</g>
<g id="#0868acff">
<path fill="#0868ac" opacity="1.00" d=" M 121.82 48.19 C 118.22 34.07 123.40 19.28 132.84 8.62 C 126.03 22.96 129.29 40.16 138.13 52.85 C 150.09 71.13 173.20 80.87 194.67 77.61 C 202.49 76.34 209.55 72.10 214.77 66.20 C 209.34 76.70 199.88 85.42 188.25 88.31 C 160.00 96.18 128.25 76.57 121.82 48.19 Z" />
<path fill="#0868ac" opacity="1.00" d=" M 72.38 41.35 C 76.11 33.62 81.62 26.94 86.57 19.98 C 77.83 38.20 78.33 60.06 86.79 78.27 C 101.97 112.29 140.10 135.10 177.35 130.42 C 194.86 128.36 211.40 119.09 221.86 104.81 C 215.70 120.83 203.53 134.57 188.02 142.03 C 170.82 150.45 150.78 151.20 132.21 147.79 C 108.46 141.39 87.25 125.13 75.72 103.30 C 65.48 84.59 63.24 60.93 72.38 41.35 Z" />
<path fill="#0868ac" opacity="1.00" d=" M 19.86 52.90 C 23.65 48.18 27.27 43.32 31.15 38.68 C 21.19 59.52 20.27 83.97 27.08 105.90 C 42.18 155.48 92.10 192.15 144.00 191.34 C 171.08 191.78 199.15 181.43 216.33 159.85 C 204.36 186.91 179.46 207.88 150.62 214.70 C 133.18 218.98 114.94 218.75 97.34 215.63 C 48.92 204.33 8.21 161.53 3.47 111.39 C 1.39 90.84 6.56 69.02 19.86 52.90 Z" />
</g>
</svg>
