<?xml version="1.0" encoding="UTF-8" ?>
<!DOCTYPE svg PUBLIC "-//W3C//DTD SVG 1.1//EN" "http://www.w3.org/Graphics/SVG/1.1/DTD/svg11.dtd">
<svg width="1200pt" height="1248pt" viewBox="0 0 1200 1248" version="1.1" xmlns="http://www.w3.org/2000/svg">
<g id="#ff2d20ff">
<path fill="#ff2d20" opacity="1.00" d=" M 246.69 0.00 L 253.08 0.00 C 255.95 0.91 258.74 2.11 261.36 3.62 C 337.29 47.39 413.28 91.06 489.20 134.84 C 495.72 138.35 500.08 145.51 499.75 152.96 C 499.78 317.09 499.69 481.21 499.80 645.33 C 563.92 608.63 627.89 571.63 691.93 534.78 C 692.02 450.85 691.95 366.91 691.97 282.98 C 691.75 275.72 696.13 268.88 702.41 265.43 C 778.81 221.45 855.21 177.48 931.59 133.48 C 937.60 129.69 945.60 129.61 951.70 133.25 C 1028.08 177.20 1104.46 221.18 1180.82 265.16 C 1187.34 268.54 1191.84 275.53 1191.68 282.94 C 1191.71 370.31 1191.69 457.68 1191.69 545.05 C 1191.99 552.24 1187.99 559.26 1181.71 562.73 C 1108.16 605.18 1034.47 647.39 960.98 689.93 C 961.08 773.62 960.98 857.32 961.03 941.02 C 961.38 948.29 957.35 955.45 950.96 958.93 C 798.01 1047.04 645.01 1135.04 492.06 1223.14 C 485.58 1227.46 476.85 1228.06 470.19 1223.80 C 316.81 1135.50 163.45 1047.17 10.06 958.88 C 4.81 956.11 1.55 950.82 0.00 945.24 L 0.00 148.91 C 1.55 143.28 4.82 137.98 10.07 135.14 C 86.43 91.14 162.83 47.20 239.20 3.19 C 241.57 1.86 244.09 0.82 246.69 0.00 M 57.88 152.00 C 121.82 188.98 185.87 225.77 249.90 262.61 C 313.92 225.75 377.96 188.93 441.93 152.00 C 377.97 115.07 313.93 78.26 249.91 41.43 C 185.89 78.27 121.84 115.06 57.88 152.00 M 749.86 282.63 C 813.89 319.45 877.85 356.38 941.91 393.14 C 1005.90 356.23 1070.01 319.53 1133.90 282.46 C 1069.89 245.66 1005.93 208.77 941.92 171.97 C 877.88 208.81 813.74 245.52 749.86 282.63 M 38.44 185.31 C 38.44 433.79 38.48 682.27 38.42 930.76 C 179.29 1012.02 320.25 1093.13 461.24 1174.20 C 461.31 1100.51 461.31 1026.82 461.24 953.13 C 387.71 911.52 314.17 869.92 240.65 828.28 C 234.16 824.68 230.26 817.37 230.65 809.99 C 230.63 639.02 230.64 468.05 230.64 297.09 C 230.90 295.67 229.28 295.21 228.40 294.57 C 165.05 258.20 101.85 221.58 38.44 185.31 M 269.06 295.99 C 269.07 456.72 269.01 617.45 269.08 778.18 C 333.16 741.50 397.02 704.42 461.11 667.78 C 461.55 506.98 461.20 346.15 461.29 185.34 C 397.17 222.15 333.11 259.06 269.06 295.99 M 730.39 315.88 C 730.38 388.82 730.41 461.76 730.38 534.70 C 794.45 571.53 858.35 608.68 922.60 645.17 C 922.60 572.26 922.64 499.35 922.58 426.43 C 858.52 389.58 794.55 352.56 730.39 315.88 M 961.16 426.29 C 960.85 499.32 961.07 572.36 961.05 645.39 C 1025.15 608.63 1089.13 571.66 1153.19 534.84 C 1153.29 461.85 1153.27 388.86 1153.20 315.87 C 1089.15 352.60 1025.27 389.66 961.16 426.29 M 288.85 811.26 C 352.05 847.48 415.67 883.04 478.99 919.09 C 479.90 919.87 481.08 919.82 482.01 919.09 C 622.33 838.95 762.65 758.82 903.02 678.77 C 839.28 641.53 775.13 604.87 711.09 568.12 C 570.38 649.22 429.59 730.20 288.85 811.26 M 499.77 953.13 C 499.70 1026.84 499.68 1100.55 499.78 1174.25 C 640.79 1093.20 781.78 1012.09 922.63 930.77 C 922.57 857.81 922.63 784.85 922.60 711.89 C 781.59 792.19 640.75 872.78 499.77 953.13 Z" />
</g>
</svg>
