<?xml version="1.0" encoding="UTF-8" ?>
<!DOCTYPE svg PUBLIC "-//W3C//DTD SVG 1.1//EN" "http://www.w3.org/Graphics/SVG/1.1/DTD/svg11.dtd">
<svg width="300pt" height="300pt" viewBox="0 0 300 300" version="1.1" xmlns="http://www.w3.org/2000/svg">
<g id="#ffffffff">
</g>
<g id="#ff7279ff">
<path fill="#ff7279" opacity="1.00" d=" M 80.98 60.02 C 94.75 59.92 108.52 60.12 122.29 59.91 C 118.44 66.81 115.80 74.30 114.12 82.01 C 109.61 101.46 106.32 121.20 103.26 140.92 C 99.90 166.15 95.85 191.34 90.10 216.14 C 88.04 222.89 86.99 230.69 81.76 235.83 C 67.89 236.49 53.98 235.99 40.09 236.13 C 42.41 231.58 44.69 226.96 45.95 221.98 C 51.44 201.78 54.88 181.08 57.96 160.39 C 61.64 134.32 65.79 108.28 71.58 82.58 C 73.82 74.79 75.25 66.16 80.98 60.02 Z" />
<path fill="#ff7279" opacity="1.00" d=" M 171.22 60.31 C 185.11 59.49 199.10 60.37 213.02 59.89 C 209.63 64.72 207.24 70.16 205.86 75.90 C 200.46 96.11 196.99 116.81 194.17 137.52 C 190.19 163.31 186.57 189.21 180.62 214.63 C 178.64 222.10 176.95 229.95 172.21 236.25 C 158.41 235.87 144.60 236.40 130.80 236.01 C 142.19 208.96 144.52 179.30 149.84 150.70 C 153.75 124.72 157.34 98.55 164.32 73.18 C 165.93 68.63 167.26 63.42 171.22 60.31 Z" />
<path fill="#ff7279" opacity="1.00" d=" M 241.25 164.42 C 243.38 159.67 247.16 154.42 252.97 154.60 C 266.13 154.77 279.31 154.36 292.46 154.78 C 289.09 157.65 284.76 159.44 282.23 163.21 C 266.76 184.82 278.65 215.65 261.43 236.28 C 248.02 235.84 234.57 236.36 221.14 236.09 C 236.72 215.47 231.70 187.46 241.25 164.42 Z" />
</g>
<g id="#ffa4b1ff">
<path fill="#ffa4b1" opacity="1.00" d=" M 122.29 59.91 C 129.44 58.82 131.78 67.10 133.64 72.37 C 139.89 93.57 143.02 115.53 146.63 137.30 C 147.54 141.78 147.00 146.84 149.84 150.70 C 144.52 179.30 142.19 208.96 130.80 236.01 C 144.60 236.40 158.41 235.87 172.21 236.25 C 158.86 237.40 145.36 236.37 131.96 236.76 C 124.80 237.56 122.80 229.23 120.94 224.00 C 112.77 195.94 109.41 166.78 104.66 138.01 C 104.19 138.98 103.72 139.95 103.26 140.92 C 106.32 121.20 109.61 101.46 114.12 82.01 C 115.80 74.30 118.44 66.81 122.29 59.91 Z" />
<path fill="#ffa4b1" opacity="1.00" d=" M 213.02 59.89 C 220.24 59.22 222.03 67.87 224.00 73.11 C 232.66 102.91 235.72 133.98 241.25 164.42 C 231.70 187.46 236.72 215.47 221.14 236.09 C 234.57 236.36 248.02 235.84 261.43 236.28 L 262.35 236.38 C 248.92 237.22 235.42 236.45 221.96 236.78 C 215.65 237.39 213.32 230.32 211.48 225.60 C 202.47 196.97 200.25 166.76 194.17 137.52 C 196.99 116.81 200.46 96.11 205.86 75.90 C 207.24 70.16 209.63 64.72 213.02 59.89 Z" />
<path fill="#ffa4b1" opacity="1.00" d=" M 7.67 154.80 C 20.78 154.38 33.91 154.63 47.02 154.64 C 51.48 154.46 54.86 157.65 57.96 160.39 C 54.88 181.08 51.44 201.78 45.95 221.98 C 44.69 226.96 42.41 231.58 40.09 236.13 C 53.98 235.99 67.89 236.49 81.76 235.83 L 81.79 236.73 C 67.62 236.63 53.43 236.95 39.28 236.58 C 34.10 234.65 33.01 228.28 31.54 223.58 C 27.00 204.19 26.79 183.47 17.51 165.42 C 15.34 160.98 11.43 157.83 7.67 154.80 Z" />
</g>
</svg>
