<?xml version="1.0" encoding="UTF-8" ?>
<!DOCTYPE svg PUBLIC "-//W3C//DTD SVG 1.1//EN" "http://www.w3.org/Graphics/SVG/1.1/DTD/svg11.dtd">
<svg width="217pt" height="232pt" viewBox="0 0 217 232" version="1.1" xmlns="http://www.w3.org/2000/svg">
<g id="#ffffffff">
</g>
<g id="#412846ff">
<path fill="#412846" opacity="1.00" d=" M 108.30 0.00 L 108.55 0.00 L 109.26 0.29 C 106.21 16.12 109.59 32.51 107.48 48.39 C 106.68 48.98 105.85 49.51 104.99 49.98 C 99.92 47.59 95.16 43.11 88.96 44.02 C 80.32 43.61 77.27 53.33 70.21 56.39 C 65.18 59.71 57.50 57.28 53.85 62.85 C 51.34 67.49 53.48 73.06 52.02 77.97 C 49.42 82.57 43.83 84.71 41.66 89.63 C 40.22 94.96 43.27 100.00 44.50 105.02 C 45.36 109.24 41.47 112.17 40.63 115.99 C 40.57 119.79 43.15 122.83 45.52 125.51 C 49.78 129.87 50.54 136.25 53.75 141.28 C 65.29 161.24 86.67 175.33 109.64 177.79 C 106.39 186.82 108.77 196.63 108.07 206.00 C 108.77 214.31 106.20 223.25 110.08 231.01 C 108.11 232.70 106.02 230.35 104.15 229.63 C 74.72 213.32 44.84 197.74 15.63 181.07 C 10.17 133.61 5.51 86.05 0.00 38.60 L 0.00 37.62 C 36.10 25.09 72.23 12.63 108.30 0.00 Z" />
<path fill="#412846" opacity="1.00" d=" M 78.38 110.21 C 81.32 98.24 92.39 90.07 103.91 87.27 C 105.65 87.04 107.26 88.09 108.87 88.62 C 106.83 109.80 109.00 131.19 107.74 152.44 C 101.10 148.67 96.13 142.79 90.51 137.77 C 89.81 145.24 95.41 150.91 99.88 156.13 C 93.06 152.67 86.64 147.97 82.53 141.41 C 76.75 132.22 76.05 120.59 78.38 110.21 Z" />
</g>
<g id="#4b314fff">
<path fill="#4b314f" opacity="1.00" d=" M 109.26 0.29 C 145.06 12.79 180.97 25.04 216.73 37.68 C 211.72 85.49 206.48 133.28 201.25 181.07 C 171.16 198.18 140.43 214.30 110.08 231.01 C 106.20 223.25 108.77 214.31 108.07 206.00 C 108.77 196.63 106.39 186.82 109.64 177.79 C 126.79 179.15 144.89 174.36 157.96 162.88 C 165.64 156.19 171.22 147.41 175.12 138.07 C 167.84 142.80 160.57 148.06 151.88 149.77 C 159.70 144.44 167.57 138.44 171.85 129.74 C 176.28 121.62 177.03 112.10 176.37 103.04 C 172.35 109.62 169.07 116.88 163.24 122.13 C 171.07 109.50 173.80 91.67 163.10 79.79 C 165.49 91.89 165.32 105.02 158.93 115.94 C 154.58 124.49 147.32 130.87 140.46 137.33 C 147.38 138.57 154.06 136.09 160.11 132.97 C 150.36 142.59 137.52 149.18 123.74 150.12 C 128.75 156.03 136.47 158.50 144.01 158.81 C 131.67 161.41 118.35 159.39 107.74 152.44 C 109.00 131.19 106.83 109.80 108.87 88.62 C 121.73 93.41 135.07 98.71 149.04 98.04 C 154.91 98.10 161.35 93.48 160.65 87.12 C 159.41 79.29 154.26 72.70 148.45 67.59 C 136.48 57.15 121.13 49.79 104.99 49.98 C 105.85 49.51 106.68 48.98 107.48 48.39 C 109.59 32.51 106.21 16.12 109.26 0.29 Z" />
<path fill="#4b314f" opacity="1.00" d=" M 122.39 71.42 C 125.33 68.58 129.56 73.89 126.18 76.21 C 123.13 78.55 119.32 73.68 122.39 71.42 Z" />
</g>
<g id="#ba2bd2ff">
<path fill="#ba2bd2" opacity="1.00" d=" M 70.21 56.39 C 77.27 53.33 80.32 43.61 88.96 44.02 C 95.16 43.11 99.92 47.59 104.99 49.98 C 121.13 49.79 136.48 57.15 148.45 67.59 C 154.26 72.70 159.41 79.29 160.65 87.12 C 161.35 93.48 154.91 98.10 149.04 98.04 C 135.07 98.71 121.73 93.41 108.87 88.62 C 107.26 88.09 105.65 87.04 103.91 87.27 C 92.39 90.07 81.32 98.24 78.38 110.21 C 76.05 120.59 76.75 132.22 82.53 141.41 C 86.64 147.97 93.06 152.67 99.88 156.13 C 95.41 150.91 89.81 145.24 90.51 137.77 C 96.13 142.79 101.10 148.67 107.74 152.44 C 118.35 159.39 131.67 161.41 144.01 158.81 C 136.47 158.50 128.75 156.03 123.74 150.12 C 137.52 149.18 150.36 142.59 160.11 132.97 C 154.06 136.09 147.38 138.57 140.46 137.33 C 147.32 130.87 154.58 124.49 158.93 115.94 C 165.32 105.02 165.49 91.89 163.10 79.79 C 173.80 91.67 171.07 109.50 163.24 122.13 C 169.07 116.88 172.35 109.62 176.37 103.04 C 177.03 112.10 176.28 121.62 171.85 129.74 C 167.57 138.44 159.70 144.44 151.88 149.77 C 160.57 148.06 167.84 142.80 175.12 138.07 C 171.22 147.41 165.64 156.19 157.96 162.88 C 144.89 174.36 126.79 179.15 109.64 177.79 C 86.67 175.33 65.29 161.24 53.75 141.28 C 50.54 136.25 49.78 129.87 45.52 125.51 C 43.15 122.83 40.57 119.79 40.63 115.99 C 41.47 112.17 45.36 109.24 44.50 105.02 C 43.27 100.00 40.22 94.96 41.66 89.63 C 43.83 84.71 49.42 82.57 52.02 77.97 C 53.48 73.06 51.34 67.49 53.85 62.85 C 57.50 57.28 65.18 59.71 70.21 56.39 M 122.39 71.42 C 119.32 73.68 123.13 78.55 126.18 76.21 C 129.56 73.89 125.33 68.58 122.39 71.42 Z" />
</g>
</svg>
