<?xml version="1.0" encoding="UTF-8" ?>
<!DOCTYPE svg PUBLIC "-//W3C//DTD SVG 1.1//EN" "http://www.w3.org/Graphics/SVG/1.1/DTD/svg11.dtd">
<svg width="374pt" height="442pt" viewBox="0 0 374 442" version="1.1" xmlns="http://www.w3.org/2000/svg">
<g id="#77ae64ff">
<path fill="#77ae64" opacity="1.00" d=" M 181.65 4.73 C 185.12 3.45 188.89 3.87 192.51 4.01 L 192.82 4.84 C 195.65 13.60 201.15 21.11 205.04 29.38 C 206.26 34.87 207.82 40.33 208.11 45.96 C 207.84 86.31 208.10 126.66 207.97 167.00 C 208.04 172.12 207.29 177.37 208.59 182.39 C 209.83 183.52 211.22 184.49 212.66 185.36 C 210.95 186.57 208.54 187.72 208.42 190.11 C 207.81 195.71 208.40 201.37 208.21 206.99 C 208.28 211.13 207.73 215.37 208.77 219.43 C 211.50 222.77 215.67 224.47 219.29 226.67 C 218.08 226.47 216.86 226.29 215.64 226.15 C 215.51 228.53 214.96 231.01 215.65 233.35 C 216.70 236.12 218.50 238.53 220.32 240.83 C 213.96 237.92 208.38 233.43 201.80 231.06 C 197.35 230.65 193.62 233.89 189.91 235.90 C 185.18 238.93 180.14 241.40 175.21 244.07 C 174.79 240.27 174.29 236.48 173.63 232.72 C 178.24 229.97 182.72 227.01 187.49 224.54 C 190.15 222.99 193.13 221.71 195.17 219.32 C 196.48 214.00 195.54 208.43 195.76 203.00 C 195.57 197.98 196.50 192.75 195.03 187.87 C 192.74 185.37 189.54 184.01 186.66 182.34 C 181.91 179.86 177.43 176.93 172.82 174.23 C 175.55 166.79 175.21 158.78 174.99 151.00 C 174.98 113.66 174.99 76.33 174.98 39.00 C 174.89 29.53 175.31 20.05 174.72 10.60 C 174.07 10.38 172.79 9.94 172.14 9.72 C 175.23 7.91 178.26 5.93 181.65 4.73 Z" />
</g>
<g id="#69a15dff">
<path fill="#69a15d" opacity="1.00" d=" M 192.82 4.84 C 197.36 5.83 201.31 8.33 205.21 10.73 C 218.82 18.68 232.55 26.42 246.13 34.42 C 244.73 34.79 243.34 35.17 241.96 35.56 C 246.26 42.90 252.06 49.16 256.95 56.08 C 273.30 78.67 290.09 100.93 306.67 123.35 C 313.58 132.33 319.80 141.83 326.97 150.61 C 328.65 150.09 330.34 149.60 332.03 149.09 C 329.17 154.46 326.36 159.85 323.17 165.02 C 320.62 167.72 317.96 170.32 315.44 173.05 C 311.08 167.58 306.98 161.89 302.51 156.50 C 294.42 146.17 287.51 134.97 279.18 124.82 C 261.48 100.85 243.86 76.82 226.09 52.90 C 223.03 48.67 219.88 44.50 216.32 40.67 C 219.70 49.78 225.00 57.97 229.49 66.54 C 234.45 76.15 240.36 85.23 245.02 95.00 C 248.96 103.07 254.06 110.73 256.31 119.52 C 257.83 127.22 255.98 135.35 258.93 142.82 C 254.65 140.21 250.12 138.04 245.65 135.79 C 243.82 149.20 245.35 162.78 244.80 176.27 C 243.52 175.78 242.24 175.25 240.97 174.73 C 239.53 169.96 238.76 164.99 238.87 160.00 C 239.15 139.32 238.79 118.64 239.11 97.97 C 239.17 93.73 238.47 89.41 236.31 85.71 C 233.48 80.72 230.78 75.66 228.55 70.37 C 224.25 60.43 218.18 51.40 213.23 41.79 C 211.06 37.31 208.16 33.25 205.04 29.38 C 201.15 21.11 195.65 13.60 192.82 4.84 Z" />
</g>
<g id="#79b55fff">
<path fill="#79b55f" opacity="1.00" d=" M 123.80 37.75 C 139.78 28.18 156.04 19.08 172.14 9.72 C 172.79 9.94 174.07 10.38 174.72 10.60 C 175.31 20.05 174.89 29.53 174.98 39.00 C 174.99 76.33 174.98 113.66 174.99 151.00 C 175.21 158.78 175.55 166.79 172.82 174.23 C 170.76 173.33 168.36 172.07 166.14 173.22 C 161.66 175.16 157.71 178.10 153.43 180.42 C 149.68 182.65 145.57 184.38 142.26 187.28 C 140.59 188.63 140.85 191.00 140.64 192.92 C 140.52 198.95 140.72 204.98 140.58 211.01 C 140.68 213.78 140.40 216.75 141.57 219.35 C 144.24 222.24 148.00 223.72 151.32 225.69 C 156.32 228.29 160.85 231.75 166.05 233.96 C 168.60 235.21 171.32 233.83 173.63 232.72 C 174.29 236.48 174.79 240.27 175.21 244.07 C 173.51 245.96 172.34 248.34 172.35 250.92 C 171.99 259.84 172.96 268.79 171.83 277.68 C 171.23 282.77 170.89 287.88 170.93 293.01 C 171.05 309.34 170.96 325.67 170.99 342.00 C 170.83 351.15 170.90 360.32 171.91 369.42 C 166.19 360.18 161.22 350.51 155.96 341.00 C 146.21 323.21 136.43 305.45 126.65 287.68 C 127.21 287.56 128.32 287.33 128.88 287.22 C 129.17 279.15 128.93 271.07 129.12 263.00 C 129.24 258.71 128.77 254.42 128.00 250.20 C 125.73 260.17 127.99 270.43 126.41 280.48 C 124.67 276.91 123.63 273.01 123.85 269.02 C 124.26 255.33 123.64 241.63 124.32 227.94 C 125.69 228.14 127.06 228.33 128.43 228.50 C 128.83 218.00 128.40 207.50 128.71 197.00 C 128.65 193.96 128.96 190.80 128.02 187.86 C 126.59 185.85 124.32 184.68 122.26 183.43 C 124.25 178.18 124.38 172.54 124.08 167.00 C 123.77 123.92 124.33 80.83 123.80 37.75 Z" />
</g>
<g id="#73a863ff">
<path fill="#73a863" opacity="1.00" d=" M 205.04 29.38 C 208.16 33.25 211.06 37.31 213.23 41.79 C 218.18 51.40 224.25 60.43 228.55 70.37 C 230.78 75.66 233.48 80.72 236.31 85.71 C 238.47 89.41 239.17 93.73 239.11 97.97 C 238.79 118.64 239.15 139.32 238.87 160.00 C 238.76 164.99 239.53 169.96 240.97 174.73 C 238.20 173.68 234.99 172.36 232.22 174.16 C 225.62 177.74 219.25 181.75 212.66 185.36 C 211.22 184.49 209.83 183.52 208.59 182.39 C 207.29 177.37 208.04 172.12 207.97 167.00 C 208.10 126.66 207.84 86.31 208.11 45.96 C 207.82 40.33 206.26 34.87 205.04 29.38 Z" />
</g>
<g id="#70a561ff">
<path fill="#70a561" opacity="1.00" d=" M 241.96 35.56 C 243.34 35.17 244.73 34.79 246.13 34.42 C 275.91 51.43 305.55 68.68 335.29 85.73 C 343.01 90.54 351.37 94.32 358.63 99.86 C 350.50 116.66 340.73 132.59 332.03 149.09 C 330.34 149.60 328.65 150.09 326.97 150.61 C 319.80 141.83 313.58 132.33 306.67 123.35 C 290.09 100.93 273.30 78.67 256.95 56.08 C 252.06 49.16 246.26 42.90 241.96 35.56 Z" />
</g>
<g id="#75bb5aff">
<path fill="#75bb5a" opacity="1.00" d=" M 94.52 54.59 C 104.16 48.77 113.94 43.19 123.80 37.75 C 124.33 80.83 123.77 123.92 124.08 167.00 C 124.38 172.54 124.25 178.18 122.26 183.43 C 115.95 180.31 110.14 176.29 103.87 173.11 C 99.85 170.80 95.91 174.31 92.48 176.14 C 94.43 169.26 94.21 162.07 94.02 155.00 C 93.97 128.67 94.05 102.33 93.99 76.00 C 93.86 68.86 94.02 61.72 94.52 54.59 Z" />
<path fill="#75bb5a" opacity="1.00" d=" M 100.32 193.57 C 103.86 193.58 107.37 195.70 109.42 198.52 C 111.48 205.21 108.74 212.51 110.90 219.15 C 114.84 222.80 119.98 224.81 124.32 227.94 C 123.64 241.63 124.26 255.33 123.85 269.02 C 123.63 273.01 124.67 276.91 126.41 280.48 C 127.99 270.43 125.73 260.17 128.00 250.20 C 128.77 254.42 129.24 258.71 129.12 263.00 C 128.93 271.07 129.17 279.15 128.88 287.22 C 128.32 287.33 127.21 287.56 126.65 287.68 C 117.75 271.74 109.14 255.64 100.32 239.66 C 96.93 233.38 93.32 227.22 90.20 220.79 C 92.79 213.83 90.86 206.35 92.02 199.21 C 93.39 196.02 97.09 194.30 100.32 193.57 Z" />
</g>
<g id="#629a58ff">
<path fill="#629a58" opacity="1.00" d=" M 216.32 40.67 C 219.88 44.50 223.03 48.67 226.09 52.90 C 243.86 76.82 261.48 100.85 279.18 124.82 C 287.51 134.97 294.42 146.17 302.51 156.50 C 306.98 161.89 311.08 167.58 315.44 173.05 C 317.96 170.32 320.62 167.72 323.17 165.02 C 320.86 169.71 318.63 174.45 315.99 178.97 C 312.42 176.90 309.04 174.43 305.17 172.93 C 302.86 171.88 300.53 173.42 298.51 174.42 C 293.43 177.37 288.48 180.52 283.27 183.23 C 280.80 184.70 277.96 185.93 276.26 188.35 C 275.11 193.13 275.81 198.12 275.67 203.00 C 275.84 208.21 275.08 213.54 276.24 218.67 C 277.75 221.50 281.08 222.71 283.70 224.34 C 280.78 231.57 282.01 239.43 281.92 247.00 C 281.87 275.00 281.94 303.00 281.89 331.00 C 281.70 338.12 281.71 345.29 283.01 352.32 C 281.87 352.99 280.75 353.67 279.62 354.35 C 277.24 355.74 274.86 357.13 272.47 358.51 C 267.69 361.16 262.92 363.84 258.16 366.54 C 256.19 357.14 257.08 347.52 256.98 338.00 C 256.91 305.66 257.04 273.33 256.92 241.00 C 257.04 234.68 255.48 227.27 260.31 222.21 C 262.49 220.06 263.72 217.17 263.49 214.07 C 263.31 192.69 263.45 171.30 263.43 149.91 C 263.82 146.67 261.60 144.24 258.93 142.82 C 255.98 135.35 257.83 127.22 256.31 119.52 C 254.06 110.73 248.96 103.07 245.02 95.00 C 240.36 85.23 234.45 76.15 229.49 66.54 C 225.00 57.97 219.70 49.78 216.32 40.67 Z" />
</g>
<g id="#70bd53ff">
<path fill="#70bd53" opacity="1.00" d=" M 69.83 68.82 C 77.98 63.94 86.19 59.17 94.52 54.59 C 94.02 61.72 93.86 68.86 93.99 76.00 C 94.05 102.33 93.97 128.67 94.02 155.00 C 94.21 162.07 94.43 169.26 92.48 176.14 C 85.82 180.17 78.81 183.64 72.55 188.30 C 71.35 185.92 69.95 183.64 68.60 181.34 C 70.17 175.70 70.33 169.82 70.07 164.00 C 69.81 132.28 70.29 100.54 69.83 68.82 Z" />
</g>
<g id="#6ec04bff">
<path fill="#6ec04b" opacity="1.00" d=" M 21.62 96.54 C 37.65 87.24 53.68 77.92 69.83 68.82 C 70.29 100.54 69.81 132.28 70.07 164.00 C 70.33 169.82 70.17 175.70 68.60 181.34 C 66.49 177.80 64.41 174.24 62.34 170.67 C 48.74 145.98 35.51 121.07 21.62 96.54 Z" />
</g>
<g id="#5c9653ff">
<path fill="#5c9653" opacity="1.00" d=" M 12.73 107.85 C 13.85 102.94 17.53 99.20 21.62 96.54 C 35.51 121.07 48.74 145.98 62.34 170.67 C 62.04 172.09 61.76 173.51 61.46 174.93 C 57.25 173.59 53.11 171.99 49.27 169.79 C 37.35 163.54 25.18 157.77 13.10 151.83 C 12.98 137.17 12.94 122.51 12.73 107.85 Z" />
</g>
<g id="#40863fff">
<path fill="#40863f" opacity="1.00" d=" M 358.63 99.86 C 361.44 103.68 363.91 108.03 363.70 112.94 C 363.74 173.31 363.69 233.69 363.77 294.07 C 363.75 297.36 363.37 300.78 361.66 303.67 C 359.20 308.15 354.79 311.03 350.46 313.48 C 336.12 321.50 322.05 329.98 307.72 337.99 C 307.00 330.68 306.97 323.33 307.08 316.00 C 307.11 298.00 307.07 280.00 307.10 262.00 C 307.17 252.34 306.66 242.65 307.63 233.01 C 312.14 230.60 316.49 227.91 320.87 225.28 C 326.17 230.66 328.79 237.91 332.70 244.24 C 340.46 258.40 348.68 272.30 356.49 286.43 C 358.29 289.61 360.50 292.54 362.81 295.37 C 363.86 283.94 363.05 272.45 363.14 261.00 C 362.84 249.12 363.34 237.24 362.68 225.37 C 349.71 218.33 335.98 212.72 323.32 205.13 C 323.75 204.03 324.21 202.94 324.70 201.87 C 326.73 200.59 328.92 199.42 330.49 197.55 C 331.37 194.39 331.51 190.78 330.27 187.71 C 326.05 184.01 320.67 182.00 315.99 178.97 C 318.63 174.45 320.86 169.71 323.17 165.02 C 326.36 159.85 329.17 154.46 332.03 149.09 C 340.73 132.59 350.50 116.66 358.63 99.86 Z" />
</g>
<g id="#69a45bff">
<path fill="#69a45b" opacity="1.00" d=" M 12.18 114.96 C 12.22 112.58 12.42 110.21 12.73 107.85 C 12.94 122.51 12.98 137.17 13.10 151.83 C 13.10 159.89 13.09 167.95 12.94 176.01 C 12.99 178.81 12.82 181.71 13.68 184.41 C 15.02 186.45 17.45 187.35 19.54 188.39 C 23.93 190.24 28.26 192.21 32.41 194.55 C 37.91 197.64 44.04 199.38 49.54 202.47 C 55.37 205.72 61.71 208.00 67.22 211.84 C 65.69 215.91 64.49 220.08 63.12 224.20 C 54.38 240.65 44.47 256.45 35.17 272.57 C 31.84 272.41 28.33 272.39 25.35 270.69 C 21.40 268.56 17.52 266.30 13.39 264.54 C 12.31 276.35 12.64 288.23 12.69 300.07 C 11.89 294.41 12.21 288.69 12.18 283.00 C 12.09 226.99 12.23 170.98 12.18 114.96 Z" />
</g>
<g id="#ffffffff">
<path fill="#ffffff" opacity="1.00" d=" M 245.65 135.79 C 250.12 138.04 254.65 140.21 258.93 142.82 C 261.60 144.24 263.82 146.67 263.43 149.91 C 263.45 171.30 263.31 192.69 263.49 214.07 C 263.72 217.17 262.49 220.06 260.31 222.21 C 255.56 224.79 250.71 227.19 246.15 230.11 C 242.88 232.00 239.70 234.36 235.93 235.11 C 229.74 233.83 224.95 229.23 219.29 226.67 C 215.67 224.47 211.50 222.77 208.77 219.43 C 207.73 215.37 208.28 211.13 208.21 206.99 C 208.40 201.37 207.81 195.71 208.42 190.11 C 208.54 187.72 210.95 186.57 212.66 185.36 C 219.25 181.75 225.62 177.74 232.22 174.16 C 234.99 172.36 238.20 173.68 240.97 174.73 C 242.24 175.25 243.52 175.78 244.80 176.27 C 245.35 162.78 243.82 149.20 245.65 135.79 M 226.57 198.90 C 226.60 202.29 226.59 205.69 226.56 209.09 C 229.55 210.95 232.37 213.49 235.95 214.09 C 239.12 213.16 241.83 211.17 244.71 209.60 C 244.80 205.89 244.80 202.17 244.65 198.46 C 241.71 196.85 238.80 195.22 235.92 193.53 C 232.70 195.13 229.57 196.92 226.57 198.90 Z" />
<path fill="#ffffff" opacity="1.00" d=" M 92.48 176.14 C 95.91 174.31 99.85 170.80 103.87 173.11 C 110.14 176.29 115.95 180.31 122.26 183.43 C 124.32 184.68 126.59 185.85 128.02 187.86 C 128.96 190.80 128.65 193.96 128.71 197.00 C 128.40 207.50 128.83 218.00 128.43 228.50 C 127.06 228.33 125.69 228.14 124.32 227.94 C 119.98 224.81 114.84 222.80 110.90 219.15 C 108.74 212.51 111.48 205.21 109.42 198.52 C 107.37 195.70 103.86 193.58 100.32 193.57 C 97.09 194.30 93.39 196.02 92.02 199.21 C 90.86 206.35 92.79 213.83 90.20 220.79 C 84.54 223.28 79.26 226.53 73.72 229.28 C 73.02 222.43 73.00 215.54 73.04 208.67 C 73.17 201.88 73.61 195.03 72.55 188.30 C 78.81 183.64 85.82 180.17 92.48 176.14 Z" />
<path fill="#ffffff" opacity="1.00" d=" M 166.14 173.22 C 168.36 172.07 170.76 173.33 172.82 174.23 C 177.43 176.93 181.91 179.86 186.66 182.34 C 189.54 184.01 192.74 185.37 195.03 187.87 C 196.50 192.75 195.57 197.98 195.76 203.00 C 195.54 208.43 196.48 214.00 195.17 219.32 C 193.13 221.71 190.15 222.99 187.49 224.54 C 182.72 227.01 178.24 229.97 173.63 232.72 C 171.32 233.83 168.60 235.21 166.05 233.96 C 160.85 231.75 156.32 228.29 151.32 225.69 C 148.00 223.72 144.24 222.24 141.57 219.35 C 140.40 216.75 140.68 213.78 140.58 211.01 C 140.72 204.98 140.52 198.95 140.64 192.92 C 140.85 191.00 140.59 188.63 142.26 187.28 C 145.57 184.38 149.68 182.65 153.43 180.42 C 157.71 178.10 161.66 175.16 166.14 173.22 Z" />
<path fill="#ffffff" opacity="1.00" d=" M 298.51 174.42 C 300.53 173.42 302.86 171.88 305.17 172.93 C 309.04 174.43 312.42 176.90 315.99 178.97 C 320.67 182.00 326.05 184.01 330.27 187.71 C 331.51 190.78 331.37 194.39 330.49 197.55 C 328.92 199.42 326.73 200.59 324.70 201.87 C 320.89 204.05 317.00 206.10 313.08 208.09 C 312.25 204.19 313.29 198.95 309.45 196.47 C 306.91 194.76 303.58 192.69 300.53 194.40 C 297.80 195.77 294.20 197.48 294.09 201.00 C 293.88 204.20 293.24 208.57 296.62 210.39 C 304.49 215.68 313.59 219.10 320.87 225.28 C 316.49 227.91 312.14 230.60 307.63 233.01 C 304.45 235.17 300.67 234.35 297.66 232.31 C 293.04 229.59 288.47 226.78 283.70 224.34 C 281.08 222.71 277.75 221.50 276.24 218.67 C 275.08 213.54 275.84 208.21 275.67 203.00 C 275.81 198.12 275.11 193.13 276.26 188.35 C 277.96 185.93 280.80 184.70 283.27 183.23 C 288.48 180.52 293.43 177.37 298.51 174.42 Z" />
<path fill="#ffffff" opacity="1.00" d=" M 297.75 203.02 C 297.50 199.99 300.55 198.48 303.00 197.77 C 304.99 198.31 306.82 199.30 308.67 200.20 C 308.65 202.40 308.65 204.60 308.68 206.80 C 306.83 207.72 305.00 208.70 303.01 209.27 C 300.16 208.59 297.08 206.35 297.75 203.02 Z" />
</g>
<g id="#639d59ff">
<path fill="#639d59" opacity="1.00" d=" M 13.10 151.83 C 25.18 157.77 37.35 163.54 49.27 169.79 C 53.11 171.99 57.25 173.59 61.46 174.93 C 61.76 173.51 62.04 172.09 62.34 170.67 C 64.41 174.24 66.49 177.80 68.60 181.34 C 69.95 183.64 71.35 185.92 72.55 188.30 C 73.61 195.03 73.17 201.88 73.04 208.67 C 69.93 213.97 66.27 218.93 63.12 224.20 C 64.49 220.08 65.69 215.91 67.22 211.84 C 61.71 208.00 55.37 205.72 49.54 202.47 C 44.04 199.38 37.91 197.64 32.41 194.55 C 28.26 192.21 23.93 190.24 19.54 188.39 C 17.45 187.35 15.02 186.45 13.68 184.41 C 12.82 181.71 12.99 178.81 12.94 176.01 C 13.09 167.95 13.10 159.89 13.10 151.83 Z" />
</g>
<g id="#4f8e48ff">
<path fill="#4f8e48" opacity="1.00" d=" M 300.53 194.40 C 303.58 192.69 306.91 194.76 309.45 196.47 C 313.29 198.95 312.25 204.19 313.08 208.09 C 317.00 206.10 320.89 204.05 324.70 201.87 C 324.21 202.94 323.75 204.03 323.32 205.13 C 335.98 212.72 349.71 218.33 362.68 225.37 C 363.34 237.24 362.84 249.12 363.14 261.00 C 363.05 272.45 363.86 283.94 362.81 295.37 C 360.50 292.54 358.29 289.61 356.49 286.43 C 348.68 272.30 340.46 258.40 332.70 244.24 C 328.79 237.91 326.17 230.66 320.87 225.28 C 313.59 219.10 304.49 215.68 296.62 210.39 C 293.24 208.57 293.88 204.20 294.09 201.00 C 294.20 197.48 297.80 195.77 300.53 194.40 M 297.75 203.02 C 297.08 206.35 300.16 208.59 303.01 209.27 C 305.00 208.70 306.83 207.72 308.68 206.80 C 308.65 204.60 308.65 202.40 308.67 200.20 C 306.82 199.30 304.99 198.31 303.00 197.77 C 300.55 198.48 297.50 199.99 297.75 203.02 Z" />
</g>
<g id="#6ea460ff">
<path fill="#6ea460" opacity="1.00" d=" M 226.57 198.90 C 229.57 196.92 232.70 195.13 235.92 193.53 C 238.80 195.22 241.71 196.85 244.65 198.46 C 244.80 202.17 244.80 205.89 244.71 209.60 C 241.83 211.17 239.12 213.16 235.95 214.09 C 232.37 213.49 229.55 210.95 226.56 209.09 C 226.59 205.69 226.60 202.29 226.57 198.90 Z" />
</g>
<g id="#3e863dff">
<path fill="#3e863d" opacity="1.00" d=" M 63.12 224.20 C 66.27 218.93 69.93 213.97 73.04 208.67 C 73.00 215.54 73.02 222.43 73.72 229.28 C 79.26 226.53 84.54 223.28 90.20 220.79 C 93.32 227.22 96.93 233.38 100.32 239.66 C 109.14 255.64 117.75 271.74 126.65 287.68 C 136.43 305.45 146.21 323.21 155.96 341.00 C 161.22 350.51 166.19 360.18 171.91 369.42 C 176.85 380.19 183.40 390.12 188.60 400.76 C 189.12 401.84 189.63 402.94 190.15 404.03 C 187.88 404.07 185.61 404.09 183.34 404.03 C 175.67 400.53 168.59 395.91 161.25 391.80 C 141.93 380.76 122.75 369.48 103.41 358.47 C 100.84 357.02 98.26 355.58 95.69 354.11 C 88.95 350.18 82.30 346.10 75.46 342.36 C 57.99 332.19 40.47 322.10 22.93 312.05 C 19.93 310.37 17.43 307.98 15.10 305.49 C 22.48 294.95 28.72 283.69 35.17 272.57 C 44.47 256.45 54.38 240.65 63.12 224.20 Z" />
</g>
<g id="#6da360ff">
<path fill="#6da360" opacity="1.00" d=" M 246.15 230.11 C 250.71 227.19 255.56 224.79 260.31 222.21 C 255.48 227.27 257.04 234.68 256.92 241.00 C 257.04 273.33 256.91 305.66 256.98 338.00 C 257.08 347.52 256.19 357.14 258.16 366.54 C 246.55 373.50 234.74 380.13 223.01 386.91 C 223.80 381.31 224.19 375.65 224.09 370.00 C 223.83 340.60 224.30 311.20 223.84 281.81 C 225.93 280.40 228.46 278.72 228.54 275.90 C 229.11 269.95 228.53 263.97 228.76 258.01 C 228.67 254.28 229.21 250.41 228.04 246.82 C 226.20 244.04 223.02 242.61 220.32 240.83 C 218.50 238.53 216.70 236.12 215.65 233.35 C 214.96 231.01 215.51 228.53 215.64 226.15 C 216.86 226.29 218.08 226.47 219.29 226.67 C 224.95 229.23 229.74 233.83 235.93 235.11 C 239.70 234.36 242.88 232.00 246.15 230.11 M 236.31 242.37 C 233.38 242.86 230.99 245.78 231.95 248.80 C 232.74 253.34 240.09 253.60 241.56 249.39 C 243.16 246.07 239.83 241.92 236.31 242.37 Z" />
</g>
<g id="#57944fff">
<path fill="#57944f" opacity="1.00" d=" M 281.92 247.00 C 282.01 239.43 280.78 231.57 283.70 224.34 C 288.47 226.78 293.04 229.59 297.66 232.31 C 294.83 239.23 296.10 246.76 295.99 254.00 C 295.96 276.67 295.99 299.33 295.97 322.00 C 295.85 329.43 295.71 336.91 296.84 344.28 C 292.20 346.90 287.61 349.64 283.01 352.32 C 281.71 345.29 281.70 338.12 281.89 331.00 C 281.94 303.00 281.87 275.00 281.92 247.00 Z" />
</g>
<g id="#fefefeff">
<path fill="#fefefe" opacity="1.00" d=" M 189.91 235.90 C 193.62 233.89 197.35 230.65 201.80 231.06 C 208.38 233.43 213.96 237.92 220.32 240.83 C 223.02 242.61 226.20 244.04 228.04 246.82 C 229.21 250.41 228.67 254.28 228.76 258.01 C 228.53 263.97 229.11 269.95 228.54 275.90 C 228.46 278.72 225.93 280.40 223.84 281.81 C 218.43 284.69 213.04 287.61 207.85 290.89 C 204.55 293.10 200.53 294.39 196.61 293.11 C 194.12 291.45 191.81 289.54 189.57 287.57 C 193.48 286.27 197.16 288.13 200.88 289.06 C 204.19 288.65 206.90 286.36 209.78 284.83 C 214.10 282.09 218.87 280.08 222.92 276.94 C 224.84 275.64 224.55 273.10 224.71 271.09 C 224.79 263.55 224.61 256.01 224.53 248.47 C 218.17 244.81 211.85 241.09 205.51 237.39 C 203.50 236.39 201.19 234.76 198.88 235.88 C 193.50 238.24 188.72 241.75 183.50 244.44 C 180.66 246.22 176.44 247.88 176.71 251.92 C 176.61 259.55 176.19 267.26 177.00 274.86 C 178.64 279.34 184.12 280.17 188.27 280.82 C 189.32 270.83 188.42 260.79 188.90 250.78 C 190.33 250.74 191.76 250.74 193.19 250.77 C 193.32 259.54 193.60 268.31 193.30 277.08 C 193.22 280.12 192.25 284.10 188.70 284.68 C 182.21 285.83 176.73 281.24 171.83 277.68 C 172.96 268.79 171.99 259.84 172.35 250.92 C 172.34 248.34 173.51 245.96 175.21 244.07 C 180.14 241.40 185.18 238.93 189.91 235.90 Z" />
</g>
<g id="#4e8f49ff">
<path fill="#4e8f49" opacity="1.00" d=" M 295.99 254.00 C 296.10 246.76 294.83 239.23 297.66 232.31 C 300.67 234.35 304.45 235.17 307.63 233.01 C 306.66 242.65 307.17 252.34 307.10 262.00 C 307.07 280.00 307.11 298.00 307.08 316.00 C 306.97 323.33 307.00 330.68 307.72 337.99 C 305.35 339.46 302.98 340.90 300.55 342.25 C 299.32 342.94 298.07 343.60 296.84 344.28 C 295.71 336.91 295.85 329.43 295.97 322.00 C 295.99 299.33 295.96 276.67 295.99 254.00 Z" />
</g>
<g id="#78b064ff">
<path fill="#78b064" opacity="1.00" d=" M 198.88 235.88 C 201.19 234.76 203.50 236.39 205.51 237.39 C 211.85 241.09 218.17 244.81 224.53 248.47 C 224.61 256.01 224.79 263.55 224.71 271.09 C 224.55 273.10 224.84 275.64 222.92 276.94 C 218.87 280.08 214.10 282.09 209.78 284.83 C 206.90 286.36 204.19 288.65 200.88 289.06 C 197.16 288.13 193.48 286.27 189.57 287.57 C 191.81 289.54 194.12 291.45 196.61 293.11 C 195.49 302.70 196.12 312.37 196.00 322.00 C 196.01 342.00 195.97 362.00 196.01 382.00 C 195.94 387.50 196.68 393.11 195.44 398.53 C 194.61 401.44 190.84 400.28 188.60 400.76 C 183.40 390.12 176.85 380.19 171.91 369.42 C 170.90 360.32 170.83 351.15 170.99 342.00 C 170.96 325.67 171.05 309.34 170.93 293.01 C 170.89 287.88 171.23 282.77 171.83 277.68 C 176.73 281.24 182.21 285.83 188.70 284.68 C 192.25 284.10 193.22 280.12 193.30 277.08 C 193.60 268.31 193.32 259.54 193.19 250.77 C 191.76 250.74 190.33 250.74 188.90 250.78 C 188.42 260.79 189.32 270.83 188.27 280.82 C 184.12 280.17 178.64 279.34 177.00 274.86 C 176.19 267.26 176.61 259.55 176.71 251.92 C 176.44 247.88 180.66 246.22 183.50 244.44 C 188.72 241.75 193.50 238.24 198.88 235.88 M 198.90 251.94 C 195.05 254.47 195.25 261.49 199.92 263.02 C 204.99 264.83 210.72 264.29 215.50 267.10 C 214.78 268.20 214.01 269.27 213.30 270.38 C 210.97 271.96 207.91 271.85 205.22 271.60 C 202.12 271.35 200.43 268.42 198.53 266.35 C 197.37 266.39 196.22 266.44 195.07 266.50 C 195.80 268.98 196.14 271.98 198.62 273.41 C 203.50 276.48 210.08 276.43 215.30 274.25 C 220.14 272.33 221.18 264.12 215.98 262.04 C 211.25 260.25 206.10 260.03 201.21 258.85 C 201.16 257.57 201.13 256.28 201.11 255.00 C 204.20 254.45 207.53 253.16 210.59 254.46 C 213.21 256.35 215.49 259.59 219.19 258.38 C 217.94 255.69 217.05 252.26 214.02 251.03 C 209.25 249.09 203.30 249.04 198.90 251.94 Z" />
</g>
<g id="#9ec397ff">
<path fill="#9ec397" opacity="1.00" d=" M 236.31 242.37 C 239.83 241.92 243.16 246.07 241.56 249.39 C 240.09 253.60 232.74 253.34 231.95 248.80 C 230.99 245.78 233.38 242.86 236.31 242.37 Z" />
</g>
<g id="#fefefdff">
<path fill="#fefefd" opacity="1.00" d=" M 198.90 251.94 C 203.30 249.04 209.25 249.09 214.02 251.03 C 217.05 252.26 217.94 255.69 219.19 258.38 C 215.49 259.59 213.21 256.35 210.59 254.46 C 207.53 253.16 204.20 254.45 201.11 255.00 C 201.13 256.28 201.16 257.57 201.21 258.85 C 206.10 260.03 211.25 260.25 215.98 262.04 C 221.18 264.12 220.14 272.33 215.30 274.25 C 210.08 276.43 203.50 276.48 198.62 273.41 C 196.14 271.98 195.80 268.98 195.07 266.50 C 196.22 266.44 197.37 266.39 198.53 266.35 C 200.43 268.42 202.12 271.35 205.22 271.60 C 207.91 271.85 210.97 271.96 213.30 270.38 C 214.01 269.27 214.78 268.20 215.50 267.10 C 210.72 264.29 204.99 264.83 199.92 263.02 C 195.25 261.49 195.05 254.47 198.90 251.94 Z" />
</g>
<g id="#5fac4bff">
<path fill="#5fac4b" opacity="1.00" d=" M 13.39 264.54 C 17.52 266.30 21.40 268.56 25.35 270.69 C 28.33 272.39 31.84 272.41 35.17 272.57 C 28.72 283.69 22.48 294.95 15.10 305.49 C 14.25 303.70 13.31 301.95 12.69 300.07 C 12.64 288.23 12.31 276.35 13.39 264.54 Z" />
</g>
<g id="#74ab64ff">
<path fill="#74ab64" opacity="1.00" d=" M 207.85 290.89 C 213.04 287.61 218.43 284.69 223.84 281.81 C 224.30 311.20 223.83 340.60 224.09 370.00 C 224.19 375.65 223.80 381.31 223.01 386.91 C 212.87 392.53 203.16 399.00 192.67 403.96 C 192.04 403.98 190.78 404.01 190.15 404.03 C 189.63 402.94 189.12 401.84 188.60 400.76 C 190.84 400.28 194.61 401.44 195.44 398.53 C 196.68 393.11 195.94 387.50 196.01 382.00 C 195.97 362.00 196.01 342.00 196.00 322.00 C 196.12 312.37 195.49 302.70 196.61 293.11 C 200.53 294.39 204.55 293.10 207.85 290.89 Z" />
</g>
<g id="#0000001a">
</g>
<g id="#00000035">
</g>
<g id="#00000048">
</g>
</svg>
