<?xml version="1.0" encoding="UTF-8" ?>
<!DOCTYPE svg PUBLIC "-//W3C//DTD SVG 1.1//EN" "http://www.w3.org/Graphics/SVG/1.1/DTD/svg11.dtd">
<svg width="300pt" height="300pt" viewBox="0 0 300 300" version="1.1" xmlns="http://www.w3.org/2000/svg">
<g id="#ffffffff">
<path fill="#ffffff" opacity="1.00" d=" M 141.81 132.79 C 142.49 129.60 146.18 128.96 148.92 129.03 C 161.33 129.03 173.73 129.10 186.13 129.03 C 199.78 128.97 213.43 128.99 227.08 129.00 C 230.05 128.85 234.29 130.28 233.79 133.98 C 233.87 144.94 233.82 155.91 233.77 166.87 C 232.02 167.93 230.22 169.17 228.06 169.04 C 214.67 169.16 201.26 168.97 187.87 169.10 C 186.36 169.14 184.86 169.18 183.36 169.25 C 174.01 169.05 164.65 168.96 155.30 169.14 C 150.91 168.73 144.38 170.71 141.94 165.82 C 141.07 161.01 141.67 156.09 141.54 151.23 C 141.63 145.08 141.54 138.92 141.81 132.79 M 146.00 134.00 C 146.00 144.00 145.99 154.00 146.00 164.00 C 148.00 164.00 150.00 164.00 151.99 164.00 C 152.00 160.33 152.00 156.66 152.01 152.99 C 157.46 152.82 164.50 154.31 168.26 149.23 C 172.47 144.13 169.32 135.55 162.94 134.14 C 157.31 133.72 151.65 134.14 146.00 134.00 M 173.00 134.00 C 173.00 144.00 173.00 154.00 173.00 164.00 C 180.63 163.37 189.99 166.34 195.80 159.77 C 201.06 152.64 200.38 140.53 192.63 135.37 C 186.45 132.74 179.51 134.49 173.00 134.00 M 212.36 134.33 C 201.11 136.65 198.63 152.49 205.86 160.14 C 212.52 166.51 225.56 165.29 229.61 156.55 C 232.19 150.57 231.75 142.77 227.14 137.86 C 223.27 134.14 217.47 133.17 212.36 134.33 Z" />
<path fill="#ffffff" opacity="1.00" d=" M 152.00 140.00 C 155.20 140.00 158.40 140.00 161.60 140.01 C 162.38 140.80 163.17 141.60 163.95 142.40 C 163.99 143.02 164.06 144.28 164.09 144.90 C 160.57 147.54 156.13 147.10 152.00 147.00 C 152.00 144.66 152.00 142.33 152.00 140.00 Z" />
<path fill="#ffffff" opacity="1.00" d=" M 179.00 140.00 C 182.95 140.15 187.71 139.01 190.78 142.22 C 194.25 145.81 193.34 151.50 191.67 155.73 C 188.51 159.31 183.18 157.69 179.00 157.98 C 179.00 151.99 179.00 146.00 179.00 140.00 Z" />
<path fill="#ffffff" opacity="1.00" d=" M 213.31 140.31 C 219.51 137.88 226.57 143.36 225.08 150.04 C 225.54 157.86 214.29 160.94 209.74 155.25 C 206.32 150.68 207.28 142.23 213.31 140.31 Z" />
</g>
<g id="#ef1156ff">
<path fill="#ef1156" opacity="1.00" d=" M 149.33 25.31 C 154.39 24.57 159.03 27.72 163.69 29.28 C 196.35 43.58 227.96 60.15 259.69 76.38 C 269.19 81.61 278.53 90.38 278.94 101.93 C 279.02 134.63 278.92 167.34 278.99 200.04 C 279.22 211.23 270.27 220.13 261.04 225.09 C 229.08 242.04 197.24 259.30 164.32 274.34 C 158.21 276.94 151.28 281.01 144.73 277.22 C 109.36 262.03 75.72 243.20 41.64 225.38 C 32.19 220.37 23.17 211.41 23.02 200.05 C 23.07 167.68 22.98 135.30 23.07 102.93 C 23.29 91.08 32.50 81.73 42.38 76.47 C 70.92 61.77 99.46 46.99 128.66 33.63 C 135.47 30.68 142.17 27.33 149.33 25.31 M 150.32 38.28 C 116.53 51.96 84.52 69.63 51.91 85.86 C 44.84 89.47 36.82 95.16 36.81 103.97 C 36.68 135.65 36.79 167.34 36.75 199.02 C 36.60 206.50 43.17 211.77 49.20 214.94 C 80.70 231.72 112.18 248.61 144.63 263.50 C 147.74 264.91 151.33 266.93 154.64 264.84 C 187.84 249.62 220.11 232.48 252.32 215.31 C 258.43 211.91 265.77 206.87 265.46 199.01 C 265.43 167.33 265.46 135.65 265.44 103.97 C 265.42 96.52 259.35 90.96 253.35 87.51 C 221.88 71.38 190.53 54.91 158.12 40.73 C 155.61 39.78 153.09 38.05 150.32 38.28 Z" />
<path fill="#ef1156" opacity="1.00" d=" M 100.22 94.45 C 124.40 90.09 149.80 90.42 173.36 97.83 C 178.92 99.92 185.86 102.77 187.63 108.99 C 187.36 115.61 189.29 122.91 186.13 129.03 C 173.73 129.10 161.33 129.03 148.92 129.03 C 146.18 128.96 142.49 129.60 141.81 132.79 C 141.08 135.75 141.28 138.84 141.18 141.87 C 121.99 142.37 102.23 141.66 84.09 134.78 C 79.24 132.60 72.64 129.39 73.23 123.06 C 73.85 116.66 70.99 108.47 76.75 103.75 C 83.34 98.21 92.08 96.43 100.22 94.45 M 115.25 100.19 C 103.95 101.64 91.76 102.85 82.03 109.23 C 82.18 112.84 87.30 113.59 90.05 115.03 C 112.76 121.95 137.27 122.05 160.49 117.72 C 166.91 116.36 173.74 114.99 178.97 110.75 C 179.53 108.11 175.97 107.55 174.24 106.49 C 155.52 99.47 135.00 98.59 115.25 100.19 Z" />
<path fill="#ef1156" opacity="1.00" d=" M 146.00 134.00 C 151.65 134.14 157.31 133.72 162.94 134.14 C 169.32 135.55 172.47 144.13 168.26 149.23 C 164.50 154.31 157.46 152.82 152.01 152.99 C 152.00 156.66 152.00 160.33 151.99 164.00 C 150.00 164.00 148.00 164.00 146.00 164.00 C 145.99 154.00 146.00 144.00 146.00 134.00 M 152.00 140.00 C 152.00 142.33 152.00 144.66 152.00 147.00 C 156.13 147.10 160.57 147.54 164.09 144.90 C 164.06 144.28 163.99 143.02 163.95 142.40 C 163.17 141.60 162.38 140.80 161.60 140.01 C 158.40 140.00 155.20 140.00 152.00 140.00 Z" />
<path fill="#ef1156" opacity="1.00" d=" M 173.00 134.00 C 179.51 134.49 186.45 132.74 192.63 135.37 C 200.38 140.53 201.06 152.64 195.80 159.77 C 189.99 166.34 180.63 163.37 173.00 164.00 C 173.00 154.00 173.00 144.00 173.00 134.00 M 179.00 140.00 C 179.00 146.00 179.00 151.99 179.00 157.98 C 183.18 157.69 188.51 159.31 191.67 155.73 C 193.34 151.50 194.25 145.81 190.78 142.22 C 187.71 139.01 182.95 140.15 179.00 140.00 Z" />
<path fill="#ef1156" opacity="1.00" d=" M 212.36 134.33 C 217.47 133.17 223.27 134.14 227.14 137.86 C 231.75 142.77 232.19 150.57 229.61 156.55 C 225.56 165.29 212.52 166.51 205.86 160.14 C 198.63 152.49 201.11 136.65 212.36 134.33 M 213.31 140.31 C 207.28 142.23 206.32 150.68 209.74 155.25 C 214.29 160.94 225.54 157.86 225.08 150.04 C 226.57 143.36 219.51 137.88 213.31 140.31 Z" />
<path fill="#ef1156" opacity="1.00" d=" M 73.34 138.09 C 93.57 150.56 118.29 153.09 141.54 151.23 C 141.67 156.09 141.07 161.01 141.94 165.82 C 144.38 170.71 150.91 168.73 155.30 169.14 C 147.73 171.75 139.60 170.69 131.76 171.32 C 116.06 171.19 100.08 169.91 85.19 164.62 C 80.65 162.83 75.64 160.31 73.58 155.62 C 72.71 149.83 73.41 143.93 73.34 138.09 Z" />
<path fill="#ef1156" opacity="1.00" d=" M 73.31 166.95 C 89.89 177.10 109.59 180.55 128.79 180.57 C 147.46 180.81 166.79 178.41 183.36 169.25 C 184.86 169.18 186.36 169.14 187.87 169.10 C 186.91 175.64 190.35 184.38 184.04 188.95 C 177.20 193.80 168.84 195.80 160.74 197.43 C 141.67 200.84 122.03 200.87 102.90 197.93 C 94.13 196.33 85.09 194.37 77.60 189.27 C 70.09 184.51 74.25 174.24 73.31 166.95 Z" />
</g>
<g id="#ff72a3ff">
<path fill="#ff72a3" opacity="1.00" d=" M 150.32 38.28 C 153.09 38.05 155.61 39.78 158.12 40.73 C 190.53 54.91 221.88 71.38 253.35 87.51 C 259.35 90.96 265.42 96.52 265.44 103.97 C 265.46 135.65 265.43 167.33 265.46 199.01 C 265.77 206.87 258.43 211.91 252.32 215.31 C 220.11 232.48 187.84 249.62 154.64 264.84 C 151.33 266.93 147.74 264.91 144.63 263.50 C 112.18 248.61 80.70 231.72 49.20 214.94 C 43.17 211.77 36.60 206.50 36.75 199.02 C 36.79 167.34 36.68 135.65 36.81 103.97 C 36.82 95.16 44.84 89.47 51.91 85.86 C 84.52 69.63 116.53 51.96 150.32 38.28 M 100.22 94.45 C 92.08 96.43 83.34 98.21 76.75 103.75 C 70.99 108.47 73.85 116.66 73.23 123.06 C 72.64 129.39 79.24 132.60 84.09 134.78 C 102.23 141.66 121.99 142.37 141.18 141.87 C 141.28 138.84 141.08 135.75 141.81 132.79 C 141.54 138.92 141.63 145.08 141.54 151.23 C 118.29 153.09 93.57 150.56 73.34 138.09 C 73.41 143.93 72.71 149.83 73.58 155.62 C 75.64 160.31 80.65 162.83 85.19 164.62 C 100.08 169.91 116.06 171.19 131.76 171.32 C 139.60 170.69 147.73 171.75 155.30 169.14 C 164.65 168.96 174.01 169.05 183.36 169.25 C 166.79 178.41 147.46 180.81 128.79 180.57 C 109.59 180.55 89.89 177.10 73.31 166.95 C 74.25 174.24 70.09 184.51 77.60 189.27 C 85.09 194.37 94.13 196.33 102.90 197.93 C 122.03 200.87 141.67 200.84 160.74 197.43 C 168.84 195.80 177.20 193.80 184.04 188.95 C 190.35 184.38 186.91 175.64 187.87 169.10 C 201.26 168.97 214.67 169.16 228.06 169.04 C 230.22 169.17 232.02 167.93 233.77 166.87 C 233.82 155.91 233.87 144.94 233.79 133.98 C 234.29 130.28 230.05 128.85 227.08 129.00 C 213.43 128.99 199.78 128.97 186.13 129.03 C 189.29 122.91 187.36 115.61 187.63 108.99 C 185.86 102.77 178.92 99.92 173.36 97.83 C 149.80 90.42 124.40 90.09 100.22 94.45 Z" />
<path fill="#ff72a3" opacity="1.00" d=" M 115.25 100.19 C 135.00 98.59 155.52 99.47 174.24 106.49 C 175.97 107.55 179.53 108.11 178.97 110.75 C 173.74 114.99 166.91 116.36 160.49 117.72 C 137.27 122.05 112.76 121.95 90.05 115.03 C 87.30 113.59 82.18 112.84 82.03 109.23 C 91.76 102.85 103.95 101.64 115.25 100.19 Z" />
</g>
</svg>
