<?xml version="1.0" encoding="UTF-8" ?>
<!DOCTYPE svg PUBLIC "-//W3C//DTD SVG 1.1//EN" "http://www.w3.org/Graphics/SVG/1.1/DTD/svg11.dtd">
<svg width="500pt" height="500pt" viewBox="0 0 500 500" version="1.1" xmlns="http://www.w3.org/2000/svg">
<g id="#ffffffff">
<path fill="#ffffff" opacity="1.00" d=" M 225.26 150.70 C 235.17 150.63 245.08 150.65 254.99 150.72 C 252.40 164.30 250.43 177.99 247.87 191.58 C 263.95 192.06 280.53 189.81 296.12 194.86 C 304.37 197.31 311.62 203.99 313.54 212.55 C 315.82 222.23 313.23 232.09 311.65 241.67 C 307.99 261.43 304.86 281.28 300.97 300.99 C 291.05 300.95 281.12 301.11 271.20 300.89 C 275.08 280.31 278.47 259.63 282.26 239.03 C 283.23 233.00 284.98 226.47 282.35 220.61 C 278.52 214.50 270.36 214.62 264.00 214.81 C 257.22 215.20 250.11 214.06 243.54 215.32 C 238.31 243.83 233.78 272.53 228.31 301.00 C 218.51 300.98 208.72 301.03 198.92 300.97 C 208.04 250.95 216.58 200.80 225.26 150.70 Z" />
<path fill="#ffffff" opacity="1.00" d=" M 102.33 191.67 C 121.22 191.35 140.11 191.64 158.99 191.53 C 172.07 191.39 185.83 195.21 195.01 204.99 C 205.30 216.60 206.82 233.32 204.18 248.04 C 201.80 263.96 194.68 279.66 182.35 290.31 C 173.52 297.22 162.28 301.38 151.00 301.00 C 138.29 301.07 125.58 300.82 112.87 301.13 C 110.83 316.34 108.21 331.48 106.02 346.67 C 96.11 346.63 86.21 346.75 76.31 346.63 C 84.77 294.95 94.33 243.41 102.33 191.67 M 127.93 214.87 C 124.77 235.97 120.81 256.97 117.12 277.99 C 130.50 277.20 144.86 280.46 157.37 274.37 C 168.94 268.15 172.44 254.16 173.90 242.10 C 175.05 233.73 174.18 222.68 165.66 218.40 C 153.97 212.46 140.48 215.54 127.93 214.87 Z" />
<path fill="#ffffff" opacity="1.00" d=" M 332.64 192.23 C 352.12 190.85 372.26 192.00 392.00 191.67 C 409.29 191.54 427.40 201.12 432.79 218.35 C 439.47 241.73 432.84 268.57 416.43 286.47 C 407.10 296.13 393.43 301.59 380.01 301.00 C 367.69 301.08 355.37 300.80 343.06 301.14 C 341.08 316.31 338.17 331.36 336.31 346.55 C 326.33 346.70 316.35 346.61 306.38 346.58 C 315.39 295.18 323.94 243.69 332.64 192.23 M 358.20 214.88 C 354.68 235.94 351.08 257.00 347.28 278.01 C 362.04 276.98 378.98 281.48 391.72 271.80 C 401.61 262.80 404.29 248.48 404.37 235.66 C 404.68 228.93 402.32 221.25 395.75 218.24 C 384.08 212.50 370.69 215.43 358.20 214.88 Z" />
</g>
<g id="#084558ff">
<path fill="#084558" opacity="1.00" d=" M 231.47 119.65 C 264.46 118.24 297.56 120.82 329.99 126.97 C 369.11 135.00 407.79 148.34 440.82 171.21 C 463.07 186.91 483.23 207.67 491.98 233.98 C 499.57 256.57 496.45 282.06 484.65 302.64 C 467.95 332.17 439.10 352.38 409.27 367.18 C 365.10 388.28 316.19 398.04 267.52 400.36 C 218.58 402.22 169.05 396.40 122.57 380.55 C 87.99 368.61 54.26 350.98 29.40 323.59 C 17.47 310.21 8.04 294.14 4.55 276.41 C 0.33 256.41 4.27 235.04 14.35 217.35 C 33.74 183.68 68.03 161.83 102.97 146.90 C 143.62 129.85 187.59 121.71 231.47 119.65 M 225.26 150.70 C 216.58 200.80 208.04 250.95 198.92 300.97 C 208.72 301.03 218.51 300.98 228.31 301.00 C 233.78 272.53 238.31 243.83 243.54 215.32 C 250.11 214.06 257.22 215.20 264.00 214.81 C 270.36 214.62 278.52 214.50 282.35 220.61 C 284.98 226.47 283.23 233.00 282.26 239.03 C 278.47 259.63 275.08 280.31 271.20 300.89 C 281.12 301.11 291.05 300.95 300.97 300.99 C 304.86 281.28 307.99 261.43 311.65 241.67 C 313.23 232.09 315.82 222.23 313.54 212.55 C 311.62 203.99 304.37 197.31 296.12 194.86 C 280.53 189.81 263.95 192.06 247.87 191.58 C 250.43 177.99 252.40 164.30 254.99 150.72 C 245.08 150.65 235.17 150.63 225.26 150.70 M 102.33 191.67 C 94.33 243.41 84.77 294.95 76.31 346.63 C 86.21 346.75 96.11 346.63 106.02 346.67 C 108.21 331.48 110.83 316.34 112.87 301.13 C 125.58 300.82 138.29 301.07 151.00 301.00 C 162.28 301.38 173.52 297.22 182.35 290.31 C 194.68 279.66 201.80 263.96 204.18 248.04 C 206.82 233.32 205.30 216.60 195.01 204.99 C 185.83 195.21 172.07 191.39 158.99 191.53 C 140.11 191.64 121.22 191.35 102.33 191.67 M 332.64 192.23 C 323.94 243.69 315.39 295.18 306.38 346.58 C 316.35 346.61 326.33 346.70 336.31 346.55 C 338.17 331.36 341.08 316.31 343.06 301.14 C 355.37 300.80 367.69 301.08 380.01 301.00 C 393.43 301.59 407.10 296.13 416.43 286.47 C 432.84 268.57 439.47 241.73 432.79 218.35 C 427.40 201.12 409.29 191.54 392.00 191.67 C 372.26 192.00 352.12 190.85 332.64 192.23 Z" />
<path fill="#084558" opacity="1.00" d=" M 127.93 214.87 C 140.48 215.54 153.97 212.46 165.66 218.40 C 174.18 222.68 175.05 233.73 173.90 242.10 C 172.44 254.16 168.94 268.15 157.37 274.37 C 144.86 280.46 130.50 277.20 117.12 277.99 C 120.81 256.97 124.77 235.97 127.93 214.87 Z" />
<path fill="#084558" opacity="1.00" d=" M 358.20 214.88 C 370.69 215.43 384.08 212.50 395.75 218.24 C 402.32 221.25 404.68 228.93 404.37 235.66 C 404.29 248.48 401.61 262.80 391.72 271.80 C 378.98 281.48 362.04 276.98 347.28 278.01 C 351.08 257.00 354.68 235.94 358.20 214.88 Z" />
</g>
</svg>
