<?xml version="1.0" encoding="UTF-8" ?>
<!DOCTYPE svg PUBLIC "-//W3C//DTD SVG 1.1//EN" "http://www.w3.org/Graphics/SVG/1.1/DTD/svg11.dtd">
<svg width="300pt" height="300pt" viewBox="0 0 300 300" version="1.1" xmlns="http://www.w3.org/2000/svg">
<g id="#ffffffff">
</g>
<g id="#00b9bdff">
<path fill="#00b9bd" opacity="1.00" d=" M 126.13 74.09 C 149.48 67.91 176.59 69.68 196.38 84.70 C 208.19 93.06 216.65 105.27 228.56 113.47 C 241.69 122.20 260.17 121.33 272.57 111.67 C 278.33 108.04 282.20 102.40 286.93 97.67 C 282.62 114.05 274.76 130.51 260.59 140.55 C 244.98 151.85 224.64 153.95 205.99 151.68 C 189.85 149.95 174.93 141.84 163.46 130.56 C 155.48 123.22 148.57 114.54 139.25 108.78 C 127.73 101.91 112.44 102.06 100.90 108.82 C 93.48 112.68 88.16 119.27 82.64 125.34 C 87.48 102.60 102.76 80.43 126.13 74.09 Z" />
<path fill="#00b9bd" opacity="1.00" d=" M 51.04 158.09 C 73.18 149.07 99.74 149.61 120.91 161.11 C 135.61 168.80 145.24 182.84 158.04 192.98 C 170.55 202.79 189.26 203.42 202.45 194.55 C 208.89 190.64 213.61 184.68 218.74 179.29 C 214.01 200.92 200.22 222.18 178.36 229.34 C 167.46 234.01 155.53 232.93 143.99 233.01 C 131.67 233.49 119.65 229.00 109.22 222.72 C 96.47 214.80 87.35 202.60 75.93 193.10 C 62.41 182.19 41.80 182.55 28.24 193.22 C 22.89 196.60 19.55 202.10 14.87 206.21 C 19.50 186.17 31.54 166.48 51.04 158.09 Z" />
</g>
</svg>
