<?xml version="1.0" encoding="UTF-8" ?>
<!DOCTYPE svg PUBLIC "-//W3C//DTD SVG 1.1//EN" "http://www.w3.org/Graphics/SVG/1.1/DTD/svg11.dtd">
<svg width="300pt" height="300pt" viewBox="0 0 300 300" version="1.1" xmlns="http://www.w3.org/2000/svg">
<g id="#ffffffff">
</g>
<g id="#00769eff">
<path fill="#00769e" opacity="1.00" d=" M 142.27 25.20 C 192.52 21.39 242.99 50.90 264.54 96.39 C 287.03 140.43 279.77 197.19 247.33 234.42 C 223.84 262.60 187.65 279.47 151.00 279.65 C 121.08 279.78 91.25 268.98 68.41 249.64 C 29.08 217.43 12.74 160.48 29.39 112.38 C 44.79 63.99 91.50 27.76 142.27 25.20 M 135.50 31.75 C 100.25 35.87 67.47 56.51 48.33 86.38 C 27.16 118.52 22.97 161.01 37.31 196.71 C 53.48 238.84 94.85 269.85 139.91 273.17 C 187.48 277.95 235.96 251.11 257.71 208.64 C 274.27 177.73 276.08 139.52 262.90 107.06 C 250.97 77.17 226.65 52.42 196.86 40.19 C 177.63 31.99 156.23 29.31 135.50 31.75 Z" />
<path fill="#00769e" opacity="1.00" d=" M 135.97 44.00 C 167.48 39.51 200.33 50.23 223.90 71.45 C 214.90 71.30 206.25 77.80 204.74 86.80 C 202.37 97.47 209.12 107.02 214.37 115.65 C 222.35 128.19 226.43 143.81 222.47 158.45 C 217.20 178.57 210.47 198.29 204.87 218.33 C 191.36 179.36 178.56 140.13 165.21 101.09 C 170.01 100.64 174.90 100.60 179.61 99.50 C 183.74 97.41 181.77 90.31 177.08 91.10 C 158.07 92.70 138.95 92.84 119.95 91.10 C 115.15 89.94 112.38 96.91 116.56 99.45 C 120.91 100.62 125.48 100.58 129.94 101.05 C 135.82 116.59 141.39 132.25 147.08 147.86 C 138.96 171.67 131.22 195.62 123.09 219.44 C 109.95 179.97 96.57 140.58 83.38 101.13 C 88.11 100.60 92.94 100.61 97.58 99.49 C 101.88 97.66 99.77 90.17 95.07 91.11 C 83.06 91.87 71.03 92.77 58.98 92.31 C 76.14 66.15 104.85 47.83 135.97 44.00 Z" />
<path fill="#00769e" opacity="1.00" d=" M 246.13 100.27 C 259.34 123.65 262.66 152.22 256.31 178.22 C 249.48 206.78 230.40 231.99 205.05 246.71 C 216.31 214.39 227.35 181.98 238.69 149.68 C 244.88 134.07 248.24 117.06 246.13 100.27 Z" />
<path fill="#00769e" opacity="1.00" d=" M 50.47 107.94 C 68.15 155.37 85.18 203.05 102.70 250.54 C 74.87 237.23 53.37 211.55 45.12 181.83 C 38.28 157.57 40.13 130.95 50.47 107.94 Z" />
<path fill="#00769e" opacity="1.00" d=" M 119.41 256.96 C 130.26 225.17 141.35 193.47 152.12 161.65 C 163.61 192.86 174.89 224.15 186.41 255.36 C 164.93 262.70 141.18 263.58 119.41 256.96 Z" />
</g>
</svg>
